{
.appVersion = "1274";
date = "2019-10-25 21:28:01 +0000";
disablesAutomaticAlignment = 1;
familyName = NerdfontsPL;
fontMaster = (
{
ascender = 1568;
capHeight = 1420;
custom = Book;
customParameters = (
{
name = typoAscender;
value = 1568;
},
{
name = typoDescender;
value = -480;
},
{
name = typoLineGap;
value = 410;
},
{
name = winAscent;
value = 1978;
},
{
name = winDescent;
value = 480;
},
{
name = hheaAscender;
value = 1978;
},
{
name = hheaDescender;
value = -480;
},
{
name = strikeoutPosition;
value = 636;
},
{
name = strikeoutSize;
value = 50;
}
);
descender = -480;
id = "F8C3375C-B372-4BAE-A3FB-5A8DC7FA7AB9";
weightValue = 400;
widthValue = 5;
xHeight = 1060;
}
);
glyphs = (
{
color = 2;
glyphname = uniE0A0;
lastChange = "2019-12-03 18:51:57 +0000";
layers = (
{
layerId = "F8C3375C-B372-4BAE-A3FB-5A8DC7FA7AB9";
paths = (
{
closed = 1;
nodes = (
"129 1803 LINE",
"129 398 LINE",
"405 576 LINE",
"405 1803 LINE",
"129 1803 LINE"
);
},
{
closed = 1;
nodes = (
"129 -126 LINE",
"129 -725 LINE",
"405 -725 LINE",
"405 -126 LINE SMOOTH",
"405 -43 OFFCURVE",
"419 22 OFFCURVE",
"446 70 CURVE SMOOTH",
"467 109 OFFCURVE",
"509 149 OFFCURVE",
"573 192 CURVE SMOOTH",
"649 244 LINE SMOOTH",
"720 289 OFFCURVE",
"773 347 OFFCURVE",
"808 416 CURVE SMOOTH",
"844 485 OFFCURVE",
"862 583 OFFCURVE",
"862 710 CURVE SMOOTH",
"862 1096 LINE",
"1071 1096 LINE",
"780 1438 LINE",
"487 1096 LINE",
"696 1096 LINE",
"696 766 LINE SMOOTH",
"696 678 OFFCURVE",
"683 609 OFFCURVE",
"657 558 CURVE SMOOTH",
"629 502 OFFCURVE",
"587 455 OFFCURVE",
"530 418 CURVE SMOOTH",
"376 320 LINE SMOOTH",
"302 272 OFFCURVE",
"246 221 OFFCURVE",
"208 166 CURVE SMOOTH",
"155 91 OFFCURVE",
"129 -6 OFFCURVE",
"129 -126 CURVE"
);
}
);
width = 1200;
}
);
note = uniE0A0;
unicode = E0A0;
},
{
color = 2;
glyphname = uniE0A1;
lastChange = "2019-12-03 18:43:28 +0000";
layers = (
{
layerId = "F8C3375C-B372-4BAE-A3FB-5A8DC7FA7AB9";
paths = (
{
closed = 1;
nodes = (
"266 1490 LINE",
"266 590 LINE",
"770 590 LINE",
"770 722 LINE",
"418 722 LINE",
"418 1490 LINE",
"266 1490 LINE"
);
},
{
closed = 1;
nodes = (
"386 508 LINE",
"386 -392 LINE",
"542 -392 LINE",
"542 -196 LINE",
"524 192 LINE",
"768 -392 LINE",
"934 -392 LINE",
"934 508 LINE",
"778 508 LINE",
"778 350 LINE",
"798 -78 LINE",
"550 508 LINE",
"386 508 LINE"
);
}
);
width = 1200;
}
);
note = uniE0A1;
unicode = E0A1;
},
{
color = 2;
glyphname = uniE0A2;
lastChange = "2019-12-03 18:43:28 +0000";
layers = (
{
layerId = "F8C3375C-B372-4BAE-A3FB-5A8DC7FA7AB9";
paths = (
{
closed = 1;
nodes = (
"334 -252 LINE",
"864 -252 LINE SMOOTH",
"959 -252 OFFCURVE",
"1006 -205 OFFCURVE",
"1006 -111 CURVE SMOOTH",
"1006 577 LINE SMOOTH",
"1006 678 OFFCURVE",
"965 729 OFFCURVE",
"884 729 CURVE",
"884 1034 LINE SMOOTH",
"884 1125 OFFCURVE",
"856 1202 OFFCURVE",
"800 1264 CURVE SMOOTH",
"747 1321 OFFCURVE",
"680 1350 OFFCURVE",
"600 1350 CURVE SMOOTH",
"520 1350 OFFCURVE",
"453 1321 OFFCURVE",
"400 1264 CURVE SMOOTH",
"344 1202 OFFCURVE",
"316 1125 OFFCURVE",
"316 1034 CURVE SMOOTH",
"316 729 LINE",
"235 729 OFFCURVE",
"194 678 OFFCURVE",
"194 577 CURVE SMOOTH",
"194 -111 LINE SMOOTH",
"194 -205 OFFCURVE",
"241 -252 OFFCURVE",
"334 -252 CURVE"
);
},
{
closed = 1;
nodes = (
"748 729 LINE",
"452 729 LINE",
"452 1034 LINE SMOOTH",
"452 1092 OFFCURVE",
"465 1137 OFFCURVE",
"492 1169 CURVE SMOOTH",
"520 1204 OFFCURVE",
"556 1221 OFFCURVE",
"600 1221 CURVE SMOOTH",
"643 1221 OFFCURVE",
"678 1204 OFFCURVE",
"706 1169 CURVE SMOOTH",
"734 1136 OFFCURVE",
"748 1091 OFFCURVE",
"748 1034 CURVE SMOOTH",
"748 729 LINE"
);
},
{
closed = 1;
nodes = (
"656 -16 LINE",
"542 -16 LINE",
"542 307 LINE",
"498 330 OFFCURVE",
"476 367 OFFCURVE",
"476 418 CURVE SMOOTH",
"476 453 OFFCURVE",
"488 482 OFFCURVE",
"512 506 CURVE SMOOTH",
"536 531 OFFCURVE",
"565 543 OFFCURVE",
"599 543 CURVE SMOOTH",
"633 543 OFFCURVE",
"663 531 OFFCURVE",
"688 506 CURVE SMOOTH",
"711 483 OFFCURVE",
"722 453 OFFCURVE",
"722 418 CURVE SMOOTH",
"722 367 OFFCURVE",
"700 330 OFFCURVE",
"656 307 CURVE",
"656 -16 LINE"
);
}
);
width = 1200;
}
);
note = uniE0A2;
unicode = E0A2;
},
{
color = 2;
glyphname = uniE0A3;
lastChange = "2019-12-03 18:43:28 +0000";
layers = (
{
layerId = "F8C3375C-B372-4BAE-A3FB-5A8DC7FA7AB9";
paths = (
{
closed = 1;
nodes = (
"330 501 LINE",
"330 -467 LINE",
"528 -467 LINE",
"528 -257 LINE",
"504 162 LINE",
"812 -467 LINE",
"1023 -467 LINE",
"1023 501 LINE",
"822 501 LINE",
"822 331 LINE",
"849 -130 LINE",
"538 501 LINE",
"330 501 LINE"
);
},
{
closed = 1;
nodes = (
"177 1565 LINE",
"177 588 LINE",
"797 588 LINE",
"797 730 LINE",
"370 730 LINE",
"367 1405 LINE",
"797 1405 LINE",
"797 1565 LINE",
"177 1565 LINE"
);
}
);
width = 1200;
}
);
note = uniE0A3;
unicode = E0A3;
},
{
color = 2;
glyphname = uniE0B0;
lastChange = "2019-12-03 18:43:28 +0000";
layers = (
{
layerId = "F8C3375C-B372-4BAE-A3FB-5A8DC7FA7AB9";
paths = (
{
closed = 1;
nodes = (
"0 1803 LINE",
"0 -705 LINE",
"1200 550 LINE",
"0 1803 LINE"
);
}
);
width = 1200;
}
);
note = uniE0B0;
unicode = E0B0;
},
{
color = 2;
glyphname = uniE0B1;
lastChange = "2019-12-03 18:43:28 +0000";
layers = (
{
layerId = "F8C3375C-B372-4BAE-A3FB-5A8DC7FA7AB9";
paths = (
{
closed = 1;
nodes = (
"0 -597 LINE",
"103 -705 LINE",
"1200 550 LINE",
"103 1803 LINE",
"0 1696 LINE",
"1000 550 LINE",
"0 -597 LINE"
);
}
);
width = 1200;
}
);
note = uniE0B1;
unicode = E0B1;
},
{
color = 2;
glyphname = uniE0B2;
lastChange = "2019-12-03 18:43:28 +0000";
layers = (
{
layerId = "F8C3375C-B372-4BAE-A3FB-5A8DC7FA7AB9";
paths = (
{
closed = 1;
nodes = (
"0 550 LINE",
"1200 -705 LINE",
"1200 1803 LINE",
"0 550 LINE"
);
}
);
width = 1200;
}
);
note = uniE0B2;
unicode = E0B2;
},
{
color = 2;
glyphname = uniE0B3;
lastChange = "2019-12-03 18:43:28 +0000";
layers = (
{
layerId = "F8C3375C-B372-4BAE-A3FB-5A8DC7FA7AB9";
paths = (
{
closed = 1;
nodes = (
"0 550 LINE",
"1098 -705 LINE",
"1200 -597 LINE",
"197 550 LINE",
"1200 1696 LINE",
"1098 1803 LINE",
"0 550 LINE"
);
}
);
width = 1200;
}
);
note = uniE0B3;
unicode = E0B3;
},
{
color = 2;
glyphname = uniE0B4;
lastChange = "2019-12-03 18:48:52 +0000";
layers = (
{
layerId = "F8C3375C-B372-4BAE-A3FB-5A8DC7FA7AB9";
paths = (
{
closed = 1;
nodes = (
"0 1790 LINE",
"0 -692 LINE",
"723 -692 OFFCURVE",
"1200 -199 OFFCURVE",
"1200 549 CURVE SMOOTH",
"1200 1297 OFFCURVE",
"723 1790 OFFCURVE",
"0 1790 CURVE"
);
}
);
width = 1200;
}
);
note = uniE0B4;
unicode = E0B4;
},
{
color = 2;
glyphname = uniE0B5;
lastChange = "2019-12-03 18:43:28 +0000";
layers = (
{
background = {
paths = (
{
closed = 1;
nodes = (
"238 -492 LINE",
"490 -401 OFFCURVE",
"706 -256 OFFCURVE",
"856 -91 CURVE SMOOTH",
"1005 74 OFFCURVE",
"1113 268 OFFCURVE",
"1163 460 CURVE SMOOTH",
"1187 556 OFFCURVE",
"1200 652 OFFCURVE",
"1200 747 CURVE SMOOTH",
"1200 842 OFFCURVE",
"1187 938 OFFCURVE",
"1163 1035 CURVE SMOOTH",
"1113 1227 OFFCURVE",
"1057 1386 OFFCURVE",
"697 1692 CURVE",
"727 1705 OFFCURVE",
"575 1804 OFFCURVE",
"238 1990 CURVE",
"0 1990 LINE",
"249 1898 OFFCURVE",
"465 1753 OFFCURVE",
"616 1587 CURVE SMOOTH",
"690 1504 OFFCURVE",
"756 1415 OFFCURVE",
"808 1321 CURVE SMOOTH",
"913 1132 OFFCURVE",
"962 938 OFFCURVE",
"962 747 CURVE SMOOTH",
"962 508 OFFCURVE",
"878 262 OFFCURVE",
"721 41 CURVE SMOOTH",
"563 -180 OFFCURVE",
"310 -377 OFFCURVE",
"0 -492 CURVE"
);
}
);
};
layerId = "F8C3375C-B372-4BAE-A3FB-5A8DC7FA7AB9";
paths = (
{
closed = 1;
nodes = (
"238 1786 LINE",
"0 1786 LINE",
"551 1582 OFFCURVE",
"962 1096 OFFCURVE",
"962 547 CURVE SMOOTH",
"962 -2 OFFCURVE",
"551 -488 OFFCURVE",
"0 -692 CURVE",
"238 -692 LINE",
"794 -491 OFFCURVE",
"1200 -11 OFFCURVE",
"1200 547 CURVE SMOOTH",
"1200 1105 OFFCURVE",
"794 1585 OFFCURVE",
"238 1786 CURVE"
);
}
);
width = 1200;
}
);
note = uniE0B5;
unicode = E0B5;
},
{
color = 2;
glyphname = uniE0B6;
lastChange = "2019-12-03 18:49:01 +0000";
layers = (
{
layerId = "F8C3375C-B372-4BAE-A3FB-5A8DC7FA7AB9";
paths = (
{
closed = 1;
nodes = (
"1200 -692 LINE",
"1200 1790 LINE",
"477 1790 OFFCURVE",
"0 1297 OFFCURVE",
"0 549 CURVE SMOOTH",
"0 -199 OFFCURVE",
"477 -692 OFFCURVE",
"1200 -692 CURVE"
);
}
);
width = 1200;
}
);
note = uniE0B6;
unicode = E0B6;
},
{
color = 2;
glyphname = uniE0B7;
lastChange = "2019-12-03 18:43:28 +0000";
layers = (
{
layerId = "F8C3375C-B372-4BAE-A3FB-5A8DC7FA7AB9";
paths = (
{
closed = 1;
nodes = (
"962 1786 LINE",
"406 1585 OFFCURVE",
"0 1105 OFFCURVE",
"0 547 CURVE SMOOTH",
"0 -11 OFFCURVE",
"406 -491 OFFCURVE",
"962 -692 CURVE",
"1200 -692 LINE",
"649 -488 OFFCURVE",
"238 -2 OFFCURVE",
"238 547 CURVE SMOOTH",
"238 1096 OFFCURVE",
"649 1582 OFFCURVE",
"1200 1786 CURVE",
"962 1786 LINE"
);
}
);
width = 1200;
}
);
note = uniE0B7;
unicode = E0B7;
},
{
color = 2;
glyphname = uniE0B8;
lastChange = "2019-12-03 18:43:28 +0000";
layers = (
{
layerId = "F8C3375C-B372-4BAE-A3FB-5A8DC7FA7AB9";
paths = (
{
closed = 1;
nodes = (
"0 1803 LINE",
"0 -705 LINE",
"1200 -705 LINE",
"0 1803 LINE"
);
}
);
width = 1200;
}
);
note = uniE0B8;
unicode = E0B8;
},
{
color = 2;
glyphname = uniE0B9;
lastChange = "2019-12-03 18:43:28 +0000";
layers = (
{
layerId = "F8C3375C-B372-4BAE-A3FB-5A8DC7FA7AB9";
paths = (
{
closed = 1;
nodes = (
"0 1803 LINE",
"1144 -705 LINE",
"1200 -705 LINE",
"56 1803 LINE",
"0 1803 LINE"
);
}
);
width = 1200;
}
);
note = uniE0B9;
unicode = E0B9;
},
{
color = 2;
glyphname = uniE0BA;
lastChange = "2019-12-03 18:43:28 +0000";
layers = (
{
layerId = "F8C3375C-B372-4BAE-A3FB-5A8DC7FA7AB9";
paths = (
{
closed = 1;
nodes = (
"1200 1803 LINE",
"0 -705 LINE",
"1200 -705 LINE",
"1200 1803 LINE"
);
}
);
width = 1200;
}
);
note = uniE0BA;
unicode = E0BA;
},
{
color = 2;
glyphname = uniE0BB;
lastChange = "2019-12-03 18:43:28 +0000";
layers = (
{
layerId = "F8C3375C-B372-4BAE-A3FB-5A8DC7FA7AB9";
paths = (
{
closed = 1;
nodes = (
"1144 1803 LINE",
"0 -705 LINE",
"56 -705 LINE",
"1200 1803 LINE",
"1144 1803 LINE"
);
}
);
width = 1200;
}
);
note = uniE0BB;
unicode = E0BB;
},
{
color = 2;
glyphname = uniE0BC;
lastChange = "2019-12-03 18:43:28 +0000";
layers = (
{
layerId = "F8C3375C-B372-4BAE-A3FB-5A8DC7FA7AB9";
paths = (
{
closed = 1;
nodes = (
"0 1803 LINE",
"0 -705 LINE",
"1200 1803 LINE",
"0 1803 LINE"
);
}
);
width = 1200;
}
);
note = uniE0BC;
unicode = E0BC;
},
{
color = 2;
glyphname = uniE0BD;
lastChange = "2019-12-03 18:43:28 +0000";
layers = (
{
layerId = "F8C3375C-B372-4BAE-A3FB-5A8DC7FA7AB9";
paths = (
{
closed = 1;
nodes = (
"1144 1803 LINE",
"0 -705 LINE",
"56 -705 LINE",
"1200 1803 LINE",
"1144 1803 LINE"
);
}
);
width = 1200;
}
);
note = uniE0BD;
unicode = E0BD;
},
{
color = 2;
glyphname = uniE0BE;
lastChange = "2019-12-03 18:43:28 +0000";
layers = (
{
layerId = "F8C3375C-B372-4BAE-A3FB-5A8DC7FA7AB9";
paths = (
{
closed = 1;
nodes = (
"0 1803 LINE",
"1200 -705 LINE",
"1200 1803 LINE",
"0 1803 LINE"
);
}
);
width = 1200;
}
);
note = uniE0BE;
unicode = E0BE;
},
{
color = 2;
glyphname = uniE0BF;
lastChange = "2019-12-03 18:43:28 +0000";
layers = (
{
layerId = "F8C3375C-B372-4BAE-A3FB-5A8DC7FA7AB9";
paths = (
{
closed = 1;
nodes = (
"0 1803 LINE",
"1144 -705 LINE",
"1200 -705 LINE",
"56 1803 LINE",
"0 1803 LINE"
);
}
);
width = 1200;
}
);
note = uniE0BF;
unicode = E0BF;
},
{
color = 2;
glyphname = uniE0C0;
lastChange = "2019-12-03 18:43:28 +0000";
layers = (
{
layerId = "F8C3375C-B372-4BAE-A3FB-5A8DC7FA7AB9";
paths = (
{
closed = 1;
nodes = (
"10 -692 LINE",
"31 -692 OFFCURVE",
"56 -659 OFFCURVE",
"80 -617 CURVE SMOOTH",
"93 -592 OFFCURVE",
"106 -568 OFFCURVE",
"119 -544 CURVE SMOOTH",
"141 -504 OFFCURVE",
"166 -474 OFFCURVE",
"187 -474 CURVE SMOOTH",
"191 -474 OFFCURVE",
"195 -475 OFFCURVE",
"199 -477 CURVE SMOOTH",
"209 -484 OFFCURVE",
"221 -487 OFFCURVE",
"231 -487 CURVE SMOOTH",
"240 -487 OFFCURVE",
"248 -485 OFFCURVE",
"256 -482 CURVE SMOOTH",
"265 -478 OFFCURVE",
"275 -473 OFFCURVE",
"285 -467 CURVE SMOOTH",
"300 -457 OFFCURVE",
"327 -436 OFFCURVE",
"342 -427 CURVE SMOOTH",
"353 -420 OFFCURVE",
"363 -414 OFFCURVE",
"371 -410 CURVE",
"354 -400 OFFCURVE",
"322 -390 OFFCURVE",
"299 -375 CURVE SMOOTH",
"288 -367 OFFCURVE",
"277 -356 OFFCURVE",
"268 -343 CURVE SMOOTH",
"243 -308 OFFCURVE",
"226 -291 OFFCURVE",
"207 -291 CURVE SMOOTH",
"203 -291 OFFCURVE",
"198 -292 OFFCURVE",
"194 -294 CURVE SMOOTH",
"181 -299 OFFCURVE",
"167 -311 OFFCURVE",
"152 -332 CURVE",
"152 -313 LINE SMOOTH",
"149 -202 OFFCURVE",
"189 -104 OFFCURVE",
"225 -68 CURVE SMOOTH",
"236 -56 OFFCURVE",
"249 -51 OFFCURVE",
"261 -51 CURVE SMOOTH",
"274 -51 OFFCURVE",
"288 -57 OFFCURVE",
"300 -66 CURVE SMOOTH",
"312 -75 OFFCURVE",
"324 -86 OFFCURVE",
"337 -99 CURVE SMOOTH",
"357 -119 OFFCURVE",
"391 -157 OFFCURVE",
"410 -170 CURVE SMOOTH",
"424 -181 OFFCURVE",
"437 -185 OFFCURVE",
"448 -185 CURVE SMOOTH",
"508 -185 OFFCURVE",
"578 -155 OFFCURVE",
"625 -85 CURVE",
"597 -106 OFFCURVE",
"571 -117 OFFCURVE",
"547 -117 CURVE SMOOTH",
"536 -117 OFFCURVE",
"526 -114 OFFCURVE",
"516 -110 CURVE SMOOTH",
"491 -99 OFFCURVE",
"471 -66 OFFCURVE",
"461 -34 CURVE SMOOTH",
"451 -3 OFFCURVE",
"434 50 OFFCURVE",
"421 78 CURVE SMOOTH",
"414 92 LINE",
"435 110 OFFCURVE",
"448 126 OFFCURVE",
"462 152 CURVE SMOOTH",
"464 156 OFFCURVE",
"469 166 OFFCURVE",
"476 181 CURVE SMOOTH",
"483 196 OFFCURVE",
"488 207 OFFCURVE",
"491 214 CURVE SMOOTH",
"497 225 OFFCURVE",
"503 229 OFFCURVE",
"512 229 CURVE SMOOTH",
"527 229 OFFCURVE",
"545 215 OFFCURVE",
"562 198 CURVE SMOOTH",
"577 182 OFFCURVE",
"607 148 OFFCURVE",
"624 130 CURVE SMOOTH",
"636 117 OFFCURVE",
"646 106 OFFCURVE",
"655 99 CURVE SMOOTH",
"672 84 OFFCURVE",
"690 78 OFFCURVE",
"705 78 CURVE SMOOTH",
"713 78 OFFCURVE",
"738 84 OFFCURVE",
"747 84 CURVE SMOOTH",
"769 84 OFFCURVE",
"812 126 OFFCURVE",
"842 158 CURVE SMOOTH",
"859 174 OFFCURVE",
"890 210 OFFCURVE",
"906 228 CURVE SMOOTH",
"925 250 OFFCURVE",
"952 281 OFFCURVE",
"969 301 CURVE",
"895 257 OFFCURVE",
"824 225 OFFCURVE",
"784 225 CURVE SMOOTH",
"774 225 OFFCURVE",
"766 227 OFFCURVE",
"760 231 CURVE",
"760 232 OFFCURVE",
"694 283 OFFCURVE",
"683 300 CURVE SMOOTH",
"656 339 OFFCURVE",
"620 408 OFFCURVE",
"590 447 CURVE SMOOTH",
"580 459 OFFCURVE",
"571 465 OFFCURVE",
"564 465 CURVE SMOOTH",
"563 465 OFFCURVE",
"562 465 OFFCURVE",
"560 464 CURVE SMOOTH",
"547 459 LINE",
"556 484 LINE SMOOTH",
"584 563 OFFCURVE",
"616 600 OFFCURVE",
"648 609 CURVE SMOOTH",
"667 614 OFFCURVE",
"675 616 OFFCURVE",
"699 618 CURVE SMOOTH",
"710 619 OFFCURVE",
"719 619 OFFCURVE",
"725 620 CURVE SMOOTH",
"769 627 OFFCURVE",
"802 654 OFFCURVE",
"847 709 CURVE",
"835 703 OFFCURVE",
"824 701 OFFCURVE",
"812 701 CURVE SMOOTH",
"802 701 OFFCURVE",
"792 703 OFFCURVE",
"783 708 CURVE SMOOTH",
"754 724 OFFCURVE",
"742 721 OFFCURVE",
"712 741 CURVE SMOOTH",
"694 752 OFFCURVE",
"679 770 OFFCURVE",
"667 795 CURVE SMOOTH",
"661 810 LINE",
"680 823 OFFCURVE",
"706 847 OFFCURVE",
"730 886 CURVE SMOOTH",
"736 895 OFFCURVE",
"775 963 OFFCURVE",
"777 965 CURVE",
"809 1021 OFFCURVE",
"849 1050 OFFCURVE",
"884 1053 CURVE SMOOTH",
"890 1053 OFFCURVE",
"895 1054 OFFCURVE",
"901 1054 CURVE SMOOTH",
"932 1054 OFFCURVE",
"965 1048 OFFCURVE",
"994 1038 CURVE SMOOTH",
"1016 1030 OFFCURVE",
"1039 1026 OFFCURVE",
"1062 1026 CURVE SMOOTH",
"1076 1026 OFFCURVE",
"1089 1027 OFFCURVE",
"1102 1030 CURVE SMOOTH",
"1135 1038 OFFCURVE",
"1171 1076 OFFCURVE",
"1200 1143 CURVE",
"1174 1107 OFFCURVE",
"1146 1093 OFFCURVE",
"1121 1093 CURVE SMOOTH",
"1105 1093 OFFCURVE",
"1086 1100 OFFCURVE",
"1065 1118 CURVE SMOOTH",
"1032 1145 OFFCURVE",
"1009 1172 OFFCURVE",
"972 1221 CURVE SMOOTH",
"915 1298 OFFCURVE",
"858 1336 OFFCURVE",
"803 1336 CURVE SMOOTH",
"772 1336 OFFCURVE",
"741 1325 OFFCURVE",
"711 1301 CURVE SMOOTH",
"679 1275 OFFCURVE",
"636 1212 OFFCURVE",
"605 1170 CURVE SMOOTH",
"578 1134 OFFCURVE",
"545 1104 OFFCURVE",
"513 1104 CURVE SMOOTH",
"505 1104 OFFCURVE",
"497 1106 OFFCURVE",
"489 1110 CURVE SMOOTH",
"445 1131 OFFCURVE",
"418 1195 OFFCURVE",
"418 1269 CURVE SMOOTH",
"418 1333 OFFCURVE",
"437 1390 OFFCURVE",
"474 1423 CURVE SMOOTH",
"493 1442 OFFCURVE",
"521 1464 OFFCURVE",
"540 1483 CURVE SMOOTH",
"548 1490 OFFCURVE",
"557 1500 OFFCURVE",
"567 1512 CURVE SMOOTH",
"588 1536 OFFCURVE",
"605 1566 OFFCURVE",
"622 1606 CURVE",
"591 1559 OFFCURVE",
"562 1529 OFFCURVE",
"531 1529 CURVE SMOOTH",
"512 1529 OFFCURVE",
"493 1540 OFFCURVE",
"471 1565 CURVE SMOOTH",
"448 1591 OFFCURVE",
"427 1603 OFFCURVE",
"407 1603 CURVE SMOOTH",
"391 1603 OFFCURVE",
"377 1596 OFFCURVE",
"363 1582 CURVE SMOOTH",
"347 1566 OFFCURVE",
"328 1540 OFFCURVE",
"308 1503 CURVE SMOOTH",
"297 1483 OFFCURVE",
"277 1446 OFFCURVE",
"259 1417 CURVE SMOOTH",
"250 1402 OFFCURVE",
"243 1391 OFFCURVE",
"237 1384 CURVE SMOOTH",
"230 1377 OFFCURVE",
"222 1368 OFFCURVE",
"214 1358 CURVE SMOOTH",
"201 1343 OFFCURVE",
"188 1335 OFFCURVE",
"176 1335 CURVE SMOOTH",
"159 1335 OFFCURVE",
"144 1351 OFFCURVE",
"134 1386 CURVE SMOOTH",
"130 1397 OFFCURVE",
"129 1407 OFFCURVE",
"129 1418 CURVE SMOOTH",
"129 1436 OFFCURVE",
"134 1454 OFFCURVE",
"143 1471 CURVE SMOOTH",
"150 1484 OFFCURVE",
"163 1502 OFFCURVE",
"182 1525 CURVE SMOOTH",
"201 1548 OFFCURVE",
"213 1566 OFFCURVE",
"216 1577 CURVE SMOOTH",
"224 1603 OFFCURVE",
"252 1689 OFFCURVE",
"263 1709 CURVE SMOOTH",
"279 1741 OFFCURVE",
"294 1759 OFFCURVE",
"321 1756 CURVE",
"303 1779 OFFCURVE",
"285 1791 OFFCURVE",
"267 1791 CURVE SMOOTH",
"241 1791 OFFCURVE",
"216 1770 OFFCURVE",
"190 1728 CURVE SMOOTH",
"172 1699 OFFCURVE",
"160 1682 OFFCURVE",
"142 1662 CURVE SMOOTH",
"132 1651 OFFCURVE",
"124 1644 OFFCURVE",
"116 1641 CURVE SMOOTH",
"110 1638 OFFCURVE",
"104 1637 OFFCURVE",
"98 1637 CURVE SMOOTH",
"78 1637 OFFCURVE",
"60 1654 OFFCURVE",
"43 1700 CURVE SMOOTH",
"32 1729 OFFCURVE",
"29 1748 OFFCURVE",
"20 1764 CURVE SMOOTH",
"14 1773 OFFCURVE",
"10 1773 OFFCURVE",
"1 1774 CURVE",
"1 1752 OFFCURVE",
"0 1726 OFFCURVE",
"0 1697 CURVE SMOOTH",
"0 1640 OFFCURVE",
"1 1570 OFFCURVE",
"2 1489 CURVE SMOOTH",
"3 1366 OFFCURVE",
"3 1286 OFFCURVE",
"4 1251 CURVE SMOOTH",
"4 814 OFFCURVE",
"2 -489 OFFCURVE",
"1 -690 CURVE",
"4 -692 OFFCURVE",
"7 -692 OFFCURVE",
"10 -692 CURVE"
);
}
);
width = 1200;
}
);
note = uniE0C0;
unicode = E0C0;
},
{
color = 2;
glyphname = uniE0C1;
lastChange = "2019-12-03 18:43:28 +0000";
layers = (
{
background = {
paths = (
{
closed = 1;
nodes = (
"40 -492 OFFCURVE",
"66 -463 OFFCURVE",
"88 -423 CURVE SMOOTH",
"101 -400 OFFCURVE",
"114 -376 OFFCURVE",
"126 -353 CURVE SMOOTH",
"147 -312 OFFCURVE",
"169 -283 OFFCURVE",
"187 -283 CURVE SMOOTH",
"189 -283 OFFCURVE",
"192 -284 OFFCURVE",
"195 -285 CURVE SMOOTH",
"205 -292 OFFCURVE",
"216 -295 OFFCURVE",
"227 -295 CURVE SMOOTH",
"235 -295 OFFCURVE",
"244 -293 OFFCURVE",
"251 -290 CURVE SMOOTH",
"260 -287 OFFCURVE",
"269 -282 OFFCURVE",
"279 -277 CURVE SMOOTH",
"294 -268 OFFCURVE",
"319 -248 OFFCURVE",
"334 -239 CURVE SMOOTH",
"344 -232 OFFCURVE",
"353 -227 OFFCURVE",
"360 -223 CURVE SMOOTH",
"361 -222 OFFCURVE",
"363 -222 OFFCURVE",
"364 -222 CURVE",
"399 -110 LINE",
"382 -101 OFFCURVE",
"352 -90 OFFCURVE",
"330 -76 CURVE SMOOTH",
"319 -69 OFFCURVE",
"309 -59 OFFCURVE",
"301 -47 CURVE SMOOTH",
"276 -13 OFFCURVE",
"260 4 OFFCURVE",
"240 4 CURVE SMOOTH",
"225 4 OFFCURVE",
"209 -5 OFFCURVE",
"191 -26 CURVE",
"190 21 OFFCURVE",
"195 56 OFFCURVE",
"207 79 CURVE SMOOTH",
"213 91 OFFCURVE",
"219 100 OFFCURVE",
"226 107 CURVE SMOOTH",
"236 115 OFFCURVE",
"245 119 OFFCURVE",
"255 119 CURVE SMOOTH",
"270 119 OFFCURVE",
"286 109 OFFCURVE",
"305 92 CURVE SMOOTH",
"320 79 OFFCURVE",
"335 65 OFFCURVE",
"348 51 CURVE SMOOTH",
"374 22 OFFCURVE",
"408 -6 OFFCURVE",
"432 -7 CURVE SMOOTH",
"503 -9 OFFCURVE",
"562 23 OFFCURVE",
"610 88 CURVE SMOOTH",
"612 91 OFFCURVE",
"615 94 OFFCURVE",
"617 97 CURVE SMOOTH",
"629 114 OFFCURVE",
"635 145 OFFCURVE",
"638 171 CURVE",
"638 180 OFFCURVE",
"639 196 OFFCURVE",
"639 199 CURVE",
"612 180 OFFCURVE",
"588 171 OFFCURVE",
"566 171 CURVE SMOOTH",
"556 171 OFFCURVE",
"547 172 OFFCURVE",
"538 176 CURVE SMOOTH",
"514 187 OFFCURVE",
"499 213 OFFCURVE",
"486 250 CURVE SMOOTH",
"483 259 OFFCURVE",
"479 272 OFFCURVE",
"474 287 CURVE SMOOTH",
"461 325 LINE",
"464 331 OFFCURVE",
"475 352 OFFCURVE",
"491 387 CURVE",
"493 388 OFFCURVE",
"494 388 OFFCURVE",
"496 388 CURVE SMOOTH",
"514 388 OFFCURVE",
"549 353 OFFCURVE",
"582 317 CURVE SMOOTH",
"605 292 OFFCURVE",
"622 275 OFFCURVE",
"633 264 CURVE SMOOTH",
"650 250 OFFCURVE",
"667 244 OFFCURVE",
"685 244 CURVE SMOOTH",
"691 244 OFFCURVE",
"697 245 OFFCURVE",
"704 246 CURVE SMOOTH",
"717 249 OFFCURVE",
"724 250 OFFCURVE",
"724 250 CURVE SMOOTH",
"738 250 OFFCURVE",
"763 266 OFFCURVE",
"783 284 CURVE SMOOTH",
"797 296 OFFCURVE",
"818 318 OFFCURVE",
"834 335 CURVE SMOOTH",
"849 351 OFFCURVE",
"873 379 OFFCURVE",
"888 396 CURVE SMOOTH",
"904 415 OFFCURVE",
"927 441 OFFCURVE",
"941 458 CURVE SMOOTH",
"944 461 LINE",
"951 488 LINE SMOOTH",
"955 506 OFFCURVE",
"960 524 OFFCURVE",
"964 542 CURVE SMOOTH",
"971 568 LINE",
"902 527 OFFCURVE",
"832 497 OFFCURVE",
"795 497 CURVE SMOOTH",
"786 497 OFFCURVE",
"779 498 OFFCURVE",
"774 502 CURVE",
"763 516 OFFCURVE",
"718 540 OFFCURVE",
"700 566 CURVE SMOOTH",
"679 597 OFFCURVE",
"646 656 OFFCURVE",
"621 692 CURVE SMOOTH",
"610 708 OFFCURVE",
"600 718 OFFCURVE",
"592 723 CURVE",
"608 745 OFFCURVE",
"629 750 OFFCURVE",
"651 755 CURVE SMOOTH",
"656 756 OFFCURVE",
"665 757 OFFCURVE",
"678 758 CURVE SMOOTH",
"690 759 OFFCURVE",
"699 760 OFFCURVE",
"704 761 CURVE SMOOTH",
"747 768 OFFCURVE",
"783 798 OFFCURVE",
"828 851 CURVE SMOOTH",
"838 863 OFFCURVE",
"846 903 OFFCURVE",
"850 927 CURVE SMOOTH",
"852 938 OFFCURVE",
"853 945 OFFCURVE",
"854 949 CURVE SMOOTH",
"854 953 OFFCURVE",
"854 956 OFFCURVE",
"854 958 CURVE",
"853 957 OFFCURVE",
"852 957 OFFCURVE",
"851 957 CURVE SMOOTH",
"841 953 OFFCURVE",
"831 951 OFFCURVE",
"822 951 CURVE SMOOTH",
"813 951 OFFCURVE",
"804 953 OFFCURVE",
"796 957 CURVE SMOOTH",
"782 964 OFFCURVE",
"755 972 OFFCURVE",
"734 984 CURVE SMOOTH",
"724 989 OFFCURVE",
"714 997 OFFCURVE",
"706 1006 CURVE",
"715 1019 OFFCURVE",
"735 1052 OFFCURVE",
"766 1104 CURVE SMOOTH",
"789 1142 OFFCURVE",
"819 1161 OFFCURVE",
"849 1161 CURVE SMOOTH",
"881 1161 OFFCURVE",
"922 1153 OFFCURVE",
"959 1142 CURVE SMOOTH",
"972 1138 OFFCURVE",
"987 1136 OFFCURVE",
"1001 1136 CURVE SMOOTH",
"1025 1136 OFFCURVE",
"1049 1141 OFFCURVE",
"1071 1151 CURVE SMOOTH",
"1107 1166 OFFCURVE",
"1148 1213 OFFCURVE",
"1182 1288 CURVE SMOOTH",
"1194 1315 OFFCURVE",
"1200 1336 OFFCURVE",
"1200 1349 CURVE SMOOTH",
"1200 1355 OFFCURVE",
"1200 1360 OFFCURVE",
"1196 1363 CURVE",
"1191 1364 OFFCURVE",
"1188 1365 OFFCURVE",
"1188 1365 CURVE",
"1168 1339 OFFCURVE",
"1147 1326 OFFCURVE",
"1125 1326 CURVE SMOOTH",
"1113 1326 OFFCURVE",
"1101 1329 OFFCURVE",
"1089 1336 CURVE SMOOTH",
"1053 1356 OFFCURVE",
"1021 1389 OFFCURVE",
"979 1446 CURVE SMOOTH",
"924 1518 OFFCURVE",
"870 1555 OFFCURVE",
"817 1557 CURVE SMOOTH",
"785 1558 OFFCURVE",
"753 1546 OFFCURVE",
"722 1522 CURVE SMOOTH",
"700 1506 OFFCURVE",
"676 1477 OFFCURVE",
"658 1453 CURVE SMOOTH",
"641 1428 OFFCURVE",
"618 1397 OFFCURVE",
"602 1377 CURVE SMOOTH",
"583 1355 OFFCURVE",
"557 1336 OFFCURVE",
"538 1336 CURVE SMOOTH",
"530 1336 OFFCURVE",
"522 1337 OFFCURVE",
"512 1341 CURVE SMOOTH",
"483 1354 OFFCURVE",
"461 1394 OFFCURVE",
"452 1436 CURVE SMOOTH",
"448 1451 OFFCURVE",
"446 1466 OFFCURVE",
"446 1482 CURVE SMOOTH",
"446 1487 OFFCURVE",
"447 1492 OFFCURVE",
"447 1497 CURVE SMOOTH",
"448 1502 OFFCURVE",
"448 1506 OFFCURVE",
"449 1510 CURVE",
"453 1517 OFFCURVE",
"459 1524 OFFCURVE",
"466 1530 CURVE SMOOTH",
"483 1546 OFFCURVE",
"510 1567 OFFCURVE",
"529 1585 CURVE SMOOTH",
"537 1592 OFFCURVE",
"547 1603 OFFCURVE",
"559 1616 CURVE SMOOTH",
"582 1643 OFFCURVE",
"604 1682 OFFCURVE",
"626 1735 CURVE SMOOTH",
"638 1763 OFFCURVE",
"643 1782 OFFCURVE",
"643 1794 CURVE SMOOTH",
"643 1800 OFFCURVE",
"642 1804 OFFCURVE",
"638 1806 CURVE",
"632 1805 OFFCURVE",
"629 1805 OFFCURVE",
"629 1805 CURVE",
"628 1804 OFFCURVE",
"627 1802 OFFCURVE",
"626 1800 CURVE SMOOTH",
"601 1764 OFFCURVE",
"577 1740 OFFCURVE",
"551 1740 CURVE SMOOTH",
"534 1740 OFFCURVE",
"516 1750 OFFCURVE",
"496 1774 CURVE SMOOTH",
"473 1799 OFFCURVE",
"453 1811 OFFCURVE",
"433 1811 CURVE SMOOTH",
"417 1811 OFFCURVE",
"401 1803 OFFCURVE",
"384 1788 CURVE SMOOTH",
"366 1770 OFFCURVE",
"345 1741 OFFCURVE",
"323 1701 CURVE SMOOTH",
"301 1665 OFFCURVE",
"276 1611 OFFCURVE",
"249 1582 CURVE SMOOTH",
"236 1567 OFFCURVE",
"222 1555 OFFCURVE",
"208 1555 CURVE SMOOTH",
"195 1555 OFFCURVE",
"182 1567 OFFCURVE",
"172 1601 CURVE SMOOTH",
"171 1604 OFFCURVE",
"170 1606 OFFCURVE",
"170 1609 CURVE",
"196 1636 OFFCURVE",
"219 1658 OFFCURVE",
"242 1726 CURVE SMOOTH",
"254 1761 OFFCURVE",
"269 1811 OFFCURVE",
"274 1826 CURVE SMOOTH",
"282 1844 OFFCURVE",
"293 1845 OFFCURVE",
"310 1845 CURVE SMOOTH",
"314 1845 LINE",
"352 1956 LINE",
"334 1979 OFFCURVE",
"316 1990 OFFCURVE",
"296 1990 CURVE SMOOTH",
"269 1990 OFFCURVE",
"241 1966 OFFCURVE",
"211 1919 CURVE SMOOTH",
"197 1896 OFFCURVE",
"168 1852 OFFCURVE",
"149 1846 CURVE SMOOTH",
"144 1844 OFFCURVE",
"139 1843 OFFCURVE",
"134 1843 CURVE SMOOTH",
"116 1843 OFFCURVE",
"101 1857 OFFCURVE",
"84 1901 CURVE SMOOTH",
"75 1927 OFFCURVE",
"70 1948 OFFCURVE",
"61 1963 CURVE SMOOTH",
"55 1974 OFFCURVE",
"51 1974 OFFCURVE",
"41 1975 CURVE SMOOTH",
"33 1975 OFFCURVE",
"18 1945 OFFCURVE",
"10 1920 CURVE SMOOTH",
"7 1911 OFFCURVE",
"5 1903 OFFCURVE",
"4 1896 CURVE SMOOTH",
"2 1886 OFFCURVE",
"0 1878 OFFCURVE",
"0 1872 CURVE SMOOTH",
"0 1866 OFFCURVE",
"2 1862 OFFCURVE",
"5 1862 CURVE SMOOTH",
"15 1862 OFFCURVE",
"21 1860 OFFCURVE",
"26 1845 CURVE SMOOTH",
"27 1840 OFFCURVE",
"36 1814 OFFCURVE",
"42 1795 CURVE",
"59 1751 OFFCURVE",
"80 1731 OFFCURVE",
"99 1731 CURVE SMOOTH",
"110 1731 OFFCURVE",
"122 1737 OFFCURVE",
"135 1749 CURVE SMOOTH",
"159 1770 OFFCURVE",
"176 1793 OFFCURVE",
"199 1830 CURVE SMOOTH",
"220 1862 OFFCURVE",
"240 1878 OFFCURVE",
"262 1878 CURVE SMOOTH",
"264 1878 OFFCURVE",
"266 1877 OFFCURVE",
"269 1877 CURVE",
"253 1842 OFFCURVE",
"234 1778 OFFCURVE",
"224 1753 CURVE",
"204 1722 OFFCURVE",
"186 1712 OFFCURVE",
"163 1668 CURVE SMOOTH",
"158 1659 OFFCURVE",
"153 1650 OFFCURVE",
"149 1639 CURVE SMOOTH",
"133 1599 OFFCURVE",
"125 1564 OFFCURVE",
"125 1534 CURVE SMOOTH",
"125 1520 OFFCURVE",
"126 1508 OFFCURVE",
"130 1496 CURVE SMOOTH",
"140 1459 OFFCURVE",
"155 1446 OFFCURVE",
"171 1446 CURVE SMOOTH",
"182 1446 OFFCURVE",
"194 1452 OFFCURVE",
"206 1461 CURVE SMOOTH",
"219 1471 OFFCURVE",
"239 1496 OFFCURVE",
"251 1512 CURVE SMOOTH",
"262 1527 OFFCURVE",
"279 1554 OFFCURVE",
"299 1591 CURVE SMOOTH",
"315 1619 LINE SMOOTH",
"344 1670 OFFCURVE",
"369 1700 OFFCURVE",
"397 1700 CURVE SMOOTH",
"415 1700 OFFCURVE",
"434 1689 OFFCURVE",
"456 1664 CURVE SMOOTH",
"467 1651 OFFCURVE",
"478 1641 OFFCURVE",
"489 1635 CURVE",
"476 1622 OFFCURVE",
"464 1606 OFFCURVE",
"453 1586 CURVE SMOOTH",
"444 1569 OFFCURVE",
"435 1549 OFFCURVE",
"427 1527 CURVE SMOOTH",
"410 1479 OFFCURVE",
"402 1434 OFFCURVE",
"402 1390 CURVE SMOOTH",
"402 1310 OFFCURVE",
"430 1249 OFFCURVE",
"475 1229 CURVE SMOOTH",
"482 1225 OFFCURVE",
"490 1223 OFFCURVE",
"498 1223 CURVE SMOOTH",
"518 1223 OFFCURVE",
"539 1235 OFFCURVE",
"556 1249 CURVE SMOOTH",
"568 1259 OFFCURVE",
"580 1272 OFFCURVE",
"594 1289 CURVE SMOOTH",
"614 1313 OFFCURVE",
"646 1360 OFFCURVE",
"663 1381 CURVE SMOOTH",
"675 1396 OFFCURVE",
"685 1406 OFFCURVE",
"693 1413 CURVE SMOOTH",
"721 1434 OFFCURVE",
"749 1445 OFFCURVE",
"778 1445 CURVE SMOOTH",
"830 1445 OFFCURVE",
"884 1409 OFFCURVE",
"939 1336 CURVE SMOOTH",
"959 1310 OFFCURVE",
"975 1289 OFFCURVE",
"989 1274 CURVE",
"986 1276 OFFCURVE",
"979 1277 OFFCURVE",
"976 1278 CURVE SMOOTH",
"948 1286 OFFCURVE",
"940 1287 OFFCURVE",
"913 1290 CURVE SMOOTH",
"900 1291 OFFCURVE",
"889 1290 OFFCURVE",
"879 1287 CURVE SMOOTH",
"861 1280 OFFCURVE",
"834 1268 OFFCURVE",
"811 1240 CURVE SMOOTH",
"799 1226 OFFCURVE",
"787 1209 OFFCURVE",
"776 1189 CURVE SMOOTH",
"765 1172 OFFCURVE",
"750 1144 OFFCURVE",
"740 1128 CURVE SMOOTH",
"726 1107 LINE SMOOTH",
"713 1088 OFFCURVE",
"692 1066 OFFCURVE",
"673 1054 CURVE",
"662 1032 LINE SMOOTH",
"655 1018 OFFCURVE",
"648 1002 OFFCURVE",
"642 984 CURVE SMOOTH",
"638 972 OFFCURVE",
"636 962 OFFCURVE",
"636 955 CURVE SMOOTH",
"636 951 OFFCURVE",
"637 948 OFFCURVE",
"638 945 CURVE SMOOTH",
"644 931 LINE SMOOTH",
"657 904 OFFCURVE",
"675 883 OFFCURVE",
"700 870 CURVE",
"688 869 OFFCURVE",
"665 867 OFFCURVE",
"655 861 CURVE SMOOTH",
"640 852 LINE SMOOTH",
"632 848 OFFCURVE",
"627 843 OFFCURVE",
"623 838 CURVE SMOOTH",
"591 798 OFFCURVE",
"577 778 OFFCURVE",
"549 700 CURVE SMOOTH",
"540 676 LINE SMOOTH",
"534 660 OFFCURVE",
"529 646 OFFCURVE",
"526 633 CURVE SMOOTH",
"525 626 OFFCURVE",
"524 620 OFFCURVE",
"524 616 CURVE SMOOTH",
"524 610 OFFCURVE",
"525 607 OFFCURVE",
"529 607 CURVE SMOOTH",
"530 607 OFFCURVE",
"531 607 OFFCURVE",
"532 608 CURVE SMOOTH",
"546 613 LINE SMOOTH",
"557 617 OFFCURVE",
"585 575 OFFCURVE",
"616 525 CURVE SMOOTH",
"637 492 OFFCURVE",
"651 470 OFFCURVE",
"660 457 CURVE SMOOTH",
"675 435 OFFCURVE",
"697 415 OFFCURVE",
"711 407 CURVE SMOOTH",
"725 398 LINE SMOOTH",
"730 395 OFFCURVE",
"733 392 OFFCURVE",
"735 391 CURVE SMOOTH",
"742 387 OFFCURVE",
"750 384 OFFCURVE",
"760 384 CURVE SMOOTH",
"774 384 OFFCURVE",
"791 388 OFFCURVE",
"812 395 CURVE",
"788 373 OFFCURVE",
"770 362 OFFCURVE",
"759 362 CURVE SMOOTH",
"743 362 OFFCURVE",
"730 357 OFFCURVE",
"715 357 CURVE SMOOTH",
"703 357 OFFCURVE",
"689 361 OFFCURVE",
"673 375 CURVE SMOOTH",
"657 388 OFFCURVE",
"634 417 OFFCURVE",
"617 439 CURVE SMOOTH",
"608 450 OFFCURVE",
"599 460 OFFCURVE",
"589 471 CURVE SMOOTH",
"572 489 OFFCURVE",
"555 503 OFFCURVE",
"538 503 CURVE SMOOTH",
"529 503 OFFCURVE",
"519 498 OFFCURVE",
"510 487 CURVE SMOOTH",
"505 481 OFFCURVE",
"500 473 OFFCURVE",
"495 462 CURVE SMOOTH",
"485 441 OFFCURVE",
"471 407 OFFCURVE",
"462 394 CURVE SMOOTH",
"458 389 OFFCURVE",
"455 385 OFFCURVE",
"452 382 CURVE SMOOTH",
"448 379 OFFCURVE",
"443 375 OFFCURVE",
"435 368 CURVE",
"423 347 LINE SMOOTH",
"416 332 OFFCURVE",
"409 316 OFFCURVE",
"403 298 CURVE SMOOTH",
"400 287 OFFCURVE",
"398 278 OFFCURVE",
"398 271 CURVE SMOOTH",
"398 267 OFFCURVE",
"399 263 OFFCURVE",
"400 260 CURVE SMOOTH",
"407 247 LINE SMOOTH",
"413 232 OFFCURVE",
"422 209 OFFCURVE",
"433 176 CURVE SMOOTH",
"444 143 OFFCURVE",
"453 120 OFFCURVE",
"460 106 CURVE",
"442 111 OFFCURVE",
"417 134 OFFCURVE",
"397 159 CURVE SMOOTH",
"387 171 OFFCURVE",
"375 183 OFFCURVE",
"363 195 CURVE SMOOTH",
"339 217 OFFCURVE",
"320 234 OFFCURVE",
"295 234 CURVE SMOOTH",
"280 234 OFFCURVE",
"265 227 OFFCURVE",
"252 214 CURVE SMOOTH",
"236 199 OFFCURVE",
"221 176 OFFCURVE",
"206 144 CURVE SMOOTH",
"166 63 OFFCURVE",
"145 -38 OFFCURVE",
"147 -119 CURVE SMOOTH",
"147 -137 LINE SMOOTH",
"147 -144 OFFCURVE",
"149 -147 OFFCURVE",
"152 -147 CURVE SMOOTH",
"154 -147 OFFCURVE",
"157 -145 OFFCURVE",
"160 -140 CURVE SMOOTH",
"175 -119 OFFCURVE",
"189 -109 OFFCURVE",
"202 -109 CURVE SMOOTH",
"219 -109 OFFCURVE",
"237 -124 OFFCURVE",
"260 -156 CURVE SMOOTH",
"266 -165 OFFCURVE",
"273 -173 OFFCURVE",
"281 -179 CURVE",
"274 -181 OFFCURVE",
"268 -182 OFFCURVE",
"262 -182 CURVE SMOOTH",
"251 -182 OFFCURVE",
"242 -179 OFFCURVE",
"233 -174 CURVE SMOOTH",
"228 -171 OFFCURVE",
"223 -170 OFFCURVE",
"218 -170 CURVE SMOOTH",
"195 -170 OFFCURVE",
"169 -196 OFFCURVE",
"148 -233 CURVE SMOOTH",
"135 -256 OFFCURVE",
"122 -279 OFFCURVE",
"110 -303 CURVE SMOOTH",
"87 -345 OFFCURVE",
"64 -378 OFFCURVE",
"47 -378 CURVE SMOOTH",
"45 -378 OFFCURVE",
"43 -378 OFFCURVE",
"42 -377 CURVE SMOOTH",
"36 -374 OFFCURVE",
"22 -397 OFFCURVE",
"11 -428 CURVE SMOOTH",
"9 -435 OFFCURVE",
"7 -443 OFFCURVE",
"5 -451 CURVE SMOOTH",
"2 -463 OFFCURVE",
"0 -472 OFFCURVE",
"0 -478 CURVE SMOOTH",
"0 -484 OFFCURVE",
"2 -488 OFFCURVE",
"4 -489 CURVE SMOOTH",
"8 -491 OFFCURVE",
"12 -492 OFFCURVE",
"16 -492 CURVE SMOOTH"
);
}
);
};
layerId = "F8C3375C-B372-4BAE-A3FB-5A8DC7FA7AB9";
paths = (
{
closed = 1;
nodes = (
"16 -692 LINE",
"84 -692 OFFCURVE",
"135 -483 OFFCURVE",
"187 -483 CURVE SMOOTH",
"196 -483 OFFCURVE",
"207 -495 OFFCURVE",
"227 -495 CURVE SMOOTH",
"276 -495 OFFCURVE",
"339 -425 OFFCURVE",
"364 -422 CURVE",
"399 -310 LINE",
"360 -290 OFFCURVE",
"328 -285 OFFCURVE",
"301 -247 CURVE SMOOTH",
"288 -229 OFFCURVE",
"265 -196 OFFCURVE",
"240 -196 CURVE SMOOTH",
"220 -196 OFFCURVE",
"203 -212 OFFCURVE",
"191 -226 CURVE",
"191 -215 LINE SMOOTH",
"191 -176 OFFCURVE",
"200 -81 OFFCURVE",
"255 -81 CURVE SMOOTH",
"310 -81 OFFCURVE",
"372 -207 OFFCURVE",
"438 -207 CURVE SMOOTH",
"516 -207 OFFCURVE",
"573 -165 OFFCURVE",
"617 -103 CURVE SMOOTH",
"636 -76 OFFCURVE",
"637 -32 OFFCURVE",
"639 -1 CURVE",
"618 -16 OFFCURVE",
"593 -29 OFFCURVE",
"566 -29 CURVE SMOOTH",
"495 -29 OFFCURVE",
"479 73 OFFCURVE",
"461 125 CURVE",
"471 146 OFFCURVE",
"481 166 OFFCURVE",
"491 187 CURVE",
"493 187 OFFCURVE",
"494 188 OFFCURVE",
"496 188 CURVE SMOOTH",
"544 188 OFFCURVE",
"613 44 OFFCURVE",
"685 44 CURVE SMOOTH",
"796 44 OFFCURVE",
"871 194 OFFCURVE",
"944 261 CURVE",
"953 297 OFFCURVE",
"961 333 OFFCURVE",
"971 368 CURVE",
"930 344 OFFCURVE",
"843 297 OFFCURVE",
"795 297 CURVE SMOOTH",
"788 297 OFFCURVE",
"780 297 OFFCURVE",
"774 302 CURVE SMOOTH",
"750 321 OFFCURVE",
"717 341 OFFCURVE",
"700 366 CURVE SMOOTH",
"675 401 OFFCURVE",
"623 504 OFFCURVE",
"592 523 CURVE",
"619 560 OFFCURVE",
"665 554 OFFCURVE",
"704 561 CURVE SMOOTH",
"755 570 OFFCURVE",
"796 612 OFFCURVE",
"828 651 CURVE SMOOTH",
"839 665 OFFCURVE",
"855 739 OFFCURVE",
"854 758 CURVE",
"843 755 OFFCURVE",
"834 751 OFFCURVE",
"822 751 CURVE SMOOTH",
"795 751 OFFCURVE",
"724 786 OFFCURVE",
"706 806 CURVE",
"741 856 OFFCURVE",
"779 961 OFFCURVE",
"849 961 CURVE SMOOTH",
"902 961 OFFCURVE",
"950 936 OFFCURVE",
"1001 936 CURVE SMOOTH",
"1097 936 OFFCURVE",
"1146 1008 OFFCURVE",
"1182 1088 CURVE SMOOTH",
"1190 1105 OFFCURVE",
"1200 1130 OFFCURVE",
"1200 1149 CURVE SMOOTH",
"1200 1154 OFFCURVE",
"1200 1160 OFFCURVE",
"1196 1163 CURVE",
"1188 1165 LINE",
"1173 1145 OFFCURVE",
"1152 1126 OFFCURVE",
"1125 1126 CURVE SMOOTH",
"1019 1126 OFFCURVE",
"955 1357 OFFCURVE",
"813 1357 CURVE SMOOTH",
"673 1357 OFFCURVE",
"620 1136 OFFCURVE",
"538 1136 CURVE SMOOTH",
"473 1136 OFFCURVE",
"446 1230 OFFCURVE",
"446 1282 CURVE SMOOTH",
"446 1287 OFFCURVE",
"447 1306 OFFCURVE",
"449 1310 CURVE SMOOTH",
"455 1324 OFFCURVE",
"540 1395 OFFCURVE",
"559 1416 CURVE SMOOTH",
"588 1448 OFFCURVE",
"609 1496 OFFCURVE",
"626 1535 CURVE SMOOTH",
"633 1552 OFFCURVE",
"643 1575 OFFCURVE",
"643 1594 CURVE SMOOTH",
"643 1598 OFFCURVE",
"643 1604 OFFCURVE",
"638 1606 CURVE",
"629 1605 LINE",
"616 1581 OFFCURVE",
"582 1540 OFFCURVE",
"551 1540 CURVE SMOOTH",
"504 1540 OFFCURVE",
"486 1611 OFFCURVE",
"433 1611 CURVE SMOOTH",
"341 1611 OFFCURVE",
"279 1355 OFFCURVE",
"208 1355 CURVE SMOOTH",
"186 1355 OFFCURVE",
"173 1392 OFFCURVE",
"170 1409 CURVE",
"208 1449 OFFCURVE",
"224 1473 OFFCURVE",
"242 1526 CURVE SMOOTH",
"253 1558 OFFCURVE",
"260 1596 OFFCURVE",
"274 1626 CURVE SMOOTH",
"283 1645 OFFCURVE",
"295 1645 OFFCURVE",
"314 1645 CURVE",
"352 1756 LINE",
"338 1774 OFFCURVE",
"320 1790 OFFCURVE",
"296 1790 CURVE SMOOTH",
"224 1790 OFFCURVE",
"192 1643 OFFCURVE",
"134 1643 CURVE SMOOTH",
"77 1643 OFFCURVE",
"83 1775 OFFCURVE",
"41 1775 CURVE SMOOTH",
"23 1775 OFFCURVE",
"0 1689 OFFCURVE",
"0 1672 CURVE SMOOTH",
"0 1668 OFFCURVE",
"2 1664 OFFCURVE",
"5 1662 CURVE",
"40 1663 OFFCURVE",
"39 1531 OFFCURVE",
"99 1531 CURVE SMOOTH",
"162 1531 OFFCURVE",
"200 1678 OFFCURVE",
"262 1678 CURVE SMOOTH",
"264 1678 OFFCURVE",
"267 1677 OFFCURVE",
"269 1677 CURVE",
"251 1638 OFFCURVE",
"243 1589 OFFCURVE",
"224 1553 CURVE SMOOTH",
"208 1523 OFFCURVE",
"180 1499 OFFCURVE",
"163 1468 CURVE SMOOTH",
"142 1429 OFFCURVE",
"125 1379 OFFCURVE",
"125 1334 CURVE SMOOTH",
"125 1308 OFFCURVE",
"136 1246 OFFCURVE",
"171 1246 CURVE SMOOTH",
"256 1246 OFFCURVE",
"322 1500 OFFCURVE",
"397 1500 CURVE SMOOTH",
"437 1500 OFFCURVE",
"457 1452 OFFCURVE",
"489 1435 CURVE",
"433 1379 OFFCURVE",
"402 1267 OFFCURVE",
"402 1190 CURVE SMOOTH",
"402 1136 OFFCURVE",
"426 1023 OFFCURVE",
"498 1023 CURVE SMOOTH",
"603 1023 OFFCURVE",
"643 1245 OFFCURVE",
"778 1245 CURVE SMOOTH",
"876 1245 OFFCURVE",
"931 1136 OFFCURVE",
"989 1074 CURVE",
"973 1082 OFFCURVE",
"923 1090 OFFCURVE",
"904 1090 CURVE SMOOTH",
"791 1090 OFFCURVE",
"759 908 OFFCURVE",
"673 854 CURVE",
"661 829 OFFCURVE",
"636 782 OFFCURVE",
"636 755 CURVE SMOOTH",
"636 726 OFFCURVE",
"675 683 OFFCURVE",
"700 670 CURVE",
"608 662 OFFCURVE",
"578 577 OFFCURVE",
"549 500 CURVE SMOOTH",
"541 478 OFFCURVE",
"524 439 OFFCURVE",
"524 416 CURVE SMOOTH",
"524 413 OFFCURVE",
"524 407 OFFCURVE",
"529 407 CURVE SMOOTH",
"535 407 OFFCURVE",
"541 413 OFFCURVE",
"547 413 CURVE SMOOTH",
"566 413 OFFCURVE",
"643 281 OFFCURVE",
"660 257 CURVE SMOOTH",
"679 230 OFFCURVE",
"698 215 OFFCURVE",
"725 198 CURVE SMOOTH",
"737 190 OFFCURVE",
"744 184 OFFCURVE",
"760 184 CURVE SMOOTH",
"778 184 OFFCURVE",
"795 189 OFFCURVE",
"812 195 CURVE",
"781 166 OFFCURVE",
"758 157 OFFCURVE",
"715 157 CURVE SMOOTH",
"650 157 OFFCURVE",
"595 303 OFFCURVE",
"538 303 CURVE SMOOTH",
"499 303 OFFCURVE",
"482 220 OFFCURVE",
"462 194 CURVE SMOOTH",
"455 184 OFFCURVE",
"441 177 OFFCURVE",
"435 168 CURVE SMOOTH",
"421 147 OFFCURVE",
"398 96 OFFCURVE",
"398 71 CURVE SMOOTH",
"398 67 OFFCURVE",
"455 -83 OFFCURVE",
"460 -94 CURVE",
"404 -78 OFFCURVE",
"360 34 OFFCURVE",
"295 34 CURVE SMOOTH",
"252 34 OFFCURVE",
"222 -23 OFFCURVE",
"206 -56 CURVE SMOOTH",
"169 -133 OFFCURVE",
"147 -222 OFFCURVE",
"147 -308 CURVE SMOOTH",
"147 -317 OFFCURVE",
"145 -343 OFFCURVE",
"152 -347 CURVE",
"162 -343 OFFCURVE",
"176 -309 OFFCURVE",
"202 -309 CURVE SMOOTH",
"236 -309 OFFCURVE",
"257 -361 OFFCURVE",
"281 -379 CURVE",
"275 -381 OFFCURVE",
"268 -382 OFFCURVE",
"262 -382 CURVE SMOOTH",
"243 -382 OFFCURVE",
"232 -370 OFFCURVE",
"218 -370 CURVE SMOOTH",
"143 -370 OFFCURVE",
"107 -577 OFFCURVE",
"41 -577 CURVE SMOOTH",
"24 -577 OFFCURVE",
"0 -662 OFFCURVE",
"0 -678 CURVE SMOOTH",
"0 -682 OFFCURVE",
"2 -686 OFFCURVE",
"4 -689 CURVE",
"8 -691 OFFCURVE",
"12 -692 OFFCURVE",
"16 -692 CURVE"
);
}
);
width = 1200;
}
);
note = uniE0C1;
unicode = E0C1;
},
{
color = 2;
glyphname = uniE0C2;
lastChange = "2019-12-03 18:43:28 +0000";
layers = (
{
layerId = "F8C3375C-B372-4BAE-A3FB-5A8DC7FA7AB9";
paths = (
{
closed = 1;
nodes = (
"1199 1489 LINE",
"1200 1574 OFFCURVE",
"1200 1645 OFFCURVE",
"1200 1704 CURVE SMOOTH",
"1200 1730 OFFCURVE",
"1200 1753 OFFCURVE",
"1200 1774 CURVE",
"1189 1772 OFFCURVE",
"1182 1770 OFFCURVE",
"1178 1759 CURVE SMOOTH",
"1174 1749 OFFCURVE",
"1164 1720 OFFCURVE",
"1158 1700 CURVE",
"1140 1654 OFFCURVE",
"1122 1637 OFFCURVE",
"1102 1637 CURVE SMOOTH",
"1096 1637 OFFCURVE",
"1091 1638 OFFCURVE",
"1085 1641 CURVE SMOOTH",
"1068 1648 OFFCURVE",
"1048 1672 OFFCURVE",
"1034 1692 CURVE SMOOTH",
"1027 1701 OFFCURVE",
"1019 1713 OFFCURVE",
"1010 1728 CURVE SMOOTH",
"984 1770 OFFCURVE",
"959 1791 OFFCURVE",
"934 1791 CURVE SMOOTH",
"915 1791 OFFCURVE",
"897 1779 OFFCURVE",
"879 1756 CURVE",
"899 1759 OFFCURVE",
"915 1746 OFFCURVE",
"929 1727 CURVE SMOOTH",
"942 1708 OFFCURVE",
"959 1654 OFFCURVE",
"970 1621 CURVE",
"970 1623 OFFCURVE",
"974 1608 OFFCURVE",
"984 1577 CURVE SMOOTH",
"988 1566 OFFCURVE",
"999 1548 OFFCURVE",
"1018 1525 CURVE SMOOTH",
"1038 1502 OFFCURVE",
"1051 1484 OFFCURVE",
"1057 1471 CURVE SMOOTH",
"1066 1454 OFFCURVE",
"1071 1436 OFFCURVE",
"1071 1417 CURVE SMOOTH",
"1071 1407 OFFCURVE",
"1070 1397 OFFCURVE",
"1067 1386 CURVE SMOOTH",
"1055 1348 OFFCURVE",
"1042 1336 OFFCURVE",
"1026 1336 CURVE SMOOTH",
"1021 1336 OFFCURVE",
"1016 1338 OFFCURVE",
"1010 1340 CURVE SMOOTH",
"1003 1342 OFFCURVE",
"995 1348 OFFCURVE",
"986 1358 CURVE SMOOTH",
"964 1384 LINE SMOOTH",
"946 1405 OFFCURVE",
"903 1484 OFFCURVE",
"892 1503 CURVE SMOOTH",
"854 1572 OFFCURVE",
"826 1603 OFFCURVE",
"793 1603 CURVE SMOOTH",
"773 1603 OFFCURVE",
"752 1591 OFFCURVE",
"730 1565 CURVE SMOOTH",
"708 1540 OFFCURVE",
"688 1529 OFFCURVE",
"669 1529 CURVE SMOOTH",
"638 1529 OFFCURVE",
"610 1559 OFFCURVE",
"578 1606 CURVE",
"595 1566 OFFCURVE",
"612 1536 OFFCURVE",
"633 1512 CURVE SMOOTH",
"643 1500 OFFCURVE",
"652 1490 OFFCURVE",
"660 1483 CURVE SMOOTH",
"668 1476 OFFCURVE",
"679 1466 OFFCURVE",
"693 1454 CURVE SMOOTH",
"707 1441 OFFCURVE",
"719 1431 OFFCURVE",
"726 1423 CURVE",
"763 1390 OFFCURVE",
"783 1333 OFFCURVE",
"783 1270 CURVE SMOOTH",
"783 1196 OFFCURVE",
"755 1131 OFFCURVE",
"711 1110 CURVE SMOOTH",
"703 1106 OFFCURVE",
"695 1104 OFFCURVE",
"687 1104 CURVE SMOOTH",
"656 1104 OFFCURVE",
"622 1134 OFFCURVE",
"596 1170 CURVE SMOOTH",
"564 1212 OFFCURVE",
"522 1275 OFFCURVE",
"489 1301 CURVE SMOOTH",
"459 1325 OFFCURVE",
"429 1336 OFFCURVE",
"398 1336 CURVE SMOOTH",
"342 1336 OFFCURVE",
"286 1298 OFFCURVE",
"228 1221 CURVE SMOOTH",
"191 1172 OFFCURVE",
"169 1145 OFFCURVE",
"136 1118 CURVE SMOOTH",
"115 1100 OFFCURVE",
"95 1093 OFFCURVE",
"79 1093 CURVE SMOOTH",
"54 1093 OFFCURVE",
"26 1107 OFFCURVE",
"0 1143 CURVE",
"34 1067 OFFCURVE",
"75 1030 OFFCURVE",
"115 1026 CURVE",
"119 1025 OFFCURVE",
"125 1025 OFFCURVE",
"130 1025 CURVE SMOOTH",
"165 1025 OFFCURVE",
"201 1036 OFFCURVE",
"238 1046 CURVE SMOOTH",
"259 1051 OFFCURVE",
"278 1055 OFFCURVE",
"297 1055 CURVE SMOOTH",
"319 1055 OFFCURVE",
"340 1050 OFFCURVE",
"364 1035 CURVE SMOOTH",
"385 1020 OFFCURVE",
"405 997 OFFCURVE",
"423 965 CURVE SMOOTH",
"434 948 OFFCURVE",
"468 888 OFFCURVE",
"479 873 CURVE SMOOTH",
"499 846 OFFCURVE",
"515 826 OFFCURVE",
"539 810 CURVE",
"533 795 LINE SMOOTH",
"516 757 OFFCURVE",
"488 738 OFFCURVE",
"464 727 CURVE SMOOTH",
"456 724 OFFCURVE",
"448 720 OFFCURVE",
"439 717 CURVE SMOOTH",
"429 714 OFFCURVE",
"422 711 OFFCURVE",
"418 708 CURVE",
"408 703 OFFCURVE",
"399 701 OFFCURVE",
"388 701 CURVE SMOOTH",
"377 701 OFFCURVE",
"365 703 OFFCURVE",
"353 709 CURVE",
"399 654 OFFCURVE",
"431 627 OFFCURVE",
"475 620 CURVE SMOOTH",
"491 618 OFFCURVE",
"514 617 OFFCURVE",
"529 615 CURVE SMOOTH",
"541 613 OFFCURVE",
"564 608 OFFCURVE",
"577 597 CURVE SMOOTH",
"590 585 OFFCURVE",
"607 568 OFFCURVE",
"622 538 CURVE SMOOTH",
"630 523 OFFCURVE",
"637 505 OFFCURVE",
"644 484 CURVE SMOOTH",
"654 459 LINE",
"640 464 LINE SMOOTH",
"624 471 OFFCURVE",
"595 428 OFFCURVE",
"562 372 CURVE SMOOTH",
"541 337 OFFCURVE",
"526 313 OFFCURVE",
"518 300 CURVE SMOOTH",
"510 289 OFFCURVE",
"442 235 OFFCURVE",
"440 231 CURVE",
"434 227 OFFCURVE",
"426 225 OFFCURVE",
"416 225 CURVE SMOOTH",
"376 225 OFFCURVE",
"305 257 OFFCURVE",
"232 301 CURVE",
"295 228 LINE SMOOTH",
"310 210 OFFCURVE",
"342 174 OFFCURVE",
"358 158 CURVE SMOOTH",
"388 126 OFFCURVE",
"431 84 OFFCURVE",
"454 84 CURVE SMOOTH",
"461 84 OFFCURVE",
"478 78 OFFCURVE",
"496 78 CURVE SMOOTH",
"501 78 OFFCURVE",
"506 79 OFFCURVE",
"512 80 CURVE SMOOTH",
"523 83 OFFCURVE",
"534 89 OFFCURVE",
"546 99 CURVE SMOOTH",
"563 114 OFFCURVE",
"589 144 OFFCURVE",
"609 166 CURVE SMOOTH",
"618 177 OFFCURVE",
"628 187 OFFCURVE",
"639 198 CURVE SMOOTH",
"656 214 OFFCURVE",
"674 229 OFFCURVE",
"689 229 CURVE SMOOTH",
"697 229 OFFCURVE",
"704 225 OFFCURVE",
"709 214 CURVE SMOOTH",
"725 180 OFFCURVE",
"735 156 OFFCURVE",
"750 132 CURVE SMOOTH",
"761 115 OFFCURVE",
"770 105 OFFCURVE",
"786 92 CURVE",
"780 78 LINE SMOOTH",
"766 50 OFFCURVE",
"749 -3 OFFCURVE",
"739 -34 CURVE SMOOTH",
"729 -66 OFFCURVE",
"709 -99 OFFCURVE",
"684 -110 CURVE SMOOTH",
"674 -114 OFFCURVE",
"664 -117 OFFCURVE",
"653 -117 CURVE SMOOTH",
"630 -117 OFFCURVE",
"604 -106 OFFCURVE",
"576 -85 CURVE",
"622 -155 OFFCURVE",
"692 -185 OFFCURVE",
"752 -185 CURVE SMOOTH",
"773 -185 OFFCURVE",
"803 -165 OFFCURVE",
"826 -138 CURVE SMOOTH",
"837 -125 OFFCURVE",
"850 -112 OFFCURVE",
"863 -99 CURVE SMOOTH",
"891 -71 OFFCURVE",
"912 -51 OFFCURVE",
"941 -51 CURVE SMOOTH",
"953 -51 OFFCURVE",
"965 -57 OFFCURVE",
"975 -68 CURVE SMOOTH",
"1012 -104 OFFCURVE",
"1050 -202 OFFCURVE",
"1048 -313 CURVE SMOOTH",
"1048 -332 LINE",
"1027 -304 OFFCURVE",
"1010 -291 OFFCURVE",
"994 -291 CURVE SMOOTH",
"975 -291 OFFCURVE",
"956 -310 OFFCURVE",
"932 -343 CURVE SMOOTH",
"913 -370 OFFCURVE",
"892 -383 OFFCURVE",
"862 -395 CURVE SMOOTH",
"847 -401 OFFCURVE",
"836 -406 OFFCURVE",
"829 -410 CURVE",
"846 -418 OFFCURVE",
"870 -434 OFFCURVE",
"887 -447 CURVE SMOOTH",
"896 -454 OFFCURVE",
"905 -460 OFFCURVE",
"916 -467 CURVE SMOOTH",
"936 -479 OFFCURVE",
"951 -487 OFFCURVE",
"970 -487 CURVE SMOOTH",
"981 -487 OFFCURVE",
"992 -483 OFFCURVE",
"1001 -477 CURVE SMOOTH",
"1005 -475 OFFCURVE",
"1009 -474 OFFCURVE",
"1013 -474 CURVE SMOOTH",
"1034 -474 OFFCURVE",
"1059 -504 OFFCURVE",
"1081 -544 CURVE SMOOTH",
"1095 -568 OFFCURVE",
"1108 -592 OFFCURVE",
"1121 -617 CURVE SMOOTH",
"1144 -659 OFFCURVE",
"1169 -692 OFFCURVE",
"1190 -692 CURVE SMOOTH",
"1193 -692 OFFCURVE",
"1196 -692 OFFCURVE",
"1199 -690 CURVE",
"1198 -489 OFFCURVE",
"1197 814 OFFCURVE",
"1197 1251 CURVE SMOOTH",
"1197 1286 OFFCURVE",
"1198 1366 OFFCURVE",
"1199 1489 CURVE"
);
}
);
width = 1200;
}
);
note = uniE0C2;
unicode = E0C2;
},
{
color = 2;
glyphname = uniE0C3;
lastChange = "2019-12-03 18:43:28 +0000";
layers = (
{
layerId = "F8C3375C-B372-4BAE-A3FB-5A8DC7FA7AB9";
paths = (
{
closed = 1;
nodes = (
"1185 -692 LINE",
"1189 -692 OFFCURVE",
"1193 -691 OFFCURVE",
"1197 -689 CURVE",
"1199 -686 OFFCURVE",
"1200 -682 OFFCURVE",
"1200 -678 CURVE SMOOTH",
"1200 -654 OFFCURVE",
"1181 -578 OFFCURVE",
"1154 -578 CURVE SMOOTH",
"1106 -578 OFFCURVE",
"1052 -370 OFFCURVE",
"983 -370 CURVE SMOOTH",
"969 -370 OFFCURVE",
"957 -382 OFFCURVE",
"939 -382 CURVE SMOOTH",
"933 -382 OFFCURVE",
"926 -381 OFFCURVE",
"920 -379 CURVE",
"943 -362 OFFCURVE",
"966 -309 OFFCURVE",
"998 -309 CURVE SMOOTH",
"1024 -309 OFFCURVE",
"1039 -343 OFFCURVE",
"1049 -347 CURVE",
"1050 -347 LINE",
"1056 -342 OFFCURVE",
"1054 -326 OFFCURVE",
"1054 -319 CURVE SMOOTH",
"1054 -309 LINE SMOOTH",
"1054 -224 OFFCURVE",
"1031 -133 OFFCURVE",
"995 -56 CURVE SMOOTH",
"979 -22 OFFCURVE",
"948 34 OFFCURVE",
"905 34 CURVE SMOOTH",
"845 34 OFFCURVE",
"796 -76 OFFCURVE",
"741 -94 CURVE",
"746 -84 OFFCURVE",
"803 69 OFFCURVE",
"803 71 CURVE SMOOTH",
"803 99 OFFCURVE",
"780 144 OFFCURVE",
"766 168 CURVE",
"752 179 OFFCURVE",
"738 191 OFFCURVE",
"731 207 CURVE SMOOTH",
"719 234 OFFCURVE",
"696 303 OFFCURVE",
"662 303 CURVE SMOOTH",
"607 303 OFFCURVE",
"552 157 OFFCURVE",
"485 157 CURVE SMOOTH",
"443 157 OFFCURVE",
"420 167 OFFCURVE",
"389 195 CURVE",
"405 190 OFFCURVE",
"423 184 OFFCURVE",
"440 184 CURVE SMOOTH",
"531 184 OFFCURVE",
"620 413 OFFCURVE",
"653 413 CURVE SMOOTH",
"657 413 OFFCURVE",
"666 408 OFFCURVE",
"672 407 CURVE",
"675 409 OFFCURVE",
"677 413 OFFCURVE",
"677 416 CURVE SMOOTH",
"677 465 OFFCURVE",
"614 599 OFFCURVE",
"578 638 CURVE SMOOTH",
"558 660 OFFCURVE",
"530 667 OFFCURVE",
"501 670 CURVE",
"526 683 OFFCURVE",
"565 727 OFFCURVE",
"565 756 CURVE SMOOTH",
"565 782 OFFCURVE",
"540 831 OFFCURVE",
"527 854 CURVE",
"442 911 OFFCURVE",
"411 1090 OFFCURVE",
"298 1090 CURVE SMOOTH",
"268 1090 OFFCURVE",
"240 1083 OFFCURVE",
"212 1074 CURVE",
"270 1136 OFFCURVE",
"325 1245 OFFCURVE",
"423 1245 CURVE SMOOTH",
"559 1245 OFFCURVE",
"598 1023 OFFCURVE",
"703 1023 CURVE SMOOTH",
"775 1023 OFFCURVE",
"799 1136 OFFCURVE",
"799 1190 CURVE SMOOTH",
"799 1264 OFFCURVE",
"767 1383 OFFCURVE",
"711 1435 CURVE",
"742 1452 OFFCURVE",
"765 1500 OFFCURVE",
"803 1500 CURVE SMOOTH",
"878 1500 OFFCURVE",
"947 1248 OFFCURVE",
"1023 1248 CURVE SMOOTH",
"1032 1248 OFFCURVE",
"1040 1253 OFFCURVE",
"1047 1259 CURVE",
"1047 1259 OFFCURVE",
"1047 1258 OFFCURVE",
"1048 1258 CURVE SMOOTH",
"1062 1258 OFFCURVE",
"1076 1320 OFFCURVE",
"1076 1334 CURVE SMOOTH",
"1076 1379 OFFCURVE",
"1059 1429 OFFCURVE",
"1038 1468 CURVE SMOOTH",
"1021 1500 OFFCURVE",
"993 1523 OFFCURVE",
"976 1553 CURVE SMOOTH",
"960 1582 OFFCURVE",
"948 1641 OFFCURVE",
"932 1677 CURVE",
"939 1678 LINE",
"1002 1678 OFFCURVE",
"1038 1531 OFFCURVE",
"1101 1531 CURVE SMOOTH",
"1153 1531 OFFCURVE",
"1160 1624 OFFCURVE",
"1180 1655 CURVE SMOOTH",
"1185 1662 OFFCURVE",
"1188 1662 OFFCURVE",
"1196 1662 CURVE",
"1199 1664 OFFCURVE",
"1200 1669 OFFCURVE",
"1200 1672 CURVE SMOOTH",
"1200 1690 OFFCURVE",
"1179 1775 OFFCURVE",
"1160 1775 CURVE SMOOTH",
"1117 1775 OFFCURVE",
"1124 1643 OFFCURVE",
"1067 1643 CURVE SMOOTH",
"1009 1643 OFFCURVE",
"976 1790 OFFCURVE",
"904 1790 CURVE SMOOTH",
"881 1790 OFFCURVE",
"862 1773 OFFCURVE",
"849 1756 CURVE",
"887 1645 LINE",
"906 1645 OFFCURVE",
"917 1646 OFFCURVE",
"926 1626 CURVE SMOOTH",
"965 1536 OFFCURVE",
"954 1489 OFFCURVE",
"1031 1409 CURVE",
"1026 1391 OFFCURVE",
"1018 1356 OFFCURVE",
"993 1356 CURVE SMOOTH",
"922 1356 OFFCURVE",
"859 1611 OFFCURVE",
"768 1611 CURVE SMOOTH",
"715 1611 OFFCURVE",
"696 1540 OFFCURVE",
"650 1540 CURVE SMOOTH",
"619 1540 OFFCURVE",
"586 1580 OFFCURVE",
"572 1605 CURVE",
"563 1606 LINE",
"558 1604 OFFCURVE",
"558 1598 OFFCURVE",
"558 1594 CURVE SMOOTH",
"558 1575 OFFCURVE",
"568 1552 OFFCURVE",
"575 1535 CURVE SMOOTH",
"593 1493 OFFCURVE",
"612 1451 OFFCURVE",
"642 1416 CURVE SMOOTH",
"662 1392 OFFCURVE",
"746 1326 OFFCURVE",
"752 1310 CURVE SMOOTH",
"754 1304 OFFCURVE",
"754 1289 OFFCURVE",
"754 1282 CURVE SMOOTH",
"754 1231 OFFCURVE",
"728 1136 OFFCURVE",
"664 1136 CURVE SMOOTH",
"580 1136 OFFCURVE",
"528 1357 OFFCURVE",
"388 1357 CURVE SMOOTH",
"246 1357 OFFCURVE",
"181 1127 OFFCURVE",
"78 1127 CURVE SMOOTH",
"51 1127 OFFCURVE",
"28 1144 OFFCURVE",
"13 1165 CURVE",
"5 1163 LINE",
"1 1159 OFFCURVE",
"0 1154 OFFCURVE",
"0 1149 CURVE SMOOTH",
"0 1131 OFFCURVE",
"12 1104 OFFCURVE",
"19 1088 CURVE SMOOTH",
"53 1011 OFFCURVE",
"102 937 OFFCURVE",
"194 937 CURVE SMOOTH",
"245 937 OFFCURVE",
"293 961 OFFCURVE",
"343 961 CURVE SMOOTH",
"430 961 OFFCURVE",
"451 863 OFFCURVE",
"495 806 CURVE",
"476 785 OFFCURVE",
"406 751 OFFCURVE",
"379 751 CURVE SMOOTH",
"367 751 OFFCURVE",
"357 756 OFFCURVE",
"346 758 CURVE",
"350 732 OFFCURVE",
"358 670 OFFCURVE",
"373 651 CURVE SMOOTH",
"492 507 OFFCURVE",
"558 590 OFFCURVE",
"609 523 CURVE",
"576 506 OFFCURVE",
"527 401 OFFCURVE",
"501 366 CURVE SMOOTH",
"483 342 OFFCURVE",
"451 321 OFFCURVE",
"427 302 CURVE SMOOTH",
"421 297 OFFCURVE",
"413 297 OFFCURVE",
"406 297 CURVE SMOOTH",
"358 297 OFFCURVE",
"271 344 OFFCURVE",
"230 368 CURVE",
"241 334 OFFCURVE",
"249 296 OFFCURVE",
"256 261 CURVE",
"261 258 OFFCURVE",
"320 189 OFFCURVE",
"329 178 CURVE SMOOTH",
"379 120 OFFCURVE",
"434 44 OFFCURVE",
"518 44 CURVE SMOOTH",
"584 44 OFFCURVE",
"659 188 OFFCURVE",
"704 188 CURVE SMOOTH",
"706 188 OFFCURVE",
"707 187 OFFCURVE",
"709 187 CURVE",
"719 167 OFFCURVE",
"728 144 OFFCURVE",
"740 125 CURVE",
"722 73 OFFCURVE",
"704 -29 OFFCURVE",
"635 -29 CURVE SMOOTH",
"608 -29 OFFCURVE",
"583 -16 OFFCURVE",
"562 -1 CURVE",
"562 -33 OFFCURVE",
"566 -76 OFFCURVE",
"584 -103 CURVE SMOOTH",
"627 -164 OFFCURVE",
"686 -207 OFFCURVE",
"763 -207 CURVE SMOOTH",
"831 -207 OFFCURVE",
"888 -81 OFFCURVE",
"948 -81 CURVE SMOOTH",
"1001 -81 OFFCURVE",
"1010 -179 OFFCURVE",
"1010 -216 CURVE SMOOTH",
"1010 -226 LINE",
"998 -212 OFFCURVE",
"981 -196 OFFCURVE",
"961 -196 CURVE SMOOTH",
"936 -196 OFFCURVE",
"913 -229 OFFCURVE",
"900 -247 CURVE SMOOTH",
"872 -285 OFFCURVE",
"841 -290 OFFCURVE",
"801 -310 CURVE",
"837 -422 LINE",
"864 -426 OFFCURVE",
"923 -495 OFFCURVE",
"975 -495 CURVE SMOOTH",
"993 -495 OFFCURVE",
"1005 -483 OFFCURVE",
"1014 -483 CURVE SMOOTH",
"1066 -483 OFFCURVE",
"1117 -692 OFFCURVE",
"1185 -692 CURVE"
);
}
);
width = 1200;
}
);
note = uniE0C3;
unicode = E0C3;
},
{
color = 2;
glyphname = uniE0C4;
lastChange = "2019-12-03 18:43:28 +0000";
layers = (
{
layerId = "F8C3375C-B372-4BAE-A3FB-5A8DC7FA7AB9";
paths = (
{
closed = 1;
nodes = (
"485 1557 LINE",
"593 1557 LINE SMOOTH",
"597 1557 OFFCURVE",
"602 1564 OFFCURVE",
"602 1572 CURVE SMOOTH",
"602 1763 LINE SMOOTH",
"602 1770 OFFCURVE",
"598 1778 OFFCURVE",
"593 1778 CURVE SMOOTH",
"485 1778 LINE SMOOTH",
"481 1778 OFFCURVE",
"476 1771 OFFCURVE",
"476 1763 CURVE SMOOTH",
"476 1572 LINE SMOOTH",
"476 1565 OFFCURVE",
"480 1557 OFFCURVE",
"485 1557 CURVE"
);
},
{
closed = 1;
nodes = (
"1197 1768 LINE",
"1089 1768 LINE SMOOTH",
"1087 1768 OFFCURVE",
"1086 1766 OFFCURVE",
"1086 1763 CURVE SMOOTH",
"1086 1572 LINE SMOOTH",
"1086 1569 OFFCURVE",
"1087 1567 OFFCURVE",
"1089 1567 CURVE SMOOTH",
"1197 1567 LINE SMOOTH",
"1199 1567 OFFCURVE",
"1200 1569 OFFCURVE",
"1200 1572 CURVE SMOOTH",
"1200 1763 LINE SMOOTH",
"1200 1766 OFFCURVE",
"1199 1768 OFFCURVE",
"1197 1768 CURVE"
);
},
{
closed = 1;
nodes = (
"0 1763 LINE",
"0 1572 LINE",
"108 1572 LINE",
"108 1763 LINE",
"0 1763 LINE"
);
},
{
closed = 1;
nodes = (
"165 1763 LINE",
"165 1572 LINE",
"273 1572 LINE",
"273 1763 LINE",
"165 1763 LINE"
);
},
{
closed = 1;
nodes = (
"323 1763 LINE",
"323 1572 LINE",
"431 1572 LINE",
"431 1763 LINE",
"323 1763 LINE"
);
},
{
closed = 1;
nodes = (
"745 1572 LINE",
"745 1763 LINE",
"637 1763 LINE",
"637 1572 LINE",
"745 1572 LINE"
);
},
{
closed = 1;
nodes = (
"900 1572 LINE",
"900 1763 LINE",
"792 1763 LINE",
"792 1572 LINE",
"900 1572 LINE"
);
},
{
closed = 1;
nodes = (
"1194 1757 LINE",
"1194 1577 LINE",
"1092 1577 LINE",
"1092 1757 LINE",
"1194 1757 LINE"
);
},
{
closed = 1;
nodes = (
"494 1587 LINE",
"494 1747 LINE",
"585 1747 LINE",
"585 1587 LINE",
"494 1587 LINE"
);
},
{
closed = 1;
nodes = (
"1197 1504 LINE",
"1089 1504 LINE SMOOTH",
"1087 1504 OFFCURVE",
"1086 1502 OFFCURVE",
"1086 1499 CURVE SMOOTH",
"1086 1309 LINE SMOOTH",
"1086 1305 OFFCURVE",
"1087 1303 OFFCURVE",
"1089 1303 CURVE SMOOTH",
"1197 1303 LINE SMOOTH",
"1199 1303 OFFCURVE",
"1200 1305 OFFCURVE",
"1200 1309 CURVE SMOOTH",
"1200 1499 LINE SMOOTH",
"1200 1502 OFFCURVE",
"1199 1504 OFFCURVE",
"1197 1504 CURVE"
);
},
{
closed = 1;
nodes = (
"0 1499 LINE",
"0 1309 LINE",
"108 1309 LINE",
"108 1499 LINE",
"0 1499 LINE"
);
},
{
closed = 1;
nodes = (
"165 1499 LINE",
"165 1309 LINE",
"273 1309 LINE",
"273 1499 LINE",
"165 1499 LINE"
);
},
{
closed = 1;
nodes = (
"323 1499 LINE",
"323 1309 LINE",
"431 1309 LINE",
"431 1499 LINE",
"323 1499 LINE"
);
},
{
closed = 1;
nodes = (
"596 1309 LINE",
"596 1499 LINE",
"487 1499 LINE",
"487 1309 LINE",
"596 1309 LINE"
);
},
{
closed = 1;
nodes = (
"900 1309 LINE",
"900 1499 LINE",
"792 1499 LINE",
"792 1309 LINE",
"900 1309 LINE"
);
},
{
closed = 1;
nodes = (
"1194 1494 LINE",
"1194 1314 LINE",
"1092 1314 LINE",
"1092 1494 LINE",
"1194 1494 LINE"
);
},
{
closed = 1;
nodes = (
"745 1271 LINE",
"637 1271 LINE SMOOTH",
"632 1271 OFFCURVE",
"625 1262 OFFCURVE",
"625 1251 CURVE SMOOTH",
"625 1060 LINE SMOOTH",
"625 1051 OFFCURVE",
"630 1040 OFFCURVE",
"637 1040 CURVE SMOOTH",
"745 1040 LINE SMOOTH",
"751 1040 OFFCURVE",
"757 1048 OFFCURVE",
"757 1060 CURVE SMOOTH",
"757 1251 LINE SMOOTH",
"757 1260 OFFCURVE",
"752 1271 OFFCURVE",
"745 1271 CURVE"
);
},
{
closed = 1;
nodes = (
"0 1251 LINE",
"0 1060 LINE",
"108 1060 LINE",
"108 1251 LINE",
"0 1251 LINE"
);
},
{
closed = 1;
nodes = (
"165 1251 LINE",
"165 1060 LINE",
"273 1060 LINE",
"273 1251 LINE",
"165 1251 LINE"
);
},
{
closed = 1;
nodes = (
"323 1251 LINE",
"323 1060 LINE",
"431 1060 LINE",
"431 1251 LINE",
"323 1251 LINE"
);
},
{
closed = 1;
nodes = (
"487 1251 LINE",
"487 1060 LINE",
"596 1060 LINE",
"596 1251 LINE",
"487 1251 LINE"
);
},
{
closed = 1;
nodes = (
"734 1230 LINE",
"734 1081 LINE",
"649 1081 LINE",
"649 1230 LINE",
"734 1230 LINE"
);
},
{
closed = 1;
nodes = (
"745 1037 LINE",
"637 1037 LINE SMOOTH",
"632 1037 OFFCURVE",
"625 1028 OFFCURVE",
"625 1016 CURVE SMOOTH",
"625 825 LINE SMOOTH",
"625 816 OFFCURVE",
"630 805 OFFCURVE",
"637 805 CURVE SMOOTH",
"745 805 LINE SMOOTH",
"751 805 OFFCURVE",
"757 813 OFFCURVE",
"757 825 CURVE SMOOTH",
"757 1016 LINE SMOOTH",
"757 1025 OFFCURVE",
"752 1037 OFFCURVE",
"745 1037 CURVE"
);
},
{
closed = 1;
nodes = (
"0 1016 LINE",
"0 825 LINE",
"108 825 LINE",
"108 1016 LINE",
"0 1016 LINE"
);
},
{
closed = 1;
nodes = (
"165 1016 LINE",
"165 825 LINE",
"273 825 LINE",
"273 1016 LINE",
"165 1016 LINE"
);
},
{
closed = 1;
nodes = (
"323 1016 LINE",
"323 825 LINE",
"431 825 LINE",
"431 1016 LINE",
"323 1016 LINE"
);
},
{
closed = 1;
nodes = (
"734 995 LINE",
"734 846 LINE",
"649 846 LINE",
"649 995 LINE",
"734 995 LINE"
);
},
{
closed = 1;
nodes = (
"596 801 LINE",
"487 801 LINE SMOOTH",
"480 801 OFFCURVE",
"473 790 OFFCURVE",
"473 775 CURVE SMOOTH",
"473 585 LINE SMOOTH",
"473 572 OFFCURVE",
"479 559 OFFCURVE",
"487 559 CURVE SMOOTH",
"596 559 LINE SMOOTH",
"603 559 OFFCURVE",
"610 569 OFFCURVE",
"610 585 CURVE SMOOTH",
"610 775 LINE SMOOTH",
"610 787 OFFCURVE",
"604 801 OFFCURVE",
"596 801 CURVE"
);
},
{
closed = 1;
nodes = (
"900 780 LINE",
"792 780 LINE SMOOTH",
"790 780 OFFCURVE",
"789 778 OFFCURVE",
"789 775 CURVE SMOOTH",
"789 585 LINE SMOOTH",
"789 581 OFFCURVE",
"790 579 OFFCURVE",
"792 579 CURVE SMOOTH",
"900 579 LINE SMOOTH",
"902 579 OFFCURVE",
"903 581 OFFCURVE",
"903 585 CURVE SMOOTH",
"903 775 LINE SMOOTH",
"903 778 OFFCURVE",
"902 780 OFFCURVE",
"900 780 CURVE"
);
},
{
closed = 1;
nodes = (
"0 775 LINE",
"0 585 LINE",
"108 585 LINE",
"108 775 LINE",
"0 775 LINE"
);
},
{
closed = 1;
nodes = (
"165 775 LINE",
"165 585 LINE",
"273 585 LINE",
"273 775 LINE",
"165 775 LINE"
);
},
{
closed = 1;
nodes = (
"323 775 LINE",
"323 585 LINE",
"431 585 LINE",
"431 775 LINE",
"323 775 LINE"
);
},
{
closed = 1;
nodes = (
"745 585 LINE",
"745 775 LINE",
"637 775 LINE",
"637 585 LINE",
"745 585 LINE"
);
},
{
closed = 1;
nodes = (
"897 770 LINE",
"897 590 LINE",
"795 590 LINE",
"795 770 LINE",
"897 770 LINE"
);
},
{
closed = 1;
nodes = (
"581 749 LINE",
"581 610 LINE",
"502 610 LINE",
"502 749 LINE",
"581 749 LINE"
);
},
{
closed = 1;
nodes = (
"0 534 LINE",
"0 344 LINE",
"108 344 LINE",
"108 534 LINE",
"0 534 LINE"
);
},
{
closed = 1;
nodes = (
"165 534 LINE",
"165 344 LINE",
"273 344 LINE",
"273 534 LINE",
"165 534 LINE"
);
},
{
closed = 1;
nodes = (
"323 534 LINE",
"323 344 LINE",
"431 344 LINE",
"431 534 LINE",
"323 534 LINE"
);
},
{
closed = 1;
nodes = (
"596 344 LINE",
"596 534 LINE",
"487 534 LINE",
"487 344 LINE",
"596 344 LINE"
);
},
{
closed = 1;
nodes = (
"637 534 LINE",
"637 344 LINE",
"745 344 LINE",
"745 534 LINE",
"637 534 LINE"
);
},
{
closed = 1;
nodes = (
"745 308 LINE",
"637 308 LINE SMOOTH",
"632 308 OFFCURVE",
"625 299 OFFCURVE",
"625 287 CURVE SMOOTH",
"625 96 LINE SMOOTH",
"625 87 OFFCURVE",
"630 76 OFFCURVE",
"637 76 CURVE SMOOTH",
"745 76 LINE SMOOTH",
"751 76 OFFCURVE",
"757 84 OFFCURVE",
"757 96 CURVE SMOOTH",
"757 287 LINE SMOOTH",
"757 296 OFFCURVE",
"752 308 OFFCURVE",
"745 308 CURVE"
);
},
{
closed = 1;
nodes = (
"1047 292 LINE",
"939 292 LINE SMOOTH",
"938 292 OFFCURVE",
"936 290 OFFCURVE",
"936 287 CURVE SMOOTH",
"936 96 LINE SMOOTH",
"936 93 OFFCURVE",
"938 91 OFFCURVE",
"939 91 CURVE SMOOTH",
"1047 91 LINE SMOOTH",
"1049 91 OFFCURVE",
"1050 93 OFFCURVE",
"1050 96 CURVE SMOOTH",
"1050 287 LINE SMOOTH",
"1050 290 OFFCURVE",
"1049 292 OFFCURVE",
"1047 292 CURVE"
);
},
{
closed = 1;
nodes = (
"0 287 LINE",
"0 96 LINE",
"108 96 LINE",
"108 287 LINE",
"0 287 LINE"
);
},
{
closed = 1;
nodes = (
"165 287 LINE",
"165 96 LINE",
"273 96 LINE",
"273 287 LINE",
"165 287 LINE"
);
},
{
closed = 1;
nodes = (
"1045 282 LINE",
"1045 102 LINE",
"942 102 LINE",
"942 282 LINE",
"1045 282 LINE"
);
},
{
closed = 1;
nodes = (
"734 266 LINE",
"734 117 LINE",
"649 117 LINE",
"649 266 LINE",
"734 266 LINE"
);
},
{
closed = 1;
nodes = (
"596 36 LINE",
"487 36 LINE SMOOTH",
"486 36 OFFCURVE",
"485 34 OFFCURVE",
"485 31 CURVE SMOOTH",
"485 -160 LINE SMOOTH",
"485 -163 OFFCURVE",
"486 -165 OFFCURVE",
"487 -165 CURVE SMOOTH",
"596 -165 LINE SMOOTH",
"597 -165 OFFCURVE",
"599 -163 OFFCURVE",
"599 -160 CURVE SMOOTH",
"599 31 LINE SMOOTH",
"599 34 OFFCURVE",
"597 36 OFFCURVE",
"596 36 CURVE"
);
},
{
closed = 1;
nodes = (
"900 36 LINE",
"792 36 LINE SMOOTH",
"790 36 OFFCURVE",
"789 34 OFFCURVE",
"789 31 CURVE SMOOTH",
"789 -160 LINE SMOOTH",
"789 -163 OFFCURVE",
"790 -165 OFFCURVE",
"792 -165 CURVE SMOOTH",
"900 -165 LINE SMOOTH",
"902 -165 OFFCURVE",
"903 -163 OFFCURVE",
"903 -160 CURVE SMOOTH",
"903 31 LINE SMOOTH",
"903 34 OFFCURVE",
"902 36 OFFCURVE",
"900 36 CURVE"
);
},
{
closed = 1;
nodes = (
"0 31 LINE",
"0 -160 LINE",
"108 -160 LINE",
"108 31 LINE",
"0 31 LINE"
);
},
{
closed = 1;
nodes = (
"165 31 LINE",
"165 -160 LINE",
"273 -160 LINE",
"273 31 LINE",
"165 31 LINE"
);
},
{
closed = 1;
nodes = (
"323 31 LINE",
"323 -160 LINE",
"431 -160 LINE",
"431 31 LINE",
"323 31 LINE"
);
},
{
closed = 1;
nodes = (
"593 25 LINE",
"593 -155 LINE",
"490 -155 LINE",
"490 25 LINE",
"593 25 LINE"
);
},
{
closed = 1;
nodes = (
"897 25 LINE",
"897 -155 LINE",
"795 -155 LINE",
"795 25 LINE",
"897 25 LINE"
);
},
{
closed = 1;
nodes = (
"0 -226 LINE",
"0 -416 LINE",
"108 -416 LINE",
"108 -226 LINE",
"0 -226 LINE"
);
},
{
closed = 1;
nodes = (
"165 -226 LINE",
"165 -416 LINE",
"273 -416 LINE",
"273 -226 LINE",
"165 -226 LINE"
);
},
{
closed = 1;
nodes = (
"323 -226 LINE",
"323 -416 LINE",
"431 -416 LINE",
"431 -226 LINE",
"323 -226 LINE"
);
},
{
closed = 1;
nodes = (
"596 -479 LINE",
"487 -479 LINE SMOOTH",
"486 -479 OFFCURVE",
"485 -481 OFFCURVE",
"485 -484 CURVE SMOOTH",
"485 -675 LINE SMOOTH",
"485 -678 OFFCURVE",
"486 -680 OFFCURVE",
"487 -680 CURVE SMOOTH",
"596 -680 LINE SMOOTH",
"597 -680 OFFCURVE",
"599 -678 OFFCURVE",
"599 -675 CURVE SMOOTH",
"599 -484 LINE SMOOTH",
"599 -481 OFFCURVE",
"597 -479 OFFCURVE",
"596 -479 CURVE"
);
},
{
closed = 1;
nodes = (
"0 -484 LINE",
"0 -675 LINE",
"108 -675 LINE",
"108 -484 LINE",
"0 -484 LINE"
);
},
{
closed = 1;
nodes = (
"165 -484 LINE",
"165 -675 LINE",
"273 -675 LINE",
"273 -484 LINE",
"165 -484 LINE"
);
},
{
closed = 1;
nodes = (
"593 -489 LINE",
"593 -670 LINE",
"490 -670 LINE",
"490 -489 LINE",
"593 -489 LINE"
);
}
);
width = 1200;
}
);
note = uniE0C4;
unicode = E0C4;
},
{
color = 2;
glyphname = uniE0C5;
lastChange = "2019-12-03 18:43:28 +0000";
layers = (
{
layerId = "F8C3375C-B372-4BAE-A3FB-5A8DC7FA7AB9";
paths = (
{
closed = 1;
nodes = (
"607 1557 LINE",
"715 1557 LINE SMOOTH",
"720 1557 OFFCURVE",
"724 1565 OFFCURVE",
"724 1572 CURVE SMOOTH",
"724 1763 LINE SMOOTH",
"724 1771 OFFCURVE",
"719 1778 OFFCURVE",
"715 1778 CURVE SMOOTH",
"607 1778 LINE SMOOTH",
"602 1778 OFFCURVE",
"598 1770 OFFCURVE",
"598 1763 CURVE SMOOTH",
"598 1572 LINE SMOOTH",
"598 1564 OFFCURVE",
"603 1557 OFFCURVE",
"607 1557 CURVE"
);
},
{
closed = 1;
nodes = (
"111 1768 LINE",
"3 1768 LINE SMOOTH",
"1 1768 OFFCURVE",
"0 1766 OFFCURVE",
"0 1763 CURVE SMOOTH",
"0 1572 LINE SMOOTH",
"0 1569 OFFCURVE",
"1 1567 OFFCURVE",
"3 1567 CURVE SMOOTH",
"111 1567 LINE SMOOTH",
"113 1567 OFFCURVE",
"114 1569 OFFCURVE",
"114 1572 CURVE SMOOTH",
"114 1763 LINE SMOOTH",
"114 1766 OFFCURVE",
"113 1768 OFFCURVE",
"111 1768 CURVE"
);
},
{
closed = 1;
nodes = (
"408 1572 LINE",
"408 1763 LINE",
"300 1763 LINE",
"300 1572 LINE",
"408 1572 LINE"
);
},
{
closed = 1;
nodes = (
"563 1572 LINE",
"563 1763 LINE",
"455 1763 LINE",
"455 1572 LINE",
"563 1572 LINE"
);
},
{
closed = 1;
nodes = (
"769 1763 LINE",
"769 1572 LINE",
"877 1572 LINE",
"877 1763 LINE",
"769 1763 LINE"
);
},
{
closed = 1;
nodes = (
"927 1763 LINE",
"927 1572 LINE",
"1035 1572 LINE",
"1035 1763 LINE",
"927 1763 LINE"
);
},
{
closed = 1;
nodes = (
"1200 1763 LINE",
"1092 1763 LINE",
"1092 1572 LINE",
"1200 1572 LINE",
"1200 1763 LINE"
);
},
{
closed = 1;
nodes = (
"108 1757 LINE",
"108 1577 LINE",
"6 1577 LINE",
"6 1757 LINE",
"108 1757 LINE"
);
},
{
closed = 1;
nodes = (
"615 1587 LINE",
"615 1747 LINE",
"706 1747 LINE",
"706 1587 LINE",
"615 1587 LINE"
);
},
{
closed = 1;
nodes = (
"111 1504 LINE",
"3 1504 LINE SMOOTH",
"1 1504 OFFCURVE",
"0 1502 OFFCURVE",
"0 1499 CURVE SMOOTH",
"0 1309 LINE SMOOTH",
"0 1305 OFFCURVE",
"1 1303 OFFCURVE",
"3 1303 CURVE SMOOTH",
"111 1303 LINE SMOOTH",
"113 1303 OFFCURVE",
"114 1305 OFFCURVE",
"114 1309 CURVE SMOOTH",
"114 1499 LINE SMOOTH",
"114 1502 OFFCURVE",
"113 1504 OFFCURVE",
"111 1504 CURVE"
);
},
{
closed = 1;
nodes = (
"408 1309 LINE",
"408 1499 LINE",
"300 1499 LINE",
"300 1309 LINE",
"408 1309 LINE"
);
},
{
closed = 1;
nodes = (
"713 1309 LINE",
"713 1499 LINE",
"604 1499 LINE",
"604 1309 LINE",
"713 1309 LINE"
);
},
{
closed = 1;
nodes = (
"769 1499 LINE",
"769 1309 LINE",
"877 1309 LINE",
"877 1499 LINE",
"769 1499 LINE"
);
},
{
closed = 1;
nodes = (
"927 1499 LINE",
"927 1309 LINE",
"1035 1309 LINE",
"1035 1499 LINE",
"927 1499 LINE"
);
},
{
closed = 1;
nodes = (
"1092 1499 LINE",
"1092 1309 LINE",
"1200 1309 LINE",
"1200 1499 LINE",
"1092 1499 LINE"
);
},
{
closed = 1;
nodes = (
"108 1494 LINE",
"108 1314 LINE",
"6 1314 LINE",
"6 1494 LINE",
"108 1494 LINE"
);
},
{
closed = 1;
nodes = (
"563 1271 LINE",
"455 1271 LINE SMOOTH",
"448 1271 OFFCURVE",
"443 1260 OFFCURVE",
"443 1251 CURVE SMOOTH",
"443 1060 LINE SMOOTH",
"443 1048 OFFCURVE",
"449 1040 OFFCURVE",
"455 1040 CURVE SMOOTH",
"563 1040 LINE SMOOTH",
"570 1040 OFFCURVE",
"575 1051 OFFCURVE",
"575 1060 CURVE SMOOTH",
"575 1251 LINE SMOOTH",
"575 1262 OFFCURVE",
"568 1271 OFFCURVE",
"563 1271 CURVE"
);
},
{
closed = 1;
nodes = (
"604 1251 LINE",
"604 1060 LINE",
"713 1060 LINE",
"713 1251 LINE",
"604 1251 LINE"
);
},
{
closed = 1;
nodes = (
"769 1251 LINE",
"769 1060 LINE",
"877 1060 LINE",
"877 1251 LINE",
"769 1251 LINE"
);
},
{
closed = 1;
nodes = (
"927 1251 LINE",
"927 1060 LINE",
"1035 1060 LINE",
"1035 1251 LINE",
"927 1251 LINE"
);
},
{
closed = 1;
nodes = (
"1092 1251 LINE",
"1092 1060 LINE",
"1200 1060 LINE",
"1200 1251 LINE",
"1092 1251 LINE"
);
},
{
closed = 1;
nodes = (
"551 1230 LINE",
"551 1081 LINE",
"466 1081 LINE",
"466 1230 LINE",
"551 1230 LINE"
);
},
{
closed = 1;
nodes = (
"563 1037 LINE",
"455 1037 LINE SMOOTH",
"448 1037 OFFCURVE",
"443 1025 OFFCURVE",
"443 1016 CURVE SMOOTH",
"443 825 LINE SMOOTH",
"443 813 OFFCURVE",
"449 805 OFFCURVE",
"455 805 CURVE SMOOTH",
"563 805 LINE SMOOTH",
"570 805 OFFCURVE",
"575 816 OFFCURVE",
"575 825 CURVE SMOOTH",
"575 1016 LINE SMOOTH",
"575 1028 OFFCURVE",
"568 1037 OFFCURVE",
"563 1037 CURVE"
);
},
{
closed = 1;
nodes = (
"769 1016 LINE",
"769 825 LINE",
"877 825 LINE",
"877 1016 LINE",
"769 1016 LINE"
);
},
{
closed = 1;
nodes = (
"927 1016 LINE",
"927 825 LINE",
"1035 825 LINE",
"1035 1016 LINE",
"927 1016 LINE"
);
},
{
closed = 1;
nodes = (
"1092 1016 LINE",
"1092 825 LINE",
"1200 825 LINE",
"1200 1016 LINE",
"1092 1016 LINE"
);
},
{
closed = 1;
nodes = (
"551 995 LINE",
"551 846 LINE",
"466 846 LINE",
"466 995 LINE",
"551 995 LINE"
);
},
{
closed = 1;
nodes = (
"713 801 LINE",
"604 801 LINE SMOOTH",
"596 801 OFFCURVE",
"590 787 OFFCURVE",
"590 775 CURVE SMOOTH",
"590 585 LINE SMOOTH",
"590 569 OFFCURVE",
"597 559 OFFCURVE",
"604 559 CURVE SMOOTH",
"713 559 LINE SMOOTH",
"721 559 OFFCURVE",
"727 572 OFFCURVE",
"727 585 CURVE SMOOTH",
"727 775 LINE SMOOTH",
"727 790 OFFCURVE",
"720 801 OFFCURVE",
"713 801 CURVE"
);
},
{
closed = 1;
nodes = (
"408 780 LINE",
"300 780 LINE SMOOTH",
"298 780 OFFCURVE",
"297 778 OFFCURVE",
"297 775 CURVE SMOOTH",
"297 585 LINE SMOOTH",
"297 581 OFFCURVE",
"298 579 OFFCURVE",
"300 579 CURVE SMOOTH",
"408 579 LINE SMOOTH",
"410 579 OFFCURVE",
"411 581 OFFCURVE",
"411 585 CURVE SMOOTH",
"411 775 LINE SMOOTH",
"411 778 OFFCURVE",
"410 780 OFFCURVE",
"408 780 CURVE"
);
},
{
closed = 1;
nodes = (
"563 585 LINE",
"563 775 LINE",
"455 775 LINE",
"455 585 LINE",
"563 585 LINE"
);
},
{
closed = 1;
nodes = (
"769 775 LINE",
"769 585 LINE",
"877 585 LINE",
"877 775 LINE",
"769 775 LINE"
);
},
{
closed = 1;
nodes = (
"927 775 LINE",
"927 585 LINE",
"1035 585 LINE",
"1035 775 LINE",
"927 775 LINE"
);
},
{
closed = 1;
nodes = (
"1092 775 LINE",
"1092 585 LINE",
"1200 585 LINE",
"1200 775 LINE",
"1092 775 LINE"
);
},
{
closed = 1;
nodes = (
"405 770 LINE",
"405 590 LINE",
"303 590 LINE",
"303 770 LINE",
"405 770 LINE"
);
},
{
closed = 1;
nodes = (
"698 749 LINE",
"698 610 LINE",
"619 610 LINE",
"619 749 LINE",
"698 749 LINE"
);
},
{
closed = 1;
nodes = (
"455 534 LINE",
"455 344 LINE",
"563 344 LINE",
"563 534 LINE",
"455 534 LINE"
);
},
{
closed = 1;
nodes = (
"713 344 LINE",
"713 534 LINE",
"604 534 LINE",
"604 344 LINE",
"713 344 LINE"
);
},
{
closed = 1;
nodes = (
"769 534 LINE",
"769 344 LINE",
"877 344 LINE",
"877 534 LINE",
"769 534 LINE"
);
},
{
closed = 1;
nodes = (
"927 534 LINE",
"927 344 LINE",
"1035 344 LINE",
"1035 534 LINE",
"927 534 LINE"
);
},
{
closed = 1;
nodes = (
"1092 534 LINE",
"1092 344 LINE",
"1200 344 LINE",
"1200 534 LINE",
"1092 534 LINE"
);
},
{
closed = 1;
nodes = (
"563 308 LINE",
"455 308 LINE SMOOTH",
"448 308 OFFCURVE",
"443 296 OFFCURVE",
"443 287 CURVE SMOOTH",
"443 96 LINE SMOOTH",
"443 84 OFFCURVE",
"449 76 OFFCURVE",
"455 76 CURVE SMOOTH",
"563 76 LINE SMOOTH",
"570 76 OFFCURVE",
"575 87 OFFCURVE",
"575 96 CURVE SMOOTH",
"575 287 LINE SMOOTH",
"575 299 OFFCURVE",
"568 308 OFFCURVE",
"563 308 CURVE"
);
},
{
closed = 1;
nodes = (
"261 292 LINE",
"153 292 LINE SMOOTH",
"151 292 OFFCURVE",
"150 290 OFFCURVE",
"150 287 CURVE SMOOTH",
"150 96 LINE SMOOTH",
"150 93 OFFCURVE",
"151 91 OFFCURVE",
"153 91 CURVE SMOOTH",
"261 91 LINE SMOOTH",
"262 91 OFFCURVE",
"264 93 OFFCURVE",
"264 96 CURVE SMOOTH",
"264 287 LINE SMOOTH",
"264 290 OFFCURVE",
"262 292 OFFCURVE",
"261 292 CURVE"
);
},
{
closed = 1;
nodes = (
"927 287 LINE",
"927 96 LINE",
"1035 96 LINE",
"1035 287 LINE",
"927 287 LINE"
);
},
{
closed = 1;
nodes = (
"1092 287 LINE",
"1092 96 LINE",
"1200 96 LINE",
"1200 287 LINE",
"1092 287 LINE"
);
},
{
closed = 1;
nodes = (
"258 282 LINE",
"258 102 LINE",
"155 102 LINE",
"155 282 LINE",
"258 282 LINE"
);
},
{
closed = 1;
nodes = (
"551 266 LINE",
"551 117 LINE",
"466 117 LINE",
"466 266 LINE",
"551 266 LINE"
);
},
{
closed = 1;
nodes = (
"408 36 LINE",
"300 36 LINE SMOOTH",
"298 36 OFFCURVE",
"297 34 OFFCURVE",
"297 31 CURVE SMOOTH",
"297 -160 LINE SMOOTH",
"297 -163 OFFCURVE",
"298 -165 OFFCURVE",
"300 -165 CURVE SMOOTH",
"408 -165 LINE SMOOTH",
"410 -165 OFFCURVE",
"411 -163 OFFCURVE",
"411 -160 CURVE SMOOTH",
"411 31 LINE SMOOTH",
"411 34 OFFCURVE",
"410 36 OFFCURVE",
"408 36 CURVE"
);
},
{
closed = 1;
nodes = (
"713 36 LINE",
"604 36 LINE SMOOTH",
"603 36 OFFCURVE",
"601 34 OFFCURVE",
"601 31 CURVE SMOOTH",
"601 -160 LINE SMOOTH",
"601 -163 OFFCURVE",
"603 -165 OFFCURVE",
"604 -165 CURVE SMOOTH",
"713 -165 LINE SMOOTH",
"714 -165 OFFCURVE",
"715 -163 OFFCURVE",
"715 -160 CURVE SMOOTH",
"715 31 LINE SMOOTH",
"715 34 OFFCURVE",
"714 36 OFFCURVE",
"713 36 CURVE"
);
},
{
closed = 1;
nodes = (
"769 31 LINE",
"769 -160 LINE",
"877 -160 LINE",
"877 31 LINE",
"769 31 LINE"
);
},
{
closed = 1;
nodes = (
"927 31 LINE",
"927 -160 LINE",
"1035 -160 LINE",
"1035 31 LINE",
"927 31 LINE"
);
},
{
closed = 1;
nodes = (
"1092 31 LINE",
"1092 -160 LINE",
"1200 -160 LINE",
"1200 31 LINE",
"1092 31 LINE"
);
},
{
closed = 1;
nodes = (
"405 25 LINE",
"405 -155 LINE",
"303 -155 LINE",
"303 25 LINE",
"405 25 LINE"
);
},
{
closed = 1;
nodes = (
"710 25 LINE",
"710 -155 LINE",
"607 -155 LINE",
"607 25 LINE",
"710 25 LINE"
);
},
{
closed = 1;
nodes = (
"769 -226 LINE",
"769 -416 LINE",
"877 -416 LINE",
"877 -226 LINE",
"769 -226 LINE"
);
},
{
closed = 1;
nodes = (
"927 -226 LINE",
"927 -416 LINE",
"1035 -416 LINE",
"1035 -226 LINE",
"927 -226 LINE"
);
},
{
closed = 1;
nodes = (
"1092 -226 LINE",
"1092 -416 LINE",
"1200 -416 LINE",
"1200 -226 LINE",
"1092 -226 LINE"
);
},
{
closed = 1;
nodes = (
"713 -479 LINE",
"604 -479 LINE SMOOTH",
"603 -479 OFFCURVE",
"601 -481 OFFCURVE",
"601 -484 CURVE SMOOTH",
"601 -675 LINE SMOOTH",
"601 -678 OFFCURVE",
"603 -680 OFFCURVE",
"604 -680 CURVE SMOOTH",
"713 -680 LINE SMOOTH",
"714 -680 OFFCURVE",
"715 -678 OFFCURVE",
"715 -675 CURVE SMOOTH",
"715 -484 LINE SMOOTH",
"715 -481 OFFCURVE",
"714 -479 OFFCURVE",
"713 -479 CURVE"
);
},
{
closed = 1;
nodes = (
"927 -484 LINE",
"927 -675 LINE",
"1035 -675 LINE",
"1035 -484 LINE",
"927 -484 LINE"
);
},
{
closed = 1;
nodes = (
"1092 -484 LINE",
"1092 -675 LINE",
"1200 -675 LINE",
"1200 -484 LINE",
"1092 -484 LINE"
);
},
{
closed = 1;
nodes = (
"710 -489 LINE",
"710 -670 LINE",
"607 -670 LINE",
"607 -489 LINE",
"710 -489 LINE"
);
}
);
width = 1200;
}
);
note = uniE0C5;
unicode = E0C5;
},
{
color = 2;
glyphname = uniE0C6;
lastChange = "2019-12-03 18:43:28 +0000";
layers = (
{
layerId = "F8C3375C-B372-4BAE-A3FB-5A8DC7FA7AB9";
paths = (
{
closed = 1;
nodes = (
"769 1458 LINE",
"940 1458 LINE SMOOTH",
"947 1458 OFFCURVE",
"955 1468 OFFCURVE",
"955 1481 CURVE SMOOTH",
"955 1756 LINE SMOOTH",
"955 1767 OFFCURVE",
"949 1778 OFFCURVE",
"940 1778 CURVE SMOOTH",
"769 1778 LINE SMOOTH",
"763 1778 OFFCURVE",
"755 1768 OFFCURVE",
"755 1756 CURVE SMOOTH",
"755 1481 LINE SMOOTH",
"755 1470 OFFCURVE",
"761 1458 OFFCURVE",
"769 1458 CURVE"
);
},
{
closed = 1;
nodes = (
"512 1468 LINE",
"683 1468 LINE SMOOTH",
"687 1468 OFFCURVE",
"691 1474 OFFCURVE",
"691 1481 CURVE SMOOTH",
"691 1756 LINE SMOOTH",
"691 1761 OFFCURVE",
"688 1768 OFFCURVE",
"683 1768 CURVE SMOOTH",
"512 1768 LINE SMOOTH",
"508 1768 OFFCURVE",
"504 1761 OFFCURVE",
"504 1756 CURVE SMOOTH",
"504 1481 LINE SMOOTH",
"504 1474 OFFCURVE",
"507 1468 OFFCURVE",
"512 1468 CURVE"
);
},
{
closed = 1;
nodes = (
"0 1756 LINE",
"0 1481 LINE",
"172 1481 LINE",
"172 1756 LINE",
"0 1756 LINE"
);
},
{
closed = 1;
nodes = (
"261 1756 LINE",
"261 1481 LINE",
"433 1481 LINE",
"433 1756 LINE",
"261 1756 LINE"
);
},
{
closed = 1;
nodes = (
"519 1493 LINE",
"519 1743 LINE",
"675 1743 LINE",
"675 1493 LINE",
"519 1493 LINE"
);
},
{
closed = 1;
nodes = (
"784 1503 LINE",
"784 1733 LINE",
"927 1733 LINE",
"927 1503 LINE",
"784 1503 LINE"
);
},
{
closed = 1;
nodes = (
"944 1388 LINE",
"773 1388 LINE SMOOTH",
"770 1388 OFFCURVE",
"765 1382 OFFCURVE",
"765 1375 CURVE SMOOTH",
"765 1100 LINE SMOOTH",
"765 1095 OFFCURVE",
"769 1088 OFFCURVE",
"773 1088 CURVE SMOOTH",
"944 1088 LINE SMOOTH",
"949 1088 OFFCURVE",
"952 1093 OFFCURVE",
"952 1100 CURVE SMOOTH",
"952 1375 LINE SMOOTH",
"952 1382 OFFCURVE",
"949 1388 OFFCURVE",
"944 1388 CURVE"
);
},
{
closed = 1;
nodes = (
"0 1375 LINE",
"0 1100 LINE",
"172 1100 LINE",
"172 1375 LINE",
"0 1375 LINE"
);
},
{
closed = 1;
nodes = (
"261 1375 LINE",
"261 1100 LINE",
"433 1100 LINE",
"433 1375 LINE",
"261 1375 LINE"
);
},
{
closed = 1;
nodes = (
"512 1375 LINE",
"512 1100 LINE",
"683 1100 LINE",
"683 1375 LINE",
"512 1375 LINE"
);
},
{
closed = 1;
nodes = (
"937 1363 LINE",
"937 1112 LINE",
"781 1112 LINE",
"781 1363 LINE",
"937 1363 LINE"
);
},
{
closed = 1;
nodes = (
"1181 1046 LINE",
"1010 1046 LINE SMOOTH",
"1002 1046 OFFCURVE",
"992 1033 OFFCURVE",
"992 1017 CURVE SMOOTH",
"992 741 LINE SMOOTH",
"992 728 OFFCURVE",
"1000 712 OFFCURVE",
"1010 712 CURVE SMOOTH",
"1181 712 LINE SMOOTH",
"1191 712 OFFCURVE",
"1200 725 OFFCURVE",
"1200 741 CURVE SMOOTH",
"1200 1017 LINE SMOOTH",
"1200 1031 OFFCURVE",
"1192 1046 OFFCURVE",
"1181 1046 CURVE"
);
},
{
closed = 1;
nodes = (
"512 729 LINE",
"683 729 LINE SMOOTH",
"687 729 OFFCURVE",
"691 734 OFFCURVE",
"691 741 CURVE SMOOTH",
"691 1017 LINE SMOOTH",
"691 1022 OFFCURVE",
"688 1029 OFFCURVE",
"683 1029 CURVE SMOOTH",
"512 1029 LINE SMOOTH",
"508 1029 OFFCURVE",
"504 1022 OFFCURVE",
"504 1017 CURVE SMOOTH",
"504 741 LINE SMOOTH",
"504 736 OFFCURVE",
"507 729 OFFCURVE",
"512 729 CURVE"
);
},
{
closed = 1;
nodes = (
"0 1017 LINE",
"0 741 LINE",
"172 741 LINE",
"172 1017 LINE",
"0 1017 LINE"
);
},
{
closed = 1;
nodes = (
"261 1017 LINE",
"261 741 LINE",
"433 741 LINE",
"433 1017 LINE",
"261 1017 LINE"
);
},
{
closed = 1;
nodes = (
"519 754 LINE",
"519 1004 LINE",
"675 1004 LINE",
"675 754 LINE",
"519 754 LINE"
);
},
{
closed = 1;
nodes = (
"1163 987 LINE",
"1163 771 LINE",
"1029 771 LINE",
"1029 987 LINE",
"1163 987 LINE"
);
},
{
closed = 1;
nodes = (
"0 678 LINE",
"0 403 LINE",
"172 403 LINE",
"172 678 LINE",
"0 678 LINE"
);
},
{
closed = 1;
nodes = (
"512 678 LINE",
"512 403 LINE",
"683 403 LINE",
"683 678 LINE",
"512 678 LINE"
);
},
{
closed = 1;
nodes = (
"944 367 LINE",
"773 367 LINE SMOOTH",
"763 367 OFFCURVE",
"750 350 OFFCURVE",
"750 330 CURVE SMOOTH",
"750 55 LINE SMOOTH",
"750 36 OFFCURVE",
"760 17 OFFCURVE",
"773 17 CURVE SMOOTH",
"944 17 LINE SMOOTH",
"956 17 OFFCURVE",
"968 34 OFFCURVE",
"968 55 CURVE SMOOTH",
"968 330 LINE SMOOTH",
"968 347 OFFCURVE",
"957 367 OFFCURVE",
"944 367 CURVE"
);
},
{
closed = 1;
nodes = (
"0 330 LINE",
"0 55 LINE",
"172 55 LINE",
"172 330 LINE",
"0 330 LINE"
);
},
{
closed = 1;
nodes = (
"261 330 LINE",
"261 55 LINE",
"433 55 LINE",
"433 330 LINE",
"261 330 LINE"
);
},
{
closed = 1;
nodes = (
"921 292 LINE",
"921 92 LINE",
"796 92 LINE",
"796 292 LINE",
"921 292 LINE"
);
},
{
closed = 1;
nodes = (
"683 6 LINE",
"512 6 LINE SMOOTH",
"504 6 OFFCURVE",
"496 -5 OFFCURVE",
"496 -18 CURVE SMOOTH",
"496 -293 LINE SMOOTH",
"496 -305 OFFCURVE",
"502 -318 OFFCURVE",
"512 -318 CURVE SMOOTH",
"683 -318 LINE SMOOTH",
"690 -318 OFFCURVE",
"698 -308 OFFCURVE",
"698 -293 CURVE SMOOTH",
"698 -18 LINE SMOOTH",
"698 -7 OFFCURVE",
"691 6 OFFCURVE",
"683 6 CURVE"
);
},
{
closed = 1;
nodes = (
"0 -18 LINE",
"0 -293 LINE",
"172 -293 LINE",
"172 -18 LINE",
"0 -18 LINE"
);
},
{
closed = 1;
nodes = (
"261 -18 LINE",
"261 -293 LINE",
"433 -293 LINE",
"433 -18 LINE",
"261 -18 LINE"
);
},
{
closed = 1;
nodes = (
"667 -43 LINE",
"667 -269 LINE",
"527 -269 LINE",
"527 -43 LINE",
"667 -43 LINE"
);
},
{
closed = 1;
nodes = (
"1181 -345 LINE",
"1010 -345 LINE SMOOTH",
"1001 -345 OFFCURVE",
"992 -358 OFFCURVE",
"992 -375 CURVE SMOOTH",
"992 -650 LINE SMOOTH",
"992 -665 OFFCURVE",
"1000 -680 OFFCURVE",
"1010 -680 CURVE SMOOTH",
"1181 -680 LINE SMOOTH",
"1191 -680 OFFCURVE",
"1200 -667 OFFCURVE",
"1200 -650 CURVE SMOOTH",
"1200 -375 LINE SMOOTH",
"1200 -361 OFFCURVE",
"1192 -345 OFFCURVE",
"1181 -345 CURVE"
);
},
{
closed = 1;
nodes = (
"0 -375 LINE",
"0 -650 LINE",
"172 -650 LINE",
"172 -375 LINE",
"0 -375 LINE"
);
},
{
closed = 1;
nodes = (
"261 -375 LINE",
"261 -650 LINE",
"433 -650 LINE",
"433 -375 LINE",
"261 -375 LINE"
);
},
{
closed = 1;
nodes = (
"1163 -405 LINE",
"1163 -621 LINE",
"1029 -621 LINE",
"1029 -405 LINE",
"1163 -405 LINE"
);
}
);
width = 1200;
}
);
note = uniE0C6;
unicode = E0C6;
},
{
color = 2;
glyphname = uniE0C7;
lastChange = "2019-12-03 18:43:28 +0000";
layers = (
{
layerId = "F8C3375C-B372-4BAE-A3FB-5A8DC7FA7AB9";
paths = (
{
closed = 1;
nodes = (
"260 1458 LINE",
"431 1458 LINE SMOOTH",
"439 1458 OFFCURVE",
"445 1470 OFFCURVE",
"445 1481 CURVE SMOOTH",
"445 1756 LINE SMOOTH",
"445 1768 OFFCURVE",
"437 1778 OFFCURVE",
"431 1778 CURVE SMOOTH",
"260 1778 LINE SMOOTH",
"252 1778 OFFCURVE",
"246 1767 OFFCURVE",
"246 1756 CURVE SMOOTH",
"246 1481 LINE SMOOTH",
"246 1469 OFFCURVE",
"253 1458 OFFCURVE",
"260 1458 CURVE"
);
},
{
closed = 1;
nodes = (
"517 1468 LINE",
"688 1468 LINE SMOOTH",
"693 1468 OFFCURVE",
"696 1474 OFFCURVE",
"696 1481 CURVE SMOOTH",
"696 1756 LINE SMOOTH",
"696 1762 OFFCURVE",
"693 1768 OFFCURVE",
"688 1768 CURVE SMOOTH",
"517 1768 LINE SMOOTH",
"513 1768 OFFCURVE",
"509 1761 OFFCURVE",
"509 1756 CURVE SMOOTH",
"509 1481 LINE SMOOTH",
"509 1474 OFFCURVE",
"514 1468 OFFCURVE",
"517 1468 CURVE"
);
},
{
closed = 1;
nodes = (
"767 1756 LINE",
"767 1481 LINE",
"939 1481 LINE",
"939 1756 LINE",
"767 1756 LINE"
);
},
{
closed = 1;
nodes = (
"1200 1756 LINE",
"1029 1756 LINE",
"1029 1481 LINE",
"1200 1481 LINE",
"1200 1756 LINE"
);
},
{
closed = 1;
nodes = (
"525 1493 LINE",
"525 1743 LINE",
"681 1743 LINE",
"681 1493 LINE",
"525 1493 LINE"
);
},
{
closed = 1;
nodes = (
"273 1503 LINE",
"273 1733 LINE",
"417 1733 LINE",
"417 1503 LINE",
"273 1503 LINE"
);
},
{
closed = 1;
nodes = (
"428 1388 LINE",
"256 1388 LINE SMOOTH",
"251 1388 OFFCURVE",
"248 1382 OFFCURVE",
"248 1375 CURVE SMOOTH",
"248 1100 LINE SMOOTH",
"248 1093 OFFCURVE",
"253 1088 OFFCURVE",
"256 1088 CURVE SMOOTH",
"428 1088 LINE SMOOTH",
"432 1088 OFFCURVE",
"435 1095 OFFCURVE",
"435 1100 CURVE SMOOTH",
"435 1375 LINE SMOOTH",
"435 1382 OFFCURVE",
"431 1388 OFFCURVE",
"428 1388 CURVE"
);
},
{
closed = 1;
nodes = (
"517 1375 LINE",
"517 1100 LINE",
"688 1100 LINE",
"688 1375 LINE",
"517 1375 LINE"
);
},
{
closed = 1;
nodes = (
"767 1375 LINE",
"767 1100 LINE",
"939 1100 LINE",
"939 1375 LINE",
"767 1375 LINE"
);
},
{
closed = 1;
nodes = (
"1029 1375 LINE",
"1029 1100 LINE",
"1200 1100 LINE",
"1200 1375 LINE",
"1029 1375 LINE"
);
},
{
closed = 1;
nodes = (
"420 1363 LINE",
"420 1112 LINE",
"263 1112 LINE",
"263 1363 LINE",
"420 1363 LINE"
);
},
{
closed = 1;
nodes = (
"190 1046 LINE",
"19 1046 LINE SMOOTH",
"8 1046 OFFCURVE",
"0 1030 OFFCURVE",
"0 1017 CURVE SMOOTH",
"0 741 LINE SMOOTH",
"0 725 OFFCURVE",
"9 712 OFFCURVE",
"19 712 CURVE SMOOTH",
"190 712 LINE SMOOTH",
"200 712 OFFCURVE",
"209 728 OFFCURVE",
"209 741 CURVE SMOOTH",
"209 1017 LINE SMOOTH",
"209 1033 OFFCURVE",
"198 1046 OFFCURVE",
"190 1046 CURVE"
);
},
{
closed = 1;
nodes = (
"517 729 LINE",
"688 729 LINE SMOOTH",
"693 729 OFFCURVE",
"696 736 OFFCURVE",
"696 741 CURVE SMOOTH",
"696 1017 LINE SMOOTH",
"696 1023 OFFCURVE",
"693 1029 OFFCURVE",
"688 1029 CURVE SMOOTH",
"517 1029 LINE SMOOTH",
"513 1029 OFFCURVE",
"509 1022 OFFCURVE",
"509 1017 CURVE SMOOTH",
"509 741 LINE SMOOTH",
"509 734 OFFCURVE",
"514 729 OFFCURVE",
"517 729 CURVE"
);
},
{
closed = 1;
nodes = (
"767 1017 LINE",
"767 741 LINE",
"939 741 LINE",
"939 1017 LINE",
"767 1017 LINE"
);
},
{
closed = 1;
nodes = (
"1029 1017 LINE",
"1029 741 LINE",
"1200 741 LINE",
"1200 1017 LINE",
"1029 1017 LINE"
);
},
{
closed = 1;
nodes = (
"525 754 LINE",
"525 1004 LINE",
"681 1004 LINE",
"681 754 LINE",
"525 754 LINE"
);
},
{
closed = 1;
nodes = (
"172 987 LINE",
"172 771 LINE",
"37 771 LINE",
"37 987 LINE",
"172 987 LINE"
);
},
{
closed = 1;
nodes = (
"517 678 LINE",
"517 403 LINE",
"688 403 LINE",
"688 678 LINE",
"517 678 LINE"
);
},
{
closed = 1;
nodes = (
"1029 678 LINE",
"1029 403 LINE",
"1200 403 LINE",
"1200 678 LINE",
"1029 678 LINE"
);
},
{
closed = 1;
nodes = (
"428 367 LINE",
"256 367 LINE SMOOTH",
"243 367 OFFCURVE",
"232 347 OFFCURVE",
"232 330 CURVE SMOOTH",
"232 55 LINE SMOOTH",
"232 34 OFFCURVE",
"245 17 OFFCURVE",
"256 17 CURVE SMOOTH",
"428 17 LINE SMOOTH",
"440 17 OFFCURVE",
"450 36 OFFCURVE",
"450 55 CURVE SMOOTH",
"450 330 LINE SMOOTH",
"450 350 OFFCURVE",
"438 367 OFFCURVE",
"428 367 CURVE"
);
},
{
closed = 1;
nodes = (
"767 330 LINE",
"767 55 LINE",
"939 55 LINE",
"939 330 LINE",
"767 330 LINE"
);
},
{
closed = 1;
nodes = (
"1029 330 LINE",
"1029 55 LINE",
"1200 55 LINE",
"1200 330 LINE",
"1029 330 LINE"
);
},
{
closed = 1;
nodes = (
"404 292 LINE",
"404 92 LINE",
"279 92 LINE",
"279 292 LINE",
"404 292 LINE"
);
},
{
closed = 1;
nodes = (
"688 6 LINE",
"517 6 LINE SMOOTH",
"508 6 OFFCURVE",
"502 -7 OFFCURVE",
"502 -18 CURVE SMOOTH",
"502 -293 LINE SMOOTH",
"502 -308 OFFCURVE",
"510 -318 OFFCURVE",
"517 -318 CURVE SMOOTH",
"688 -318 LINE SMOOTH",
"698 -318 OFFCURVE",
"704 -305 OFFCURVE",
"704 -293 CURVE SMOOTH",
"704 -18 LINE SMOOTH",
"704 -5 OFFCURVE",
"696 6 OFFCURVE",
"688 6 CURVE"
);
},
{
closed = 1;
nodes = (
"767 -18 LINE",
"767 -293 LINE",
"939 -293 LINE",
"939 -18 LINE",
"767 -18 LINE"
);
},
{
closed = 1;
nodes = (
"1029 -18 LINE",
"1029 -293 LINE",
"1200 -293 LINE",
"1200 -18 LINE",
"1029 -18 LINE"
);
},
{
closed = 1;
nodes = (
"674 -43 LINE",
"674 -269 LINE",
"533 -269 LINE",
"533 -43 LINE",
"674 -43 LINE"
);
},
{
closed = 1;
nodes = (
"190 -345 LINE",
"19 -345 LINE SMOOTH",
"8 -345 OFFCURVE",
"0 -361 OFFCURVE",
"0 -375 CURVE SMOOTH",
"0 -650 LINE SMOOTH",
"0 -667 OFFCURVE",
"9 -680 OFFCURVE",
"19 -680 CURVE SMOOTH",
"190 -680 LINE SMOOTH",
"200 -680 OFFCURVE",
"209 -665 OFFCURVE",
"209 -650 CURVE SMOOTH",
"209 -375 LINE SMOOTH",
"209 -360 OFFCURVE",
"198 -345 OFFCURVE",
"190 -345 CURVE"
);
},
{
closed = 1;
nodes = (
"767 -375 LINE",
"767 -650 LINE",
"939 -650 LINE",
"939 -375 LINE",
"767 -375 LINE"
);
},
{
closed = 1;
nodes = (
"1029 -375 LINE",
"1029 -650 LINE",
"1200 -650 LINE",
"1200 -375 LINE",
"1029 -375 LINE"
);
},
{
closed = 1;
nodes = (
"172 -405 LINE",
"172 -621 LINE",
"37 -621 LINE",
"37 -405 LINE",
"172 -405 LINE"
);
}
);
width = 1200;
}
);
note = uniE0C7;
unicode = E0C7;
},
{
color = 2;
glyphname = uniE0C8;
lastChange = "2019-12-03 18:43:28 +0000";
layers = (
{
layerId = "F8C3375C-B372-4BAE-A3FB-5A8DC7FA7AB9";
paths = (
{
closed = 1;
nodes = (
"1105 282 LINE",
"1073 282 OFFCURVE",
"1046 298 OFFCURVE",
"1016 298 CURVE SMOOTH",
"1010 298 OFFCURVE",
"983 289 OFFCURVE",
"974 287 CURVE",
"955 291 OFFCURVE",
"938 301 OFFCURVE",
"917 301 CURVE SMOOTH",
"902 301 OFFCURVE",
"886 300 OFFCURVE",
"871 299 CURVE SMOOTH",
"862 299 OFFCURVE",
"853 293 OFFCURVE",
"844 293 CURVE SMOOTH",
"841 293 OFFCURVE",
"838 295 OFFCURVE",
"836 297 CURVE SMOOTH",
"811 321 OFFCURVE",
"794 326 OFFCURVE",
"760 326 CURVE SMOOTH",
"744 326 OFFCURVE",
"749 346 OFFCURVE",
"703 346 CURVE SMOOTH",
"681 346 OFFCURVE",
"662 358 OFFCURVE",
"640 358 CURVE SMOOTH",
"631 358 OFFCURVE",
"621 353 OFFCURVE",
"612 353 CURVE SMOOTH",
"607 353 OFFCURVE",
"602 355 OFFCURVE",
"598 359 CURVE SMOOTH",
"586 371 OFFCURVE",
"555 365 OFFCURVE",
"540 365 CURVE SMOOTH",
"536 365 OFFCURVE",
"531 366 OFFCURVE",
"527 367 CURVE",
"513 378 OFFCURVE",
"480 374 OFFCURVE",
"462 383 CURVE SMOOTH",
"455 386 OFFCURVE",
"451 395 OFFCURVE",
"443 395 CURVE SMOOTH",
"435 395 OFFCURVE",
"427 390 OFFCURVE",
"419 390 CURVE SMOOTH",
"413 390 OFFCURVE",
"406 395 OFFCURVE",
"399 395 CURVE SMOOTH",
"392 395 OFFCURVE",
"384 394 OFFCURVE",
"377 394 CURVE SMOOTH",
"342 394 OFFCURVE",
"307 398 OFFCURVE",
"273 398 CURVE SMOOTH",
"262 398 OFFCURVE",
"261 403 OFFCURVE",
"257 412 CURVE",
"260 417 OFFCURVE",
"276 420 OFFCURVE",
"281 421 CURVE SMOOTH",
"336 432 OFFCURVE",
"382 452 OFFCURVE",
"433 473 CURVE SMOOTH",
"446 478 OFFCURVE",
"460 499 OFFCURVE",
"477 497 CURVE SMOOTH",
"482 496 OFFCURVE",
"486 496 OFFCURVE",
"491 496 CURVE SMOOTH",
"504 496 OFFCURVE",
"517 508 OFFCURVE",
"528 508 CURVE SMOOTH",
"536 508 OFFCURVE",
"549 508 OFFCURVE",
"557 511 CURVE SMOOTH",
"563 513 OFFCURVE",
"568 518 OFFCURVE",
"568 525 CURVE SMOOTH",
"568 552 OFFCURVE",
"547 558 OFFCURVE",
"525 560 CURVE SMOOTH",
"503 562 OFFCURVE",
"487 576 OFFCURVE",
"466 578 CURVE SMOOTH",
"457 579 OFFCURVE",
"447 576 OFFCURVE",
"438 576 CURVE SMOOTH",
"429 576 OFFCURVE",
"385 583 OFFCURVE",
"376 587 CURVE SMOOTH",
"370 590 OFFCURVE",
"332 608 OFFCURVE",
"326 607 CURVE SMOOTH",
"322 606 OFFCURVE",
"319 605 OFFCURVE",
"315 605 CURVE SMOOTH",
"301 605 OFFCURVE",
"287 608 OFFCURVE",
"273 610 CURVE",
"268 616 LINE",
"278 632 OFFCURVE",
"320 626 OFFCURVE",
"335 626 CURVE SMOOTH",
"359 626 OFFCURVE",
"380 643 OFFCURVE",
"405 646 CURVE SMOOTH",
"416 647 OFFCURVE",
"447 655 OFFCURVE",
"447 669 CURVE SMOOTH",
"447 694 OFFCURVE",
"390 703 OFFCURVE",
"372 703 CURVE SMOOTH",
"353 703 OFFCURVE",
"341 713 OFFCURVE",
"323 713 CURVE SMOOTH",
"241 713 OFFCURVE",
"256 727 OFFCURVE",
"235 786 CURVE SMOOTH",
"231 797 OFFCURVE",
"215 828 OFFCURVE",
"215 837 CURVE SMOOTH",
"215 881 OFFCURVE",
"248 907 OFFCURVE",
"279 932 CURVE SMOOTH",
"292 943 OFFCURVE",
"315 940 OFFCURVE",
"327 952 CURVE SMOOTH",
"330 955 OFFCURVE",
"379 967 OFFCURVE",
"388 968 CURVE",
"395 967 OFFCURVE",
"403 964 OFFCURVE",
"410 964 CURVE SMOOTH",
"425 964 OFFCURVE",
"428 982 OFFCURVE",
"445 982 CURVE SMOOTH",
"458 982 OFFCURVE",
"459 971 OFFCURVE",
"475 971 CURVE SMOOTH",
"486 971 OFFCURVE",
"528 992 OFFCURVE",
"541 998 CURVE SMOOTH",
"575 1013 OFFCURVE",
"614 1012 OFFCURVE",
"648 1024 CURVE SMOOTH",
"657 1027 OFFCURVE",
"663 1035 OFFCURVE",
"663 1044 CURVE SMOOTH",
"663 1088 OFFCURVE",
"625 1080 OFFCURVE",
"597 1080 CURVE SMOOTH",
"577 1080 OFFCURVE",
"565 1108 OFFCURVE",
"512 1108 CURVE SMOOTH",
"504 1108 OFFCURVE",
"499 1105 OFFCURVE",
"492 1104 CURVE",
"485 1108 OFFCURVE",
"488 1114 OFFCURVE",
"477 1117 CURVE SMOOTH",
"464 1120 OFFCURVE",
"442 1125 OFFCURVE",
"431 1132 CURVE SMOOTH",
"428 1134 OFFCURVE",
"425 1136 OFFCURVE",
"421 1136 CURVE SMOOTH",
"415 1136 OFFCURVE",
"410 1130 OFFCURVE",
"404 1128 CURVE",
"395 1134 OFFCURVE",
"357 1185 OFFCURVE",
"339 1171 CURVE",
"303 1171 OFFCURVE",
"245 1207 OFFCURVE",
"206 1207 CURVE SMOOTH",
"194 1207 OFFCURVE",
"175 1216 OFFCURVE",
"175 1230 CURVE SMOOTH",
"175 1265 OFFCURVE",
"235 1279 OFFCURVE",
"262 1279 CURVE SMOOTH",
"281 1279 OFFCURVE",
"343 1291 OFFCURVE",
"362 1295 CURVE SMOOTH",
"379 1299 OFFCURVE",
"402 1320 OFFCURVE",
"416 1320 CURVE",
"424 1317 LINE",
"435 1307 OFFCURVE",
"450 1303 OFFCURVE",
"465 1303 CURVE SMOOTH",
"474 1303 OFFCURVE",
"486 1305 OFFCURVE",
"490 1314 CURVE",
"493 1316 LINE",
"498 1313 OFFCURVE",
"507 1304 OFFCURVE",
"513 1304 CURVE SMOOTH",
"517 1304 OFFCURVE",
"521 1306 OFFCURVE",
"524 1309 CURVE SMOOTH",
"539 1322 OFFCURVE",
"562 1324 OFFCURVE",
"581 1328 CURVE SMOOTH",
"592 1330 OFFCURVE",
"599 1341 OFFCURVE",
"610 1344 CURVE",
"622 1340 OFFCURVE",
"641 1340 OFFCURVE",
"654 1340 CURVE SMOOTH",
"708 1340 OFFCURVE",
"714 1358 OFFCURVE",
"767 1358 CURVE SMOOTH",
"794 1358 OFFCURVE",
"830 1363 OFFCURVE",
"830 1397 CURVE SMOOTH",
"830 1405 OFFCURVE",
"827 1427 OFFCURVE",
"816 1427 CURVE SMOOTH",
"811 1427 OFFCURVE",
"805 1422 OFFCURVE",
"800 1422 CURVE SMOOTH",
"793 1422 OFFCURVE",
"786 1428 OFFCURVE",
"781 1432 CURVE SMOOTH",
"755 1452 OFFCURVE",
"736 1445 OFFCURVE",
"706 1450 CURVE",
"704 1449 OFFCURVE",
"701 1448 OFFCURVE",
"699 1447 CURVE",
"690 1447 LINE SMOOTH",
"688 1447 OFFCURVE",
"679 1452 OFFCURVE",
"677 1453 CURVE SMOOTH",
"622 1490 OFFCURVE",
"612 1469 OFFCURVE",
"560 1482 CURVE SMOOTH",
"545 1486 OFFCURVE",
"546 1502 OFFCURVE",
"517 1502 CURVE SMOOTH",
"506 1502 OFFCURVE",
"499 1497 OFFCURVE",
"490 1494 CURVE",
"477 1502 OFFCURVE",
"474 1522 OFFCURVE",
"461 1522 CURVE SMOOTH",
"435 1522 OFFCURVE",
"419 1510 OFFCURVE",
"396 1503 CURVE",
"393 1504 OFFCURVE",
"390 1506 OFFCURVE",
"388 1508 CURVE SMOOTH",
"372 1527 OFFCURVE",
"330 1538 OFFCURVE",
"306 1538 CURVE SMOOTH",
"292 1538 OFFCURVE",
"283 1529 OFFCURVE",
"270 1527 CURVE",
"246 1533 OFFCURVE",
"136 1565 OFFCURVE",
"127 1581 CURVE",
"131 1585 LINE",
"147 1592 OFFCURVE",
"159 1587 OFFCURVE",
"175 1587 CURVE SMOOTH",
"189 1587 OFFCURVE",
"256 1593 OFFCURVE",
"264 1598 CURVE SMOOTH",
"276 1606 OFFCURVE",
"305 1615 OFFCURVE",
"320 1615 CURVE SMOOTH",
"327 1615 OFFCURVE",
"334 1612 OFFCURVE",
"341 1612 CURVE SMOOTH",
"355 1612 OFFCURVE",
"370 1619 OFFCURVE",
"373 1633 CURVE",
"390 1633 OFFCURVE",
"414 1633 OFFCURVE",
"414 1656 CURVE SMOOTH",
"414 1682 OFFCURVE",
"391 1672 OFFCURVE",
"379 1678 CURVE",
"376 1681 OFFCURVE",
"297 1722 OFFCURVE",
"294 1722 CURVE SMOOTH",
"288 1722 OFFCURVE",
"284 1717 OFFCURVE",
"279 1715 CURVE",
"263 1720 OFFCURVE",
"213 1737 OFFCURVE",
"199 1737 CURVE SMOOTH",
"194 1737 OFFCURVE",
"143 1768 OFFCURVE",
"135 1773 CURVE SMOOTH",
"113 1788 OFFCURVE",
"76 1782 OFFCURVE",
"50 1782 CURVE SMOOTH",
"45 1782 OFFCURVE",
"41 1782 OFFCURVE",
"36 1783 CURVE",
"29 1787 OFFCURVE",
"21 1790 OFFCURVE",
"13 1790 CURVE SMOOTH",
"10 1790 OFFCURVE",
"6 1790 OFFCURVE",
"3 1789 CURVE",
"0 1784 LINE",
"1 -687 LINE",
"4 -692 LINE",
"49 -692 OFFCURVE",
"63 -693 OFFCURVE",
"102 -672 CURVE SMOOTH",
"111 -667 OFFCURVE",
"120 -661 OFFCURVE",
"130 -657 CURVE SMOOTH",
"151 -649 OFFCURVE",
"169 -661 OFFCURVE",
"198 -645 CURVE SMOOTH",
"236 -624 OFFCURVE",
"220 -621 OFFCURVE",
"268 -621 CURVE SMOOTH",
"270 -621 OFFCURVE",
"280 -617 OFFCURVE",
"282 -616 CURVE SMOOTH",
"298 -609 OFFCURVE",
"321 -609 OFFCURVE",
"338 -607 CURVE SMOOTH",
"348 -606 OFFCURVE",
"350 -594 OFFCURVE",
"350 -586 CURVE SMOOTH",
"350 -551 OFFCURVE",
"311 -569 OFFCURVE",
"288 -562 CURVE",
"279 -553 OFFCURVE",
"271 -541 OFFCURVE",
"259 -536 CURVE SMOOTH",
"239 -527 OFFCURVE",
"226 -517 OFFCURVE",
"204 -513 CURVE SMOOTH",
"202 -513 OFFCURVE",
"198 -509 OFFCURVE",
"196 -507 CURVE",
"188 -489 OFFCURVE",
"144 -505 OFFCURVE",
"144 -482 CURVE SMOOTH",
"144 -475 OFFCURVE",
"160 -468 OFFCURVE",
"165 -466 CURVE SMOOTH",
"178 -461 OFFCURVE",
"190 -457 OFFCURVE",
"204 -457 CURVE SMOOTH",
"220 -457 OFFCURVE",
"232 -444 OFFCURVE",
"247 -442 CURVE SMOOTH",
"260 -440 OFFCURVE",
"289 -435 OFFCURVE",
"301 -428 CURVE SMOOTH",
"309 -423 OFFCURVE",
"314 -415 OFFCURVE",
"324 -412 CURVE",
"330 -414 OFFCURVE",
"339 -415 OFFCURVE",
"346 -415 CURVE SMOOTH",
"362 -415 OFFCURVE",
"371 -411 OFFCURVE",
"371 -394 CURVE SMOOTH",
"371 -384 OFFCURVE",
"367 -374 OFFCURVE",
"363 -365 CURVE",
"376 -348 OFFCURVE",
"532 -349 OFFCURVE",
"560 -341 CURVE SMOOTH",
"573 -337 OFFCURVE",
"593 -333 OFFCURVE",
"607 -333 CURVE SMOOTH",
"623 -333 OFFCURVE",
"640 -329 OFFCURVE",
"640 -310 CURVE SMOOTH",
"640 -280 OFFCURVE",
"618 -290 OFFCURVE",
"602 -279 CURVE",
"588 -275 OFFCURVE",
"581 -278 OFFCURVE",
"568 -278 CURVE SMOOTH",
"567 -278 OFFCURVE",
"563 -276 OFFCURVE",
"562 -276 CURVE",
"555 -270 OFFCURVE",
"538 -257 OFFCURVE",
"528 -257 CURVE SMOOTH",
"518 -257 OFFCURVE",
"508 -262 OFFCURVE",
"498 -262 CURVE SMOOTH",
"495 -262 OFFCURVE",
"491 -261 OFFCURVE",
"488 -259 CURVE",
"479 -248 OFFCURVE",
"463 -246 OFFCURVE",
"450 -246 CURVE SMOOTH",
"444 -246 OFFCURVE",
"440 -249 OFFCURVE",
"434 -251 CURVE",
"431 -250 OFFCURVE",
"429 -247 OFFCURVE",
"427 -245 CURVE SMOOTH",
"412 -229 OFFCURVE",
"380 -242 OFFCURVE",
"363 -231 CURVE SMOOTH",
"319 -202 OFFCURVE",
"322 -213 OFFCURVE",
"273 -213 CURVE SMOOTH",
"265 -213 OFFCURVE",
"219 -206 OFFCURVE",
"222 -193 CURVE SMOOTH",
"224 -185 LINE",
"238 -175 OFFCURVE",
"289 -177 OFFCURVE",
"307 -172 CURVE SMOOTH",
"317 -169 OFFCURVE",
"326 -164 OFFCURVE",
"334 -157 CURVE SMOOTH",
"353 -140 OFFCURVE",
"375 -138 OFFCURVE",
"397 -129 CURVE SMOOTH",
"401 -127 OFFCURVE",
"411 -123 OFFCURVE",
"415 -123 CURVE",
"420 -126 OFFCURVE",
"432 -133 OFFCURVE",
"438 -133 CURVE SMOOTH",
"442 -133 OFFCURVE",
"446 -131 OFFCURVE",
"449 -128 CURVE SMOOTH",
"460 -119 OFFCURVE",
"468 -124 OFFCURVE",
"479 -119 CURVE",
"501 -119 OFFCURVE",
"535 -109 OFFCURVE",
"535 -82 CURVE SMOOTH",
"535 -67 OFFCURVE",
"476 -50 OFFCURVE",
"462 -50 CURVE SMOOTH",
"454 -50 OFFCURVE",
"446 -53 OFFCURVE",
"439 -53 CURVE SMOOTH",
"423 -53 OFFCURVE",
"408 -45 OFFCURVE",
"391 -45 CURVE SMOOTH",
"374 -45 OFFCURVE",
"357 -40 OFFCURVE",
"340 -40 CURVE SMOOTH",
"325 -40 OFFCURVE",
"240 -1 OFFCURVE",
"240 15 CURVE SMOOTH",
"240 36 OFFCURVE",
"294 79 OFFCURVE",
"315 79 CURVE SMOOTH",
"325 79 OFFCURVE",
"333 84 OFFCURVE",
"340 91 CURVE SMOOTH",
"343 94 OFFCURVE",
"350 103 OFFCURVE",
"355 104 CURVE SMOOTH",
"413 116 OFFCURVE",
"470 123 OFFCURVE",
"528 131 CURVE SMOOTH",
"556 135 OFFCURVE",
"602 153 OFFCURVE",
"620 153 CURVE SMOOTH",
"628 153 OFFCURVE",
"636 150 OFFCURVE",
"644 150 CURVE SMOOTH",
"668 150 OFFCURVE",
"695 172 OFFCURVE",
"720 172 CURVE SMOOTH",
"730 172 OFFCURVE",
"731 180 OFFCURVE",
"739 184 CURVE",
"749 181 OFFCURVE",
"759 173 OFFCURVE",
"770 173 CURVE SMOOTH",
"786 173 OFFCURVE",
"857 183 OFFCURVE",
"868 190 CURVE SMOOTH",
"872 192 OFFCURVE",
"876 193 OFFCURVE",
"880 193 CURVE SMOOTH",
"890 193 OFFCURVE",
"899 191 OFFCURVE",
"909 190 CURVE",
"912 191 OFFCURVE",
"916 192 OFFCURVE",
"919 192 CURVE SMOOTH",
"925 192 OFFCURVE",
"932 189 OFFCURVE",
"938 189 CURVE SMOOTH",
"966 189 OFFCURVE",
"1016 206 OFFCURVE",
"1046 211 CURVE SMOOTH",
"1066 214 OFFCURVE",
"1084 217 OFFCURVE",
"1104 217 CURVE SMOOTH",
"1123 217 OFFCURVE",
"1141 226 OFFCURVE",
"1164 226 CURVE SMOOTH",
"1189 226 OFFCURVE",
"1200 231 OFFCURVE",
"1200 257 CURVE SMOOTH",
"1200 295 OFFCURVE",
"1128 282 OFFCURVE",
"1105 282 CURVE"
);
}
);
width = 1200;
}
);
note = uniE0C8;
unicode = E0C8;
},
{
color = 2;
glyphname = uniE0CA;
lastChange = "2019-12-03 18:43:28 +0000";
layers = (
{
layerId = "F8C3375C-B372-4BAE-A3FB-5A8DC7FA7AB9";
paths = (
{
closed = 1;
nodes = (
"1196 -606 LINE",
"1199 -601 LINE",
"1200 1698 LINE",
"1197 1703 LINE",
"1194 1704 OFFCURVE",
"1190 1704 OFFCURVE",
"1187 1704 CURVE SMOOTH",
"1173 1704 OFFCURVE",
"1162 1696 OFFCURVE",
"1148 1696 CURVE SMOOTH",
"1134 1696 OFFCURVE",
"1120 1698 OFFCURVE",
"1106 1698 CURVE SMOOTH",
"1075 1698 OFFCURVE",
"1041 1680 OFFCURVE",
"1017 1661 CURVE SMOOTH",
"1008 1654 OFFCURVE",
"938 1639 OFFCURVE",
"921 1634 CURVE",
"917 1636 OFFCURVE",
"911 1640 OFFCURVE",
"906 1640 CURVE SMOOTH",
"897 1640 OFFCURVE",
"825 1603 OFFCURVE",
"821 1599 CURVE",
"807 1599 OFFCURVE",
"786 1598 OFFCURVE",
"786 1579 CURVE SMOOTH",
"786 1557 OFFCURVE",
"811 1558 OFFCURVE",
"827 1558 CURVE",
"835 1545 OFFCURVE",
"842 1538 OFFCURVE",
"859 1538 CURVE SMOOTH",
"866 1538 OFFCURVE",
"873 1542 OFFCURVE",
"880 1542 CURVE SMOOTH",
"894 1542 OFFCURVE",
"924 1533 OFFCURVE",
"936 1526 CURVE SMOOTH",
"955 1514 OFFCURVE",
"1023 1517 OFFCURVE",
"1049 1517 CURVE SMOOTH",
"1058 1517 OFFCURVE",
"1066 1516 OFFCURVE",
"1073 1510 CURVE",
"1066 1498 OFFCURVE",
"950 1460 OFFCURVE",
"930 1460 CURVE SMOOTH",
"920 1460 OFFCURVE",
"907 1469 OFFCURVE",
"894 1469 CURVE SMOOTH",
"870 1469 OFFCURVE",
"828 1460 OFFCURVE",
"812 1442 CURVE SMOOTH",
"810 1440 OFFCURVE",
"807 1438 OFFCURVE",
"804 1437 CURVE",
"781 1444 OFFCURVE",
"765 1454 OFFCURVE",
"739 1454 CURVE SMOOTH",
"726 1454 OFFCURVE",
"721 1436 OFFCURVE",
"710 1429 CURVE",
"700 1433 OFFCURVE",
"691 1436 OFFCURVE",
"680 1436 CURVE SMOOTH",
"656 1436 OFFCURVE",
"654 1422 OFFCURVE",
"640 1418 CURVE SMOOTH",
"587 1403 OFFCURVE",
"582 1423 OFFCURVE",
"523 1390 CURVE SMOOTH",
"516 1386 OFFCURVE",
"509 1384 OFFCURVE",
"501 1385 CURVE SMOOTH",
"499 1385 OFFCURVE",
"496 1386 OFFCURVE",
"494 1387 CURVE",
"459 1380 OFFCURVE",
"452 1391 OFFCURVE",
"419 1370 CURVE SMOOTH",
"414 1367 OFFCURVE",
"406 1362 OFFCURVE",
"400 1362 CURVE SMOOTH",
"394 1362 OFFCURVE",
"389 1366 OFFCURVE",
"384 1366 CURVE SMOOTH",
"374 1366 OFFCURVE",
"370 1347 OFFCURVE",
"370 1339 CURVE SMOOTH",
"370 1299 OFFCURVE",
"426 1303 OFFCURVE",
"454 1303 CURVE SMOOTH",
"478 1303 OFFCURVE",
"503 1285 OFFCURVE",
"546 1285 CURVE SMOOTH",
"559 1285 OFFCURVE",
"578 1285 OFFCURVE",
"590 1289 CURVE",
"601 1286 OFFCURVE",
"608 1276 OFFCURVE",
"619 1274 CURVE SMOOTH",
"634 1271 OFFCURVE",
"664 1266 OFFCURVE",
"676 1257 CURVE SMOOTH",
"679 1255 OFFCURVE",
"683 1252 OFFCURVE",
"687 1252 CURVE SMOOTH",
"691 1252 OFFCURVE",
"702 1261 OFFCURVE",
"707 1263 CURVE",
"718 1253 OFFCURVE",
"718 1251 OFFCURVE",
"735 1251 CURVE SMOOTH",
"750 1251 OFFCURVE",
"765 1254 OFFCURVE",
"776 1264 CURVE",
"778 1265 OFFCURVE",
"782 1266 OFFCURVE",
"784 1266 CURVE SMOOTH",
"803 1266 OFFCURVE",
"819 1247 OFFCURVE",
"837 1243 CURVE SMOOTH",
"853 1239 OFFCURVE",
"907 1237 OFFCURVE",
"918 1231 CURVE SMOOTH",
"941 1218 OFFCURVE",
"1025 1229 OFFCURVE",
"1025 1183 CURVE SMOOTH",
"1025 1169 OFFCURVE",
"1006 1161 OFFCURVE",
"994 1161 CURVE SMOOTH",
"955 1161 OFFCURVE",
"896 1128 OFFCURVE",
"861 1128 CURVE",
"860 1129 OFFCURVE",
"858 1129 OFFCURVE",
"857 1129 CURVE SMOOTH",
"827 1129 OFFCURVE",
"796 1088 OFFCURVE",
"796 1088 CURVE",
"790 1090 OFFCURVE",
"786 1095 OFFCURVE",
"779 1095 CURVE SMOOTH",
"778 1095 OFFCURVE",
"732 1080 OFFCURVE",
"724 1078 CURVE SMOOTH",
"714 1076 OFFCURVE",
"715 1071 OFFCURVE",
"708 1066 CURVE",
"702 1068 OFFCURVE",
"695 1069 OFFCURVE",
"689 1069 CURVE SMOOTH",
"644 1069 OFFCURVE",
"621 1044 OFFCURVE",
"604 1044 CURVE SMOOTH",
"596 1044 OFFCURVE",
"589 1045 OFFCURVE",
"581 1045 CURVE SMOOTH",
"558 1045 OFFCURVE",
"537 1037 OFFCURVE",
"537 1010 CURVE SMOOTH",
"537 983 OFFCURVE",
"635 979 OFFCURVE",
"659 967 CURVE",
"678 966 OFFCURVE",
"704 941 OFFCURVE",
"725 941 CURVE SMOOTH",
"741 941 OFFCURVE",
"741 952 OFFCURVE",
"756 952 CURVE SMOOTH",
"772 952 OFFCURVE",
"775 935 OFFCURVE",
"790 935 CURVE SMOOTH",
"797 935 OFFCURVE",
"805 938 OFFCURVE",
"812 939 CURVE",
"873 927 OFFCURVE",
"985 897 OFFCURVE",
"985 817 CURVE SMOOTH",
"985 810 OFFCURVE",
"969 779 OFFCURVE",
"965 770 CURVE SMOOTH",
"940 707 OFFCURVE",
"950 702 OFFCURVE",
"877 702 CURVE SMOOTH",
"860 702 OFFCURVE",
"846 693 OFFCURVE",
"828 693 CURVE SMOOTH",
"812 693 OFFCURVE",
"753 683 OFFCURVE",
"753 661 CURVE SMOOTH",
"753 643 OFFCURVE",
"824 634 OFFCURVE",
"840 625 CURVE SMOOTH",
"860 613 OFFCURVE",
"909 631 OFFCURVE",
"932 612 CURVE",
"930 610 OFFCURVE",
"928 608 OFFCURVE",
"926 606 CURVE",
"908 603 OFFCURVE",
"892 603 OFFCURVE",
"874 603 CURVE SMOOTH",
"864 603 OFFCURVE",
"833 588 OFFCURVE",
"824 584 CURVE SMOOTH",
"797 572 OFFCURVE",
"762 576 OFFCURVE",
"734 576 CURVE SMOOTH",
"715 576 OFFCURVE",
"696 561 OFFCURVE",
"675 559 CURVE SMOOTH",
"654 557 OFFCURVE",
"632 554 OFFCURVE",
"632 527 CURVE SMOOTH",
"632 508 OFFCURVE",
"661 513 OFFCURVE",
"672 511 CURVE SMOOTH",
"697 507 OFFCURVE",
"686 501 OFFCURVE",
"723 501 CURVE SMOOTH",
"741 501 OFFCURVE",
"753 487 OFFCURVE",
"767 479 CURVE SMOOTH",
"800 460 OFFCURVE",
"881 437 OFFCURVE",
"919 430 CURVE SMOOTH",
"924 429 OFFCURVE",
"940 426 OFFCURVE",
"943 421 CURVE",
"933 401 OFFCURVE",
"928 410 OFFCURVE",
"909 410 CURVE SMOOTH",
"889 410 OFFCURVE",
"811 398 OFFCURVE",
"801 406 CURVE",
"795 405 OFFCURVE",
"787 401 OFFCURVE",
"781 401 CURVE SMOOTH",
"773 401 OFFCURVE",
"765 406 OFFCURVE",
"757 406 CURVE SMOOTH",
"747 406 OFFCURVE",
"745 397 OFFCURVE",
"738 394 CURVE SMOOTH",
"717 386 OFFCURVE",
"693 391 OFFCURVE",
"673 380 CURVE SMOOTH",
"669 378 OFFCURVE",
"664 377 OFFCURVE",
"660 377 CURVE SMOOTH",
"649 377 OFFCURVE",
"638 379 OFFCURVE",
"627 379 CURVE SMOOTH",
"599 379 OFFCURVE",
"603 366 OFFCURVE",
"588 366 CURVE SMOOTH",
"577 366 OFFCURVE",
"567 371 OFFCURVE",
"556 371 CURVE SMOOTH",
"535 371 OFFCURVE",
"515 360 OFFCURVE",
"492 360 CURVE SMOOTH",
"457 360 OFFCURVE",
"460 342 OFFCURVE",
"427 342 CURVE SMOOTH",
"388 342 OFFCURVE",
"366 311 OFFCURVE",
"356 311 CURVE SMOOTH",
"347 311 OFFCURVE",
"338 317 OFFCURVE",
"329 317 CURVE SMOOTH",
"314 318 OFFCURVE",
"298 319 OFFCURVE",
"283 319 CURVE SMOOTH",
"262 319 OFFCURVE",
"245 309 OFFCURVE",
"226 305 CURVE",
"211 308 OFFCURVE",
"195 315 OFFCURVE",
"180 315 CURVE SMOOTH",
"161 315 OFFCURVE",
"141 306 OFFCURVE",
"123 302 CURVE SMOOTH",
"100 297 OFFCURVE",
"0 317 OFFCURVE",
"0 277 CURVE SMOOTH",
"0 241 OFFCURVE",
"31 249 OFFCURVE",
"57 249 CURVE SMOOTH",
"70 249 OFFCURVE",
"83 240 OFFCURVE",
"96 240 CURVE SMOOTH",
"146 240 OFFCURVE",
"197 226 OFFCURVE",
"246 216 CURVE SMOOTH",
"251 215 OFFCURVE",
"257 214 OFFCURVE",
"262 214 CURVE SMOOTH",
"272 214 OFFCURVE",
"281 215 OFFCURVE",
"291 215 CURVE SMOOTH",
"301 215 OFFCURVE",
"310 218 OFFCURVE",
"320 218 CURVE SMOOTH",
"324 218 OFFCURVE",
"328 217 OFFCURVE",
"332 215 CURVE SMOOTH",
"343 208 OFFCURVE",
"414 199 OFFCURVE",
"430 199 CURVE SMOOTH",
"441 199 OFFCURVE",
"451 206 OFFCURVE",
"461 209 CURVE",
"468 205 OFFCURVE",
"471 198 OFFCURVE",
"480 198 CURVE SMOOTH",
"506 198 OFFCURVE",
"531 177 OFFCURVE",
"556 177 CURVE SMOOTH",
"565 177 OFFCURVE",
"575 180 OFFCURVE",
"585 180 CURVE SMOOTH",
"595 180 OFFCURVE",
"621 171 OFFCURVE",
"630 168 CURVE SMOOTH",
"652 160 OFFCURVE",
"801 143 OFFCURVE",
"846 135 CURVE",
"851 131 OFFCURVE",
"856 127 OFFCURVE",
"860 123 CURVE SMOOTH",
"867 116 OFFCURVE",
"876 111 OFFCURVE",
"886 111 CURVE SMOOTH",
"906 111 OFFCURVE",
"960 72 OFFCURVE",
"960 52 CURVE SMOOTH",
"960 38 OFFCURVE",
"874 0 OFFCURVE",
"860 0 CURVE SMOOTH",
"840 0 OFFCURVE",
"820 -3 OFFCURVE",
"800 -3 CURVE SMOOTH",
"786 -3 OFFCURVE",
"774 -11 OFFCURVE",
"760 -11 CURVE SMOOTH",
"753 -11 OFFCURVE",
"746 -8 OFFCURVE",
"738 -8 CURVE SMOOTH",
"724 -8 OFFCURVE",
"665 -23 OFFCURVE",
"665 -38 CURVE SMOOTH",
"665 -67 OFFCURVE",
"700 -70 OFFCURVE",
"721 -73 CURVE SMOOTH",
"734 -75 OFFCURVE",
"751 -85 OFFCURVE",
"762 -85 CURVE SMOOTH",
"769 -85 OFFCURVE",
"779 -80 OFFCURVE",
"786 -77 CURVE",
"786 -76 LINE",
"806 -81 OFFCURVE",
"851 -95 OFFCURVE",
"866 -109 CURVE SMOOTH",
"874 -116 OFFCURVE",
"883 -120 OFFCURVE",
"893 -122 CURVE SMOOTH",
"920 -127 OFFCURVE",
"948 -126 OFFCURVE",
"975 -133 CURVE",
"977 -136 OFFCURVE",
"977 -141 OFFCURVE",
"979 -144 CURVE",
"979 -147 OFFCURVE",
"960 -154 OFFCURVE",
"957 -156 CURVE SMOOTH",
"946 -163 OFFCURVE",
"899 -159 OFFCURVE",
"884 -159 CURVE SMOOTH",
"865 -159 OFFCURVE",
"854 -171 OFFCURVE",
"837 -177 CURVE SMOOTH",
"820 -183 OFFCURVE",
"786 -176 OFFCURVE",
"773 -190 CURVE SMOOTH",
"771 -192 OFFCURVE",
"769 -195 OFFCURVE",
"766 -196 CURVE",
"761 -193 OFFCURVE",
"756 -191 OFFCURVE",
"750 -191 CURVE SMOOTH",
"720 -191 OFFCURVE",
"713 -206 OFFCURVE",
"702 -206 CURVE SMOOTH",
"692 -206 OFFCURVE",
"682 -201 OFFCURVE",
"673 -201 CURVE SMOOTH",
"658 -201 OFFCURVE",
"646 -217 OFFCURVE",
"632 -221 CURVE",
"631 -221 OFFCURVE",
"620 -219 OFFCURVE",
"617 -219 CURVE SMOOTH",
"596 -219 OFFCURVE",
"561 -226 OFFCURVE",
"561 -251 CURVE SMOOTH",
"561 -261 OFFCURVE",
"567 -268 OFFCURVE",
"577 -270 CURVE SMOOTH",
"612 -277 OFFCURVE",
"651 -282 OFFCURVE",
"686 -282 CURVE SMOOTH",
"701 -282 OFFCURVE",
"830 -293 OFFCURVE",
"837 -302 CURVE",
"837 -313 OFFCURVE",
"829 -322 OFFCURVE",
"829 -335 CURVE SMOOTH",
"829 -346 OFFCURVE",
"847 -348 OFFCURVE",
"854 -348 CURVE SMOOTH",
"861 -348 OFFCURVE",
"869 -347 OFFCURVE",
"876 -345 CURVE",
"885 -348 OFFCURVE",
"891 -355 OFFCURVE",
"899 -360 CURVE SMOOTH",
"914 -368 OFFCURVE",
"937 -370 OFFCURVE",
"953 -373 CURVE SMOOTH",
"970 -377 OFFCURVE",
"975 -388 OFFCURVE",
"996 -388 CURVE SMOOTH",
"1008 -388 OFFCURVE",
"1056 -396 OFFCURVE",
"1056 -411 CURVE SMOOTH",
"1056 -423 OFFCURVE",
"1034 -425 OFFCURVE",
"1025 -425 CURVE SMOOTH",
"1003 -425 OFFCURVE",
"1009 -436 OFFCURVE",
"993 -440 CURVE SMOOTH",
"961 -449 OFFCURVE",
"936 -461 OFFCURVE",
"912 -485 CURVE",
"892 -492 OFFCURVE",
"850 -474 OFFCURVE",
"850 -507 CURVE SMOOTH",
"850 -515 OFFCURVE",
"853 -526 OFFCURVE",
"863 -527 CURVE SMOOTH",
"894 -531 OFFCURVE",
"924 -539 OFFCURVE",
"954 -539 CURVE SMOOTH",
"972 -539 OFFCURVE",
"987 -554 OFFCURVE",
"1002 -563 CURVE SMOOTH",
"1024 -576 OFFCURVE",
"1047 -567 OFFCURVE",
"1070 -574 CURVE SMOOTH",
"1080 -577 OFFCURVE",
"1089 -583 OFFCURVE",
"1098 -587 CURVE SMOOTH",
"1137 -607 OFFCURVE",
"1151 -606 OFFCURVE",
"1196 -606 CURVE"
);
}
);
width = 1200;
}
);
note = uniE0CA;
unicode = E0CA;
},
{
color = 2;
glyphname = uniE0CC;
lastChange = "2019-12-03 18:43:28 +0000";
layers = (
{
layerId = "F8C3375C-B372-4BAE-A3FB-5A8DC7FA7AB9";
paths = (
{
closed = 1;
nodes = (
"0 1778 LINE",
"0 781 LINE",
"331 781 LINE",
"496 1280 LINE",
"331 1778 LINE",
"0 1778 LINE"
);
},
{
closed = 1;
nodes = (
"539 531 LINE",
"704 33 LINE",
"1035 33 LINE",
"1200 531 LINE",
"1035 1030 LINE",
"704 1030 LINE",
"539 531 LINE"
);
},
{
closed = 1;
nodes = (
"0 317 LINE",
"0 -680 LINE",
"331 -680 LINE",
"496 -182 LINE",
"331 317 LINE",
"0 317 LINE"
);
}
);
width = 1200;
}
);
note = uniE0CC;
unicode = E0CC;
},
{
color = 2;
glyphname = uniE0CD;
lastChange = "2019-12-03 18:43:28 +0000";
layers = (
{
layerId = "F8C3375C-B372-4BAE-A3FB-5A8DC7FA7AB9";
paths = (
{
closed = 1;
nodes = (
"0 1778 LINE",
"0 752 LINE",
"345 752 LINE",
"514 1265 LINE",
"345 1778 LINE",
"0 1778 LINE"
);
},
{
closed = 1;
nodes = (
"328 801 LINE",
"28 801 LINE",
"28 1728 LINE",
"328 1728 LINE",
"481 1265 LINE",
"328 801 LINE"
);
},
{
closed = 1;
nodes = (
"523 532 LINE",
"692 19 LINE",
"1031 19 LINE",
"1200 532 LINE",
"1031 1045 LINE",
"692 1045 LINE",
"523 532 LINE"
);
},
{
closed = 1;
nodes = (
"1014 68 LINE",
"708 68 LINE",
"555 532 LINE",
"708 995 LINE",
"1014 995 LINE",
"1167 532 LINE",
"1014 68 LINE"
);
},
{
closed = 1;
nodes = (
"0 346 LINE",
"0 -680 LINE",
"345 -680 LINE",
"514 -167 LINE",
"345 346 LINE",
"0 346 LINE"
);
},
{
closed = 1;
nodes = (
"328 -630 LINE",
"28 -630 LINE",
"28 297 LINE",
"328 297 LINE",
"481 -167 LINE",
"328 -630 LINE"
);
}
);
width = 1200;
}
);
note = uniE0CD;
unicode = E0CD;
},
{
color = 2;
glyphname = uniE0CE;
lastChange = "2019-12-03 18:43:28 +0000";
layers = (
{
layerId = "F8C3375C-B372-4BAE-A3FB-5A8DC7FA7AB9";
paths = (
{
closed = 1;
nodes = (
"295 1778 LINE",
"4 659 LINE",
"469 659 LINE",
"775 1771 LINE",
"295 1778 LINE"
);
},
{
closed = 1;
nodes = (
"558 540 LINE",
"878 -654 LINE",
"950 -379 LINE",
"891 -376 LINE",
"856 -313 OFFCURVE",
"836 -179 OFFCURVE",
"836 -46 CURVE SMOOTH",
"836 77 OFFCURVE",
"855 211 OFFCURVE",
"892 287 CURVE",
"971 282 LINE",
"936 201 OFFCURVE",
"919 67 OFFCURVE",
"919 -54 CURVE SMOOTH",
"919 -192 OFFCURVE",
"939 -329 OFFCURVE",
"971 -379 CURVE",
"971 -379 LINE",
"976 -385 OFFCURVE",
"981 -388 OFFCURVE",
"986 -388 CURVE",
"987 -387 LINE",
"1011 -386 OFFCURVE",
"1034 -322 OFFCURVE",
"1046 -219 CURVE SMOOTH",
"1052 -168 OFFCURVE",
"1055 -112 OFFCURVE",
"1055 -51 CURVE SMOOTH",
"1055 -31 OFFCURVE",
"1054 -9 OFFCURVE",
"1053 16 CURVE",
"1108 224 LINE",
"1036 228 LINE",
"1002 291 OFFCURVE",
"981 425 OFFCURVE",
"981 558 CURVE SMOOTH",
"981 681 OFFCURVE",
"1000 815 OFFCURVE",
"1037 891 CURVE",
"1106 886 LINE",
"1052 1086 LINE",
"1053 1108 OFFCURVE",
"1053 1126 OFFCURVE",
"1053 1141 CURVE SMOOTH",
"1053 1232 OFFCURVE",
"1046 1319 OFFCURVE",
"1033 1379 CURVE SMOOTH",
"1020 1439 OFFCURVE",
"1003 1477 OFFCURVE",
"985 1477 CURVE SMOOTH",
"976 1477 OFFCURVE",
"967 1469 OFFCURVE",
"958 1452 CURVE",
"929 1370 OFFCURVE",
"916 1247 OFFCURVE",
"916 1134 CURVE SMOOTH",
"916 1120 OFFCURVE",
"916 1106 OFFCURVE",
"916 1092 CURVE SMOOTH",
"920 969 OFFCURVE",
"940 854 OFFCURVE",
"969 813 CURVE",
"888 817 LINE",
"866 857 OFFCURVE",
"849 926 OFFCURVE",
"840 1005 CURVE SMOOTH",
"836 1049 OFFCURVE",
"833 1097 OFFCURVE",
"833 1147 CURVE SMOOTH",
"833 1230 OFFCURVE",
"840 1308 OFFCURVE",
"856 1381 CURVE SMOOTH",
"865 1420 OFFCURVE",
"876 1453 OFFCURVE",
"888 1480 CURVE",
"946 1476 LINE",
"876 1734 LINE",
"558 540 LINE"
);
},
{
closed = 1;
nodes = (
"1131 213 LINE",
"1132 214 LINE",
"1157 215 OFFCURVE",
"1179 279 OFFCURVE",
"1191 382 CURVE SMOOTH",
"1197 433 OFFCURVE",
"1200 489 OFFCURVE",
"1200 550 CURVE SMOOTH",
"1200 671 OFFCURVE",
"1187 781 OFFCURVE",
"1166 841 CURVE SMOOTH",
"1155 871 OFFCURVE",
"1144 886 OFFCURVE",
"1131 886 CURVE SMOOTH",
"1124 886 OFFCURVE",
"1117 881 OFFCURVE",
"1110 871 CURVE",
"1080 790 OFFCURVE",
"1064 663 OFFCURVE",
"1064 547 CURVE SMOOTH",
"1064 534 OFFCURVE",
"1064 521 OFFCURVE",
"1065 509 CURVE SMOOTH",
"1068 384 OFFCURVE",
"1089 267 OFFCURVE",
"1117 223 CURVE",
"1114 223 LINE",
"1120 216 OFFCURVE",
"1125 213 OFFCURVE",
"1131 213 CURVE"
);
},
{
closed = 1;
nodes = (
"811 209 LINE",
"730 213 LINE",
"695 276 OFFCURVE",
"675 413 OFFCURVE",
"675 546 CURVE SMOOTH",
"675 668 OFFCURVE",
"694 799 OFFCURVE",
"731 876 CURVE",
"810 871 LINE",
"775 790 OFFCURVE",
"758 655 OFFCURVE",
"758 534 CURVE SMOOTH",
"758 524 OFFCURVE",
"758 513 OFFCURVE",
"758 504 CURVE SMOOTH",
"762 375 OFFCURVE",
"782 253 OFFCURVE",
"811 209 CURVE"
);
},
{
closed = 1;
nodes = (
"0 439 LINE",
"291 -680 LINE",
"786 -680 LINE",
"465 439 LINE",
"0 439 LINE"
);
}
);
width = 1200;
}
);
note = uniE0CE;
unicode = E0CE;
},
{
color = 2;
glyphname = uniE0CF;
lastChange = "2019-12-03 18:43:28 +0000";
layers = (
{
layerId = "F8C3375C-B372-4BAE-A3FB-5A8DC7FA7AB9";
paths = (
{
closed = 1;
nodes = (
"601 1500 LINE",
"607 1500 OFFCURVE",
"614 1500 OFFCURVE",
"620 1501 CURVE SMOOTH",
"681 1509 OFFCURVE",
"738 1549 OFFCURVE",
"759 1608 CURVE",
"759 1602 LINE",
"763 1613 OFFCURVE",
"764 1625 OFFCURVE",
"764 1637 CURVE SMOOTH",
"764 1638 LINE SMOOTH",
"763 1715 OFFCURVE",
"690 1778 OFFCURVE",
"599 1778 CURVE SMOOTH",
"509 1778 OFFCURVE",
"435 1714 OFFCURVE",
"435 1637 CURVE SMOOTH",
"435 1622 OFFCURVE",
"438 1608 OFFCURVE",
"443 1595 CURVE",
"443 1594 LINE",
"482 1532 OFFCURVE",
"544 1500 OFFCURVE",
"601 1500 CURVE"
);
},
{
closed = 1;
nodes = (
"21 1114 LINE",
"605 462 LINE",
"1188 1118 LINE",
"1053 1265 LINE",
"1052 1144 LINE",
"1021 1074 OFFCURVE",
"955 1032 OFFCURVE",
"890 1032 CURVE SMOOTH",
"830 1032 OFFCURVE",
"766 1072 OFFCURVE",
"728 1147 CURVE",
"731 1308 LINE",
"770 1237 OFFCURVE",
"836 1202 OFFCURVE",
"895 1202 CURVE SMOOTH",
"962 1202 OFFCURVE",
"1029 1243 OFFCURVE",
"1053 1309 CURVE SMOOTH",
"1056 1319 OFFCURVE",
"1058 1329 OFFCURVE",
"1058 1339 CURVE",
"1057 1341 LINE",
"1057 1418 OFFCURVE",
"984 1480 OFFCURVE",
"893 1480 CURVE SMOOTH",
"883 1480 OFFCURVE",
"873 1479 OFFCURVE",
"860 1477 CURVE",
"759 1589 LINE",
"757 1442 LINE",
"726 1372 OFFCURVE",
"660 1330 OFFCURVE",
"595 1330 CURVE SMOOTH",
"535 1330 OFFCURVE",
"471 1369 OFFCURVE",
"433 1444 CURVE",
"435 1586 LINE",
"338 1475 LINE",
"327 1476 OFFCURVE",
"318 1477 OFFCURVE",
"311 1477 CURVE SMOOTH",
"220 1477 OFFCURVE",
"147 1415 OFFCURVE",
"147 1336 CURVE SMOOTH",
"147 1318 OFFCURVE",
"151 1301 OFFCURVE",
"159 1284 CURVE",
"199 1225 OFFCURVE",
"259 1195 OFFCURVE",
"314 1195 CURVE SMOOTH",
"322 1195 OFFCURVE",
"328 1196 OFFCURVE",
"335 1197 CURVE SMOOTH",
"395 1205 OFFCURVE",
"451 1245 OFFCURVE",
"471 1304 CURVE",
"469 1138 LINE",
"439 1068 OFFCURVE",
"373 1025 OFFCURVE",
"308 1025 CURVE SMOOTH",
"248 1025 OFFCURVE",
"183 1065 OFFCURVE",
"146 1140 CURVE",
"147 1257 LINE",
"21 1114 LINE"
);
},
{
closed = 1;
nodes = (
"603 703 LINE",
"543 703 OFFCURVE",
"478 742 OFFCURVE",
"441 817 CURVE",
"443 979 LINE",
"483 907 OFFCURVE",
"549 872 OFFCURVE",
"609 872 CURVE SMOOTH",
"613 872 OFFCURVE",
"618 873 OFFCURVE",
"622 873 CURVE SMOOTH",
"686 880 OFFCURVE",
"745 921 OFFCURVE",
"766 981 CURVE",
"764 815 LINE",
"734 745 OFFCURVE",
"667 703 OFFCURVE",
"603 703 CURVE"
);
},
{
closed = 1;
nodes = (
"654 272 LINE",
"654 -680 LINE",
"1200 -84 LINE",
"1200 930 LINE",
"654 272 LINE"
);
},
{
closed = 1;
nodes = (
"0 -76 LINE",
"546 -671 LINE",
"546 281 LINE",
"3 908 LINE",
"0 -76 LINE"
);
}
);
width = 1200;
}
);
note = uniE0CF;
unicode = E0CF;
},
{
color = 2;
glyphname = uniE0D0;
lastChange = "2019-12-03 18:43:28 +0000";
layers = (
{
layerId = "F8C3375C-B372-4BAE-A3FB-5A8DC7FA7AB9";
paths = (
{
closed = 1;
nodes = (
"472 1304 LINE",
"423 1374 LINE SMOOTH",
"377 1440 OFFCURVE",
"315 1479 OFFCURVE",
"248 1479 CURVE SMOOTH",
"158 1479 OFFCURVE",
"77 1410 OFFCURVE",
"33 1301 CURVE SMOOTH",
"11 1246 OFFCURVE",
"0 1186 OFFCURVE",
"0 1121 CURVE SMOOTH",
"0 1025 OFFCURVE",
"25 934 OFFCURVE",
"72 868 CURVE SMOOTH",
"122 798 LINE SMOOTH",
"169 732 OFFCURVE",
"230 693 OFFCURVE",
"297 693 CURVE SMOOTH",
"386 693 OFFCURVE",
"467 762 OFFCURVE",
"511 871 CURVE SMOOTH",
"533 926 OFFCURVE",
"545 986 OFFCURVE",
"545 1051 CURVE SMOOTH",
"545 1147 OFFCURVE",
"518 1238 OFFCURVE",
"472 1304 CURVE"
);
},
{
closed = 1;
nodes = (
"727 868 LINE",
"777 798 LINE SMOOTH",
"824 732 OFFCURVE",
"885 693 OFFCURVE",
"952 693 CURVE SMOOTH",
"1041 693 OFFCURVE",
"1122 762 OFFCURVE",
"1166 871 CURVE SMOOTH",
"1188 926 OFFCURVE",
"1200 986 OFFCURVE",
"1200 1051 CURVE SMOOTH",
"1200 1147 OFFCURVE",
"1173 1238 OFFCURVE",
"1127 1304 CURVE SMOOTH",
"1078 1374 LINE SMOOTH",
"1032 1440 OFFCURVE",
"970 1479 OFFCURVE",
"903 1479 CURVE SMOOTH",
"813 1479 OFFCURVE",
"732 1410 OFFCURVE",
"688 1301 CURVE SMOOTH",
"666 1246 OFFCURVE",
"655 1186 OFFCURVE",
"655 1121 CURVE SMOOTH",
"655 1057 OFFCURVE",
"668 993 OFFCURVE",
"689 941 CURVE SMOOTH",
"700 914 OFFCURVE",
"712 890 OFFCURVE",
"727 868 CURVE"
);
},
{
closed = 1;
nodes = (
"113 890 LINE",
"68 955 OFFCURVE",
"45 1032 OFFCURVE",
"45 1121 CURVE SMOOTH",
"45 1213 OFFCURVE",
"74 1300 OFFCURVE",
"114 1355 CURVE SMOOTH",
"154 1410 OFFCURVE",
"204 1444 OFFCURVE",
"248 1444 CURVE SMOOTH",
"292 1444 OFFCURVE",
"343 1410 OFFCURVE",
"383 1353 CURVE SMOOTH",
"428 1288 OFFCURVE",
"450 1210 OFFCURVE",
"450 1121 CURVE SMOOTH",
"450 1030 OFFCURVE",
"422 943 OFFCURVE",
"382 888 CURVE SMOOTH",
"342 833 OFFCURVE",
"291 798 OFFCURVE",
"248 798 CURVE SMOOTH",
"203 798 OFFCURVE",
"152 833 OFFCURVE",
"113 890 CURVE"
);
},
{
closed = 1;
nodes = (
"769 1355 LINE",
"809 1410 OFFCURVE",
"859 1444 OFFCURVE",
"903 1444 CURVE SMOOTH",
"947 1444 OFFCURVE",
"998 1410 OFFCURVE",
"1038 1353 CURVE SMOOTH",
"1083 1288 OFFCURVE",
"1106 1210 OFFCURVE",
"1106 1121 CURVE SMOOTH",
"1106 1030 OFFCURVE",
"1077 943 OFFCURVE",
"1037 888 CURVE SMOOTH",
"997 833 OFFCURVE",
"946 798 OFFCURVE",
"903 798 CURVE SMOOTH",
"858 798 OFFCURVE",
"807 833 OFFCURVE",
"768 890 CURVE SMOOTH",
"723 955 OFFCURVE",
"700 1032 OFFCURVE",
"700 1121 CURVE SMOOTH",
"700 1213 OFFCURVE",
"729 1300 OFFCURVE",
"769 1355 CURVE"
);
},
{
closed = 1;
nodes = (
"392 1367 LINE",
"392 1368 LINE",
"397 1361 LINE SMOOTH",
"398 1360 OFFCURVE",
"396 1362 OFFCURVE",
"396 1362 CURVE",
"392 1367 LINE"
);
},
{
closed = 1;
nodes = (
"1052 1361 LINE",
"1053 1360 OFFCURVE",
"1052 1362 OFFCURVE",
"1051 1362 CURVE",
"1047 1367 LINE",
"1049 1366 OFFCURVE",
"1049 1364 OFFCURVE",
"1052 1361 CURVE"
);
},
{
closed = 1;
nodes = (
"102 1367 LINE",
"54 1298 OFFCURVE",
"31 1216 OFFCURVE",
"31 1121 CURVE SMOOTH",
"31 1115 LINE",
"24 1125 LINE",
"25 1221 OFFCURVE",
"54 1307 OFFCURVE",
"102 1367 CURVE"
);
},
{
closed = 1;
nodes = (
"757 1367 LINE",
"709 1298 OFFCURVE",
"686 1216 OFFCURVE",
"686 1121 CURVE SMOOTH",
"686 1115 LINE",
"679 1125 LINE",
"680 1221 OFFCURVE",
"709 1307 OFFCURVE",
"757 1367 CURVE"
);
},
{
closed = 1;
nodes = (
"530 1076 LINE",
"495 1125 LINE",
"495 1178 OFFCURVE",
"487 1228 OFFCURVE",
"471 1275 CURVE",
"507 1218 OFFCURVE",
"526 1152 OFFCURVE",
"530 1076 CURVE"
);
},
{
closed = 1;
nodes = (
"1185 1076 LINE",
"1151 1126 LINE",
"1150 1178 OFFCURVE",
"1142 1228 OFFCURVE",
"1126 1275 CURVE",
"1162 1218 OFFCURVE",
"1181 1152 OFFCURVE",
"1185 1076 CURVE"
);
},
{
closed = 1;
nodes = (
"455 1244 LINE",
"466 1205 OFFCURVE",
"471 1164 OFFCURVE",
"471 1121 CURVE SMOOTH",
"471 1116 LINE",
"464 1125 LINE",
"464 1175 OFFCURVE",
"456 1222 OFFCURVE",
"441 1267 CURVE",
"446 1260 OFFCURVE",
"450 1252 OFFCURVE",
"455 1244 CURVE"
);
},
{
closed = 1;
nodes = (
"1110 1244 LINE",
"1121 1205 OFFCURVE",
"1126 1164 OFFCURVE",
"1126 1121 CURVE SMOOTH",
"1126 1116 LINE",
"1119 1126 LINE",
"1119 1175 OFFCURVE",
"1111 1222 OFFCURVE",
"1097 1267 CURVE",
"1101 1260 OFFCURVE",
"1106 1252 OFFCURVE",
"1110 1244 CURVE"
);
},
{
closed = 1;
nodes = (
"462 812 LINE",
"421 752 OFFCURVE",
"361 713 OFFCURVE",
"300 713 CURVE",
"264 764 LINE",
"388 776 OFFCURVE",
"487 919 OFFCURVE",
"495 1098 CURVE",
"531 1047 LINE",
"530 956 OFFCURVE",
"503 871 OFFCURVE",
"462 812 CURVE"
);
},
{
closed = 1;
nodes = (
"464 1098 LINE",
"470 1089 LINE",
"464 1003 OFFCURVE",
"439 932 OFFCURVE",
"393 876 CURVE",
"437 939 OFFCURVE",
"460 1013 OFFCURVE",
"464 1098 CURVE"
);
},
{
closed = 1;
nodes = (
"1070 759 LINE",
"1035 730 OFFCURVE",
"996 714 OFFCURVE",
"955 713 CURVE",
"919 764 LINE",
"1043 776 OFFCURVE",
"1142 919 OFFCURVE",
"1150 1098 CURVE",
"1186 1047 LINE",
"1185 926 OFFCURVE",
"1141 818 OFFCURVE",
"1070 759 CURVE"
);
},
{
closed = 1;
nodes = (
"1048 876 LINE",
"1092 939 OFFCURVE",
"1115 1013 OFFCURVE",
"1119 1098 CURVE",
"1125 1089 LINE",
"1119 1003 OFFCURVE",
"1094 932 OFFCURVE",
"1048 876 CURVE"
);
},
{
closed = 1;
nodes = (
"25 1096 LINE",
"32 1085 LINE",
"37 1024 OFFCURVE",
"52 969 OFFCURVE",
"77 918 CURVE",
"81 905 LINE",
"47 960 OFFCURVE",
"28 1023 OFFCURVE",
"25 1096 CURVE"
);
},
{
closed = 1;
nodes = (
"680 1096 LINE",
"687 1085 LINE",
"692 1024 OFFCURVE",
"707 969 OFFCURVE",
"732 918 CURVE",
"736 905 LINE",
"703 960 OFFCURVE",
"683 1023 OFFCURVE",
"680 1096 CURVE"
);
},
{
closed = 1;
nodes = (
"141 798 LINE",
"173 775 OFFCURVE",
"208 764 OFFCURVE",
"245 763 CURVE",
"279 714 LINE",
"227 719 OFFCURVE",
"180 747 OFFCURVE",
"141 798 CURVE"
);
},
{
closed = 1;
nodes = (
"796 798 LINE",
"829 775 OFFCURVE",
"863 764 OFFCURVE",
"900 763 CURVE",
"934 714 LINE",
"882 719 OFFCURVE",
"835 747 OFFCURVE",
"796 798 CURVE"
);
},
{
closed = 1;
nodes = (
"472 230 LINE",
"423 300 LINE SMOOTH",
"377 366 OFFCURVE",
"315 405 OFFCURVE",
"248 405 CURVE SMOOTH",
"158 405 OFFCURVE",
"77 336 OFFCURVE",
"33 227 CURVE SMOOTH",
"11 172 OFFCURVE",
"0 112 OFFCURVE",
"0 47 CURVE SMOOTH",
"0 -49 OFFCURVE",
"25 -140 OFFCURVE",
"72 -206 CURVE SMOOTH",
"122 -276 LINE SMOOTH",
"169 -342 OFFCURVE",
"230 -381 OFFCURVE",
"297 -381 CURVE SMOOTH",
"386 -381 OFFCURVE",
"468 -314 OFFCURVE",
"511 -204 CURVE SMOOTH",
"533 -148 OFFCURVE",
"545 -88 OFFCURVE",
"545 -23 CURVE SMOOTH",
"545 73 OFFCURVE",
"518 164 OFFCURVE",
"472 230 CURVE"
);
},
{
closed = 1;
nodes = (
"1127 230 LINE",
"1078 300 LINE SMOOTH",
"1032 366 OFFCURVE",
"970 405 OFFCURVE",
"903 405 CURVE SMOOTH",
"813 405 OFFCURVE",
"732 336 OFFCURVE",
"688 227 CURVE SMOOTH",
"666 172 OFFCURVE",
"655 112 OFFCURVE",
"655 47 CURVE SMOOTH",
"655 -49 OFFCURVE",
"680 -140 OFFCURVE",
"727 -206 CURVE SMOOTH",
"777 -276 LINE SMOOTH",
"824 -342 OFFCURVE",
"885 -381 OFFCURVE",
"952 -381 CURVE SMOOTH",
"1041 -381 OFFCURVE",
"1123 -314 OFFCURVE",
"1166 -204 CURVE SMOOTH",
"1188 -148 OFFCURVE",
"1200 -88 OFFCURVE",
"1200 -23 CURVE SMOOTH",
"1200 41 OFFCURVE",
"1186 105 OFFCURVE",
"1166 158 CURVE SMOOTH",
"1156 184 OFFCURVE",
"1142 208 OFFCURVE",
"1127 230 CURVE"
);
},
{
closed = 1;
nodes = (
"113 -184 LINE",
"68 -119 OFFCURVE",
"45 -42 OFFCURVE",
"45 47 CURVE SMOOTH",
"45 139 OFFCURVE",
"74 226 OFFCURVE",
"114 281 CURVE SMOOTH",
"154 336 OFFCURVE",
"204 370 OFFCURVE",
"248 370 CURVE SMOOTH",
"292 370 OFFCURVE",
"343 336 OFFCURVE",
"383 279 CURVE SMOOTH",
"428 214 OFFCURVE",
"450 136 OFFCURVE",
"450 47 CURVE SMOOTH",
"450 -44 OFFCURVE",
"422 -131 OFFCURVE",
"382 -186 CURVE SMOOTH",
"342 -241 OFFCURVE",
"291 -276 OFFCURVE",
"248 -276 CURVE SMOOTH",
"203 -276 OFFCURVE",
"152 -241 OFFCURVE",
"113 -184 CURVE"
);
},
{
closed = 1;
nodes = (
"768 -184 LINE",
"723 -119 OFFCURVE",
"700 -42 OFFCURVE",
"700 47 CURVE SMOOTH",
"700 122 OFFCURVE",
"718 192 OFFCURVE",
"747 244 CURVE SMOOTH",
"761 269 OFFCURVE",
"777 292 OFFCURVE",
"794 311 CURVE SMOOTH",
"829 350 OFFCURVE",
"867 370 OFFCURVE",
"903 370 CURVE SMOOTH",
"947 370 OFFCURVE",
"998 336 OFFCURVE",
"1038 279 CURVE SMOOTH",
"1083 214 OFFCURVE",
"1106 136 OFFCURVE",
"1106 47 CURVE SMOOTH",
"1106 -44 OFFCURVE",
"1077 -131 OFFCURVE",
"1037 -186 CURVE SMOOTH",
"997 -241 OFFCURVE",
"946 -276 OFFCURVE",
"903 -276 CURVE SMOOTH",
"874 -276 OFFCURVE",
"842 -261 OFFCURVE",
"811 -234 CURVE SMOOTH",
"795 -220 OFFCURVE",
"781 -203 OFFCURVE",
"768 -184 CURVE"
);
},
{
closed = 1;
nodes = (
"392 294 LINE",
"397 287 LINE SMOOTH",
"398 286 OFFCURVE",
"396 288 OFFCURVE",
"396 288 CURVE",
"392 294 LINE"
);
},
{
closed = 1;
nodes = (
"34 144 LINE",
"46 203 OFFCURVE",
"71 253 OFFCURVE",
"102 293 CURVE",
"54 224 OFFCURVE",
"31 142 OFFCURVE",
"31 47 CURVE SMOOTH",
"31 41 LINE",
"24 51 LINE",
"25 83 OFFCURVE",
"28 114 OFFCURVE",
"34 144 CURVE"
);
},
{
closed = 1;
nodes = (
"757 293 LINE",
"709 224 OFFCURVE",
"686 142 OFFCURVE",
"686 47 CURVE SMOOTH",
"686 41 LINE",
"679 51 LINE",
"680 147 OFFCURVE",
"709 233 OFFCURVE",
"757 293 CURVE"
);
},
{
closed = 1;
nodes = (
"1049 292 LINE",
"1052 287 LINE SMOOTH",
"1053 286 OFFCURVE",
"1052 288 OFFCURVE",
"1051 288 CURVE",
"1049 292 LINE"
);
},
{
closed = 1;
nodes = (
"530 2 LINE",
"495 52 LINE",
"495 104 OFFCURVE",
"487 154 OFFCURVE",
"471 201 CURVE",
"507 144 OFFCURVE",
"526 78 OFFCURVE",
"530 2 CURVE"
);
},
{
closed = 1;
nodes = (
"1185 2 LINE",
"1151 52 LINE",
"1150 104 OFFCURVE",
"1142 154 OFFCURVE",
"1126 201 CURVE",
"1162 144 OFFCURVE",
"1181 78 OFFCURVE",
"1185 2 CURVE"
);
},
{
closed = 1;
nodes = (
"455 170 LINE",
"466 131 OFFCURVE",
"471 90 OFFCURVE",
"471 47 CURVE SMOOTH",
"471 42 LINE",
"464 51 LINE",
"464 101 OFFCURVE",
"456 148 OFFCURVE",
"441 193 CURVE",
"446 186 OFFCURVE",
"450 178 OFFCURVE",
"455 170 CURVE"
);
},
{
closed = 1;
nodes = (
"1110 170 LINE",
"1121 131 OFFCURVE",
"1126 90 OFFCURVE",
"1126 47 CURVE SMOOTH",
"1126 42 LINE",
"1119 52 LINE",
"1119 101 OFFCURVE",
"1111 148 OFFCURVE",
"1097 193 CURVE",
"1101 186 OFFCURVE",
"1106 178 OFFCURVE",
"1110 170 CURVE"
);
},
{
closed = 1;
nodes = (
"415 -316 LINE",
"380 -345 OFFCURVE",
"341 -360 OFFCURVE",
"300 -361 CURVE",
"264 -310 LINE",
"388 -298 OFFCURVE",
"487 -155 OFFCURVE",
"495 24 CURVE",
"531 -28 LINE",
"530 -148 OFFCURVE",
"487 -257 OFFCURVE",
"415 -316 CURVE"
);
},
{
closed = 1;
nodes = (
"464 24 LINE",
"470 15 LINE",
"464 -71 OFFCURVE",
"438 -142 OFFCURVE",
"393 -198 CURVE",
"437 -135 OFFCURVE",
"460 -61 OFFCURVE",
"464 24 CURVE"
);
},
{
closed = 1;
nodes = (
"1070 -316 LINE",
"1035 -345 OFFCURVE",
"996 -360 OFFCURVE",
"955 -361 CURVE",
"919 -310 LINE",
"1043 -298 OFFCURVE",
"1142 -155 OFFCURVE",
"1150 24 CURVE",
"1186 -27 LINE",
"1185 -148 OFFCURVE",
"1142 -257 OFFCURVE",
"1070 -316 CURVE"
);
},
{
closed = 1;
nodes = (
"1119 24 LINE",
"1125 15 LINE",
"1119 -71 OFFCURVE",
"1094 -142 OFFCURVE",
"1048 -198 CURVE",
"1092 -135 OFFCURVE",
"1115 -61 OFFCURVE",
"1119 24 CURVE"
);
},
{
closed = 1;
nodes = (
"25 22 LINE",
"32 11 LINE",
"37 -50 OFFCURVE",
"52 -105 OFFCURVE",
"77 -156 CURVE",
"81 -169 LINE",
"47 -114 OFFCURVE",
"28 -51 OFFCURVE",
"25 22 CURVE"
);
},
{
closed = 1;
nodes = (
"680 22 LINE",
"687 11 LINE",
"692 -50 OFFCURVE",
"707 -105 OFFCURVE",
"732 -156 CURVE",
"736 -169 LINE",
"703 -114 OFFCURVE",
"683 -51 OFFCURVE",
"680 22 CURVE"
);
},
{
closed = 1;
nodes = (
"141 -276 LINE",
"173 -299 OFFCURVE",
"208 -310 OFFCURVE",
"245 -311 CURVE",
"279 -360 LINE",
"227 -355 OFFCURVE",
"180 -327 OFFCURVE",
"141 -276 CURVE"
);
},
{
closed = 1;
nodes = (
"796 -276 LINE",
"829 -299 OFFCURVE",
"863 -310 OFFCURVE",
"900 -311 CURVE",
"934 -360 LINE",
"882 -355 OFFCURVE",
"835 -327 OFFCURVE",
"796 -276 CURVE"
);
}
);
width = 1200;
}
);
note = uniE0D0;
unicode = E0D0;
},
{
color = 2;
glyphname = uniE0D1;
lastChange = "2019-12-03 18:43:28 +0000";
layers = (
{
layerId = "F8C3375C-B372-4BAE-A3FB-5A8DC7FA7AB9";
paths = (
{
closed = 1;
nodes = (
"913 794 LINE",
"1167 794 LINE SMOOTH",
"1183 794 OFFCURVE",
"1200 817 OFFCURVE",
"1200 845 CURVE SMOOTH",
"1200 1479 LINE SMOOTH",
"1200 1504 OFFCURVE",
"1185 1530 OFFCURVE",
"1167 1530 CURVE SMOOTH",
"913 1530 LINE",
"913 1803 LINE",
"0 1803 LINE",
"0 -705 LINE",
"913 -705 LINE",
"913 -341 LINE",
"1165 -341 LINE SMOOTH",
"1180 -341 OFFCURVE",
"1197 -319 OFFCURVE",
"1197 -290 CURVE SMOOTH",
"1197 338 LINE SMOOTH",
"1197 362 OFFCURVE",
"1183 388 OFFCURVE",
"1165 388 CURVE SMOOTH",
"913 388 LINE",
"913 794 LINE"
);
},
{
closed = 1;
nodes = (
"917 1308 LINE",
"917 1441 LINE",
"1151 1441 LINE",
"1151 1308 LINE",
"917 1308 LINE"
);
},
{
closed = 1;
nodes = (
"917 154 LINE",
"917 287 LINE",
"1151 287 LINE",
"1151 154 LINE",
"917 154 LINE"
);
}
);
width = 1200;
}
);
note = uniE0D1;
unicode = E0D1;
},
{
color = 2;
glyphname = uniE0D2;
lastChange = "2019-12-03 18:43:28 +0000";
layers = (
{
layerId = "F8C3375C-B372-4BAE-A3FB-5A8DC7FA7AB9";
paths = (
{
closed = 1;
nodes = (
"0 1803 LINE",
"0 661 LINE",
"381 661 LINE",
"1172 1796 LINE",
"0 1803 LINE"
);
},
{
closed = 1;
nodes = (
"0 437 LINE",
"0 -705 LINE",
"1200 -705 LINE",
"371 437 LINE",
"0 437 LINE"
);
}
);
width = 1200;
}
);
note = uniE0D2;
unicode = E0D2;
},
{
color = 2;
glyphname = uniE0D4;
lastChange = "2019-12-03 18:43:28 +0000";
layers = (
{
layerId = "F8C3375C-B372-4BAE-A3FB-5A8DC7FA7AB9";
paths = (
{
closed = 1;
nodes = (
"28 1796 LINE",
"818 661 LINE",
"1200 661 LINE",
"1200 1803 LINE",
"28 1796 LINE"
);
},
{
closed = 1;
nodes = (
"829 437 LINE",
"0 -705 LINE",
"1200 -705 LINE",
"1200 437 LINE",
"829 437 LINE"
);
}
